<svg xmlns="http://www.w3.org/2000/svg" xmlns:xlink="http://www.w3.org/1999/xlink" width="500" zoomAndPan="magnify" viewBox="0 0 375 374.999991" height="500" preserveAspectRatio="xMidYMid meet" version="1.0"><path fill="#3533f3" d="M 56.703125 48.175781 C 55.554688 24.460938 74.773438 0.257812 99.4375 0.40625 C 169.199219 0.316406 238.957031 0.40625 308.71875 0.347656 C 312.050781 0.558594 319.164062 -0.015625 318.101562 5.488281 C 318.523438 98.25 318.375 191.042969 318.160156 283.769531 C 318.890625 294.902344 307.269531 298.261719 298.335938 298.289062 C 296.371094 306.402344 295.882812 314.808594 298.25 322.917969 C 303.421875 324.097656 309.714844 323.191406 313.863281 327.15625 C 319.523438 332.296875 318.859375 340.890625 317.558594 347.726562 C 312.863281 349.875 307.601562 349.175781 302.632812 349.359375 C 264.347656 349.089844 226.0625 349.542969 187.78125 349.148438 C 182.90625 349.449219 180.242188 346.546875 182.121094 341.675781 C 190.566406 338.648438 199.824219 340.585938 208.628906 340.101562 C 242.738281 339.738281 276.90625 340.949219 310.984375 339.46875 C 308.957031 334.65625 304.964844 331.570312 299.605469 332.71875 C 264.257812 332.835938 228.90625 332.6875 193.589844 332.835938 C 188.714844 332.683594 180.816406 333.714844 181.207031 326.605469 C 184.296875 322.945312 189.226562 323.730469 193.464844 323.546875 C 225.304688 323.636719 257.113281 323.578125 288.949219 323.609375 C 288.527344 321.25 287.648438 316.585938 287.195312 314.230469 C 248.851562 314.230469 210.503906 314.230469 172.15625 314.230469 C 171.765625 333.320312 172.945312 352.5 171.613281 371.5625 L 169.1875 374.015625 C 159.867188 371.898438 151.632812 366.785156 142.953125 363 C 134.234375 367.054688 125.519531 371.140625 116.714844 374.980469 C 112.144531 367.140625 114.082031 357.886719 113.714844 349.296875 C 101.820312 349.054688 89.046875 350.660156 78.125 344.789062 C 64.664062 337.984375 56.160156 323.101562 56.761719 308.066406 C 56.644531 221.449219 56.703125 134.800781 56.703125 48.175781 Z M 86.332031 318.835938 C 93.230469 326.402344 104.765625 322.710938 113.753906 323.675781 C 113.785156 321.378906 113.84375 316.78125 113.875 314.511719 C 107.96875 313.722656 100.949219 315.75 96.105469 311.304688 C 96.289062 305.890625 101.101562 304.742188 105.605469 305.132812 C 161.175781 305.191406 216.710938 305.101562 272.277344 305.191406 C 279.207031 304.675781 289.4375 308.007812 290.046875 297.839844 C 225.582031 297.566406 161.085938 297.507812 96.621094 297.839844 C 86.152344 297.113281 79.191406 310.96875 86.332031 318.835938 Z M 122.921875 314.238281 C 122.921875 330.242188 122.953125 346.25 122.921875 362.253906 C 129.429688 359.289062 135.726562 355.835938 142.503906 353.566406 C 149.769531 355.292969 156.242188 359.3125 163.082031 362.21875 C 162.964844 346.246094 163.023438 330.265625 163.023438 314.265625 C 149.648438 314.269531 136.300781 314.238281 122.921875 314.238281 Z M 122.921875 314.238281 " fill-opacity="1" fill-rule="nonzero"/></svg>