<svg xmlns="http://www.w3.org/2000/svg" xmlns:xlink="http://www.w3.org/1999/xlink" width="500" zoomAndPan="magnify" viewBox="0 0 375 374.999991" height="500" preserveAspectRatio="xMidYMid meet" version="1.0"><path fill="#3533f3" d="M 230.132812 337.429688 Z M 361.121094 215.589844 C 360.390625 229.339844 357.671875 242.683594 352.960938 255.617188 C 351.292969 259.917969 349.539062 264.046875 347.519531 268.082031 C 345.503906 272.121094 344.011719 277.035156 341.992188 281.425781 C 334.914062 297.699219 325.554688 312.535156 313.917969 325.929688 C 303.65625 337.773438 291.753906 347.632812 278.210938 355.511719 C 265.402344 362.945312 251.742188 368.152344 237.238281 371.136719 C 222.773438 374.136719 208.179688 375.015625 193.460938 373.769531 C 178.492188 372.566406 163.898438 369.554688 149.679688 364.730469 C 135.90625 360.246094 122.863281 354.191406 110.550781 346.558594 C 103.664062 342.222656 97.21875 337.304688 91.21875 331.800781 C 85.21875 326.300781 79.761719 320.304688 74.84375 313.816406 C 69.527344 306.816406 65.023438 299.324219 61.332031 291.34375 C 57.417969 283.445312 54.375 275.222656 52.207031 266.679688 C 48.960938 252.457031 49.136719 237.535156 50.542969 223.140625 C 52.648438 201.894531 57.558594 181.003906 64.226562 160.726562 L 65.015625 158.269531 C 67.613281 150.179688 70.878906 142.367188 74.8125 134.839844 C 78.746094 127.308594 83.289062 120.164062 88.441406 113.414062 L 90.636719 110.605469 L 88.355469 109.636719 C 87.039062 110.769531 85.664062 111.820312 84.230469 112.796875 C 75.195312 118.855469 63.878906 120.699219 53.261719 119.03125 C 48.050781 118.21875 43.195312 116.433594 38.699219 113.675781 C 33.96875 110.625 29.875 106.878906 26.414062 102.441406 C 23.035156 98.46875 20.289062 94.101562 18.167969 89.335938 C 16.046875 84.574219 14.644531 79.605469 13.957031 74.4375 C 13.472656 70.027344 13.558594 65.628906 14.210938 61.242188 C 14.867188 56.851562 16.066406 52.621094 17.816406 48.542969 C 24.835938 31.601562 38.609375 17.46875 54.753906 9.042969 C 62.582031 4.847656 70.914062 2.328125 79.757812 1.492188 C 81.230469 1.402344 82.703125 1.371094 84.175781 1.402344 C 85.652344 1.433594 87.125 1.523438 88.589844 1.675781 C 90.058594 1.828125 91.515625 2.042969 92.964844 2.316406 C 94.414062 2.589844 95.851562 2.921875 97.273438 3.3125 C 98.695312 3.707031 100.097656 4.15625 101.484375 4.664062 C 102.867188 5.175781 104.230469 5.738281 105.566406 6.359375 C 106.90625 6.980469 108.214844 7.65625 109.496094 8.386719 C 110.777344 9.117188 112.027344 9.898438 113.246094 10.734375 C 114.460938 11.566406 115.644531 12.449219 116.789062 13.382812 C 117.933594 14.3125 119.035156 15.289062 120.097656 16.3125 C 121.160156 17.335938 122.179688 18.402344 123.15625 19.507812 C 124.132812 20.617188 125.058594 21.761719 125.941406 22.945312 C 126.820312 24.128906 127.648438 25.347656 128.429688 26.601562 C 129.207031 27.855469 129.933594 29.136719 130.609375 30.449219 C 131.28125 31.765625 131.898438 33.101562 132.460938 34.46875 C 133.023438 35.832031 133.527344 37.21875 133.976562 38.625 C 137.484375 50.210938 137.136719 63.289062 132.484375 74.4375 L 131.957031 75.578125 C 138.015625 72.195312 144.273438 69.242188 150.734375 66.714844 C 162.039062 62.195312 173.707031 59.003906 185.738281 57.144531 C 199.683594 54.941406 213.660156 54.675781 227.675781 56.355469 C 243.84375 58.371094 259.316406 62.820312 274.085938 69.699219 C 291.195312 77.597656 306.8125 88.746094 320.585938 101.5625 C 323.984375 104.652344 327.082031 108.019531 329.886719 111.65625 C 336.746094 120.488281 342.421875 130.027344 346.90625 140.273438 C 352.03125 151.722656 355.804688 163.601562 358.222656 175.914062 C 360.859375 189.015625 361.824219 202.242188 361.121094 215.589844 Z M 150.734375 76.984375 Z M 41.242188 103.84375 L 40.890625 103.582031 Z M 79.667969 104.371094 C 78.386719 103.28125 77.21875 102.082031 76.160156 100.773438 C 74.714844 101.199219 73.246094 101.519531 71.75 101.730469 C 70.257812 101.941406 68.757812 102.042969 67.25 102.035156 C 65.742188 102.023438 64.242188 101.902344 62.753906 101.671875 C 61.261719 101.441406 59.796875 101.105469 58.355469 100.65625 C 56.917969 100.210938 55.515625 99.660156 54.15625 99.007812 C 52.796875 98.355469 51.496094 97.605469 50.246094 96.761719 C 48.996094 95.914062 47.816406 94.984375 46.703125 93.964844 C 45.59375 92.945312 44.5625 91.847656 43.609375 90.675781 C 35.363281 80.230469 33.871094 65.484375 38.960938 53.195312 C 44.050781 40.90625 53.699219 31.777344 65.367188 26.160156 C 71.859375 23 78.878906 20.890625 86.160156 21.332031 C 89.566406 21.480469 92.886719 22.09375 96.121094 23.167969 C 99.355469 24.238281 102.378906 25.734375 105.199219 27.652344 C 116.34375 35.199219 122.835938 48.894531 121.167969 62.324219 C 121.09375 63.132812 120.859375 63.894531 120.464844 64.605469 C 121.871094 65.867188 123.1875 67.210938 124.414062 68.644531 C 124.945312 67.210938 125.382812 65.746094 125.730469 64.253906 C 125.90625 63.554688 125.992188 62.761719 126.167969 62.0625 C 126.34375 61.359375 126.253906 61.269531 126.34375 60.921875 C 126.429688 60.570312 126.429688 60.304688 126.429688 60.21875 L 126.429688 59.953125 C 126.519531 59.515625 126.519531 59.164062 126.605469 58.8125 C 126.695312 58.460938 126.695312 57.496094 126.695312 56.882812 C 126.78125 54.125 126.695312 51.375 126.429688 48.628906 C 126.34375 48.496094 126.316406 48.347656 126.34375 48.191406 C 126.242188 47.847656 126.183594 47.496094 126.167969 47.136719 C 125.992188 46.4375 125.90625 45.820312 125.730469 45.207031 C 125.554688 44.59375 125.203125 42.75 124.851562 41.519531 C 124.5 40.292969 123.976562 38.886719 123.449219 37.570312 L 123.097656 36.867188 L 122.835938 36.253906 L 122.042969 34.496094 L 119.9375 30.898438 L 118.886719 29.320312 L 118.273438 28.441406 L 118.007812 28.089844 L 117.394531 27.300781 L 116.78125 26.597656 L 115.464844 25.105469 C 114.628906 24.210938 113.753906 23.363281 112.832031 22.558594 L 111.164062 21.066406 L 110.375 20.363281 L 110.113281 20.191406 L 107.128906 18.171875 C 104.945312 16.820312 102.691406 15.59375 100.375 14.484375 C 100.285156 14.484375 100.199219 14.484375 100.199219 14.394531 L 99.761719 14.394531 L 99.144531 14.132812 L 97.039062 13.34375 L 93.53125 12.289062 L 89.582031 11.5 L 88.617188 11.5 L 86.425781 11.234375 C 84.199219 11.132812 81.976562 11.164062 79.757812 11.324219 L 77.738281 11.324219 L 75.28125 11.761719 C 71.53125 12.554688 67.875 13.667969 64.316406 15.097656 L 64.140625 15.097656 L 63.613281 15.363281 L 62.386719 15.886719 L 59.578125 17.292969 C 57.824219 18.171875 56.070312 19.136719 54.402344 20.191406 L 49.136719 23.789062 L 48.4375 24.316406 L 48.523438 24.316406 C 48.464844 24.316406 48.4375 24.34375 48.4375 24.402344 L 48.347656 24.402344 L 48.171875 24.578125 L 47.382812 25.191406 C 46.523438 25.847656 45.707031 26.550781 44.925781 27.300781 C 41.734375 30.023438 38.8125 33.007812 36.152344 36.253906 L 35.101562 37.570312 L 34.75 38.007812 C 34.078125 38.84375 33.460938 39.722656 32.90625 40.640625 C 31.765625 42.308594 30.625 43.976562 29.660156 45.734375 C 28.695312 47.488281 27.730469 49.421875 26.941406 51.351562 C 26.769531 51.558594 26.652344 51.792969 26.589844 52.054688 C 26.40625 52.480469 26.257812 52.917969 26.152344 53.371094 C 25.777344 54.289062 25.457031 55.226562 25.1875 56.179688 C 24.59375 58.082031 24.125 60.011719 23.78125 61.972656 L 23.519531 63.464844 C 23.53125 63.648438 23.503906 63.824219 23.433594 63.992188 C 23.34375 65.046875 23.257812 66.097656 23.257812 67.066406 C 23.136719 69.03125 23.195312 70.992188 23.433594 72.945312 C 23.417969 73.300781 23.445312 73.652344 23.519531 74 C 23.605469 74.4375 23.605469 74.878906 23.695312 75.316406 C 23.78125 75.753906 24.046875 77.246094 24.308594 78.210938 C 24.851562 80.304688 25.523438 82.351562 26.328125 84.355469 L 26.765625 85.234375 C 26.941406 85.675781 27.203125 86.113281 27.378906 86.640625 C 27.554688 87.167969 28.34375 88.484375 28.957031 89.359375 C 29.546875 90.496094 30.222656 91.578125 30.976562 92.609375 L 32.03125 94.101562 L 32.46875 94.628906 L 32.554688 94.628906 C 34.164062 96.664062 35.890625 98.59375 37.730469 100.421875 L 40.714844 103.140625 L 40.890625 103.316406 L 40.976562 103.316406 L 41.242188 103.492188 L 42.558594 104.460938 C 43.589844 105.160156 44.671875 105.773438 45.804688 106.300781 L 47.382812 107.09375 L 47.996094 107.355469 C 46.769531 106.742188 47.734375 107.269531 47.996094 107.355469 C 50.191406 108.1875 52.441406 108.800781 54.753906 109.199219 L 55.804688 109.460938 L 56.15625 109.460938 C 55.453125 109.550781 56.246094 109.460938 56.507812 109.550781 L 60.71875 109.550781 C 61.894531 109.578125 63.0625 109.519531 64.226562 109.375 L 65.28125 109.375 C 65.542969 109.375 66.15625 109.023438 65.542969 109.375 C 64.929688 109.726562 65.632812 109.375 65.894531 109.289062 L 66.859375 109.113281 C 69.074219 108.671875 71.238281 108.058594 73.351562 107.269531 C 73.703125 107.179688 74.929688 106.476562 73.703125 107.179688 L 74.316406 106.917969 L 76.070312 106.039062 C 77.035156 105.601562 77.914062 104.984375 78.878906 104.460938 Z M 111.867188 58.988281 L 111.867188 57.496094 C 111.78125 56.792969 111.78125 56.003906 111.691406 55.300781 C 111.703125 55.121094 111.675781 54.945312 111.605469 54.773438 C 111.589844 54.417969 111.53125 54.066406 111.429688 53.722656 C 111.183594 52.222656 110.800781 50.761719 110.289062 49.332031 L 109.761719 47.929688 C 109.675781 47.753906 109.410156 46.613281 109.675781 47.753906 C 109.441406 47.039062 109.121094 46.363281 108.710938 45.734375 C 108.007812 44.316406 107.1875 42.972656 106.253906 41.695312 L 106.078125 41.433594 L 105.988281 41.433594 L 105.289062 40.554688 L 103.796875 38.976562 L 101.953125 37.308594 L 101.25 36.691406 L 100.726562 36.339844 C 99.472656 35.449219 98.15625 34.65625 96.777344 33.972656 L 95.460938 33.355469 L 95.199219 33.355469 L 93.441406 32.742188 C 92.121094 32.296875 90.777344 31.945312 89.40625 31.6875 L 88.089844 31.425781 L 87.917969 31.425781 C 87.222656 31.277344 86.519531 31.21875 85.808594 31.25 C 84.554688 31.164062 83.296875 31.164062 82.039062 31.25 L 80.546875 31.425781 L 80.285156 31.425781 L 78.265625 31.777344 L 73.703125 33.179688 L 72.300781 33.707031 C 72.300781 33.796875 72.300781 33.796875 72.210938 33.796875 L 72.035156 33.796875 L 69.84375 34.761719 L 66.597656 36.515625 C 65.28125 37.308594 64.050781 38.007812 62.824219 38.886719 L 61.15625 39.851562 L 60.457031 40.378906 L 60.191406 40.640625 C 58.03125 42.363281 56.042969 44.265625 54.226562 46.347656 C 53.683594 46.894531 53.183594 47.480469 52.734375 48.105469 L 52.648438 48.105469 L 52.121094 48.804688 C 51.332031 49.949219 50.628906 51.089844 49.925781 52.230469 C 49.226562 53.382812 48.613281 54.585938 48.085938 55.828125 L 48.085938 56.003906 C 47.996094 56.355469 47.820312 56.707031 47.734375 57.058594 C 47.644531 57.410156 47.296875 58.285156 47.03125 58.988281 C 46.769531 59.691406 46.332031 61.710938 46.066406 63.113281 C 45.964844 63.457031 45.90625 63.808594 45.890625 64.167969 L 45.890625 64.519531 C 45.804688 65.132812 45.804688 65.746094 45.714844 66.363281 C 45.613281 67.828125 45.644531 69.289062 45.804688 70.75 C 45.777344 71.316406 45.835938 71.871094 45.980469 72.417969 L 45.980469 72.769531 C 46.066406 73.035156 46.066406 73.386719 46.15625 73.648438 C 46.402344 75.03125 46.78125 76.378906 47.296875 77.6875 C 47.371094 78.050781 47.488281 78.402344 47.644531 78.738281 C 47.683594 78.882812 47.714844 79.03125 47.734375 79.179688 L 47.734375 78.914062 C 47.90625 79.511719 48.171875 80.070312 48.523438 80.582031 C 49.167969 81.910156 49.929688 83.167969 50.804688 84.359375 L 50.980469 84.621094 L 51.332031 84.972656 L 52.558594 86.289062 L 54.136719 87.78125 L 54.664062 88.132812 L 54.753906 88.132812 C 55.71875 88.835938 56.769531 89.449219 57.824219 90.0625 L 59.402344 90.851562 L 59.753906 90.851562 L 60.71875 91.203125 L 64.226562 92.082031 C 64.492188 92.167969 65.015625 92.34375 65.191406 92.257812 C 65.367188 92.167969 64.402344 92.167969 64.929688 92.167969 L 68.878906 92.167969 C 69.441406 92.203125 70 92.144531 70.542969 91.996094 C 69.753906 92.082031 69.667969 92.167969 70.195312 92.082031 L 70.894531 91.90625 L 71.511719 91.90625 L 72.476562 91.644531 C 72.273438 89.085938 72.507812 86.570312 73.1875 84.097656 C 73.867188 81.625 74.945312 79.34375 76.421875 77.246094 C 78.574219 74.144531 81.03125 71.304688 83.792969 68.730469 C 86.507812 66.039062 89.460938 63.640625 92.652344 61.535156 C 96.089844 59.242188 99.863281 57.898438 103.972656 57.496094 C 106.71875 57.375 109.351562 57.871094 111.867188 58.988281 Z M 50.628906 84.269531 L 50.804688 84.445312 Z M 97.039062 103.230469 C 104.492188 95.167969 112.738281 88.03125 121.78125 81.8125 C 121.078125 80.386719 120.289062 79.011719 119.414062 77.6875 C 119.128906 77.402344 118.894531 77.078125 118.710938 76.71875 L 118.535156 76.546875 L 118.449219 76.546875 L 116.605469 74.351562 C 115.410156 73.082031 114.152344 71.882812 112.832031 70.75 L 112.21875 70.3125 L 111.253906 69.609375 L 109.234375 68.382812 L 108.535156 68.03125 L 107.480469 67.679688 L 106.339844 67.414062 L 103.882812 67.414062 L 102.742188 67.679688 L 100.988281 68.207031 L 100.285156 68.558594 L 99.234375 69.082031 C 97.9375 69.800781 96.710938 70.621094 95.550781 71.542969 L 95.285156 71.71875 L 94.847656 71.980469 L 93.96875 72.769531 L 92.128906 74.4375 L 88.96875 77.335938 C 87.917969 78.476562 86.777344 79.617188 85.808594 80.847656 L 84.933594 82.074219 C 84.5 82.578125 84.148438 83.132812 83.878906 83.742188 C 83.351562 84.4375 82.941406 85.199219 82.652344 86.023438 C 82.585938 86.101562 82.554688 86.1875 82.5625 86.289062 C 82.476562 86.640625 82.300781 86.992188 82.214844 87.34375 C 82.125 87.691406 81.949219 88.308594 81.863281 88.835938 L 81.863281 90.328125 C 81.847656 90.539062 81.878906 90.742188 81.949219 90.941406 C 81.972656 91.242188 82.03125 91.53125 82.125 91.820312 L 82.125 91.996094 L 82.300781 92.34375 C 82.636719 92.851562 82.84375 93.410156 82.914062 94.011719 L 83.179688 94.277344 C 83.210938 94.480469 83.296875 94.65625 83.441406 94.804688 L 83.617188 94.980469 L 85.109375 96.558594 L 85.808594 97.171875 L 86.074219 97.4375 C 86.972656 98.152344 87.9375 98.769531 88.96875 99.28125 L 92.652344 101.210938 L 94.582031 102.089844 L 94.671875 102.089844 L 95.550781 102.441406 C 96.109375 102.585938 96.605469 102.851562 97.039062 103.230469 Z M 64.492188 274.050781 C 64.753906 274.84375 65.105469 275.632812 65.367188 276.511719 L 69.316406 255.792969 C 65.027344 245.523438 61.957031 234.902344 60.105469 223.929688 C 59.753906 227.617188 59.492188 231.300781 59.316406 234.988281 C 59.007812 242.089844 59.269531 249.171875 60.105469 256.234375 C 60.105469 256.320312 60.191406 256.757812 60.191406 257.109375 C 60.210938 257.257812 60.242188 257.40625 60.28125 257.550781 C 60.355469 258.289062 60.472656 259.019531 60.632812 259.742188 C 60.808594 261.078125 61.074219 262.394531 61.421875 263.695312 C 62.269531 267.199219 63.292969 270.652344 64.492188 274.050781 Z M 69.402344 286.164062 C 70.867188 289.324219 72.445312 292.398438 74.140625 295.382812 C 74.804688 288.238281 76.121094 281.214844 78.089844 274.316406 C 78.089844 274.140625 78.175781 274.050781 78.265625 273.875 C 76.246094 270.453125 74.40625 267.03125 72.738281 263.429688 L 69.316406 281.164062 C 69.253906 281.554688 69.085938 281.894531 68.8125 282.183594 C 68.542969 282.46875 68.210938 282.65625 67.824219 282.742188 L 68.089844 283.355469 Z M 89.847656 317.066406 L 90.285156 317.414062 C 90.398438 309.835938 91.390625 302.375 93.269531 295.03125 C 89.082031 290.0625 85.222656 284.855469 81.6875 279.40625 C 79.875 286.699219 78.851562 294.101562 78.617188 301.613281 C 78.601562 301.886719 78.542969 302.152344 78.441406 302.40625 C 79.757812 304.425781 81.160156 306.441406 82.652344 308.375 L 83.265625 309.164062 L 83.441406 309.425781 L 84.054688 310.21875 L 85.984375 312.585938 Z M 96.425781 283.707031 Z M 124.589844 343.664062 L 125.816406 344.277344 L 125.816406 323.210938 C 120.242188 319.664062 114.917969 315.773438 109.847656 311.535156 C 109.132812 317.335938 108.808594 323.15625 108.882812 329.003906 C 108.882812 332.074219 104.058594 332.074219 104.058594 329.003906 C 104.074219 321.886719 104.570312 314.808594 105.550781 307.761719 C 102.65625 305.125 99.847656 302.316406 97.214844 299.421875 C 95.78125 305.777344 95.050781 312.214844 95.023438 318.730469 C 95.039062 318.96875 95.019531 319.199219 94.957031 319.425781 C 94.894531 319.652344 94.792969 319.863281 94.65625 320.054688 C 94.519531 320.246094 94.355469 320.410156 94.164062 320.546875 C 93.96875 320.679688 93.757812 320.777344 93.53125 320.839844 L 98.179688 325.226562 C 99.550781 326.53125 100.984375 327.757812 102.480469 328.914062 L 104.847656 330.847656 L 105.289062 331.199219 L 106.253906 331.988281 C 112.082031 336.324219 118.195312 340.214844 124.589844 343.664062 Z M 149.769531 354.636719 C 149.503906 348.339844 149.59375 342.046875 150.03125 335.761719 C 146.171875 334.183594 142.3125 332.339844 138.539062 330.40625 C 134.765625 328.476562 133.1875 327.597656 130.554688 326.105469 L 130.554688 346.734375 L 134.0625 348.402344 C 135.605469 349.164062 137.183594 349.839844 138.800781 350.421875 C 137.484375 349.980469 138.976562 350.507812 139.242188 350.683594 L 140.46875 351.125 L 142.75 352 C 145.03125 352.96875 147.398438 353.757812 149.769531 354.636719 Z M 162.140625 358.585938 L 167.402344 359.902344 L 167.402344 359.726562 C 167.667969 353.84375 167.929688 348.050781 168.28125 342.167969 C 163.71875 340.851562 159.15625 339.359375 154.679688 337.605469 C 154.300781 343.835938 154.273438 350.070312 154.59375 356.300781 Z M 187.667969 363.675781 L 188.195312 363.675781 C 187.667969 357.96875 187.320312 352.175781 187.230469 346.382812 C 182.40625 345.59375 177.667969 344.628906 173.019531 343.398438 C 172.753906 348.839844 172.402344 354.285156 172.140625 359.726562 C 172.160156 360.175781 172.042969 360.585938 171.789062 360.953125 C 175.648438 361.746094 179.421875 362.535156 183.371094 363.0625 L 184.863281 363.324219 L 185.300781 363.324219 Z M 203.8125 364.730469 L 206.972656 364.730469 C 206.511719 364.304688 206.277344 363.777344 206.269531 363.148438 L 207.320312 348.226562 C 202.585938 348.050781 197.847656 347.789062 193.195312 347.171875 L 192.054688 347.171875 C 192.144531 352.878906 192.496094 358.585938 193.019531 364.289062 L 193.109375 364.289062 C 196.707031 364.464844 200.214844 364.640625 203.8125 364.730469 Z M 229.167969 362.972656 L 232.5 362.359375 C 232.414062 361.949219 232.414062 361.539062 232.5 361.128906 C 234.050781 356.210938 235.25 351.207031 236.097656 346.121094 C 228.167969 347.4375 220.183594 348.140625 212.148438 348.226562 L 211.09375 363.148438 C 211.0625 363.71875 210.859375 364.214844 210.480469 364.640625 C 215.265625 364.554688 220.035156 364.203125 224.78125 363.589844 L 225.308594 363.589844 L 226.625 363.414062 Z M 254.523438 356.214844 L 257.679688 354.984375 C 257.515625 354.527344 257.488281 354.058594 257.59375 353.582031 C 259.101562 349.066406 260.300781 344.472656 261.191406 339.800781 C 256 341.558594 250.738281 343.050781 245.398438 344.277344 L 241.097656 345.242188 C 240.246094 350.675781 239.046875 356.027344 237.503906 361.304688 L 244.433594 359.550781 C 247.855469 358.585938 251.1875 357.445312 254.523438 356.214844 Z M 281.984375 341.820312 L 284 340.414062 C 284.789062 336.464844 285.582031 332.601562 286.457031 328.652344 C 279.953125 332.234375 273.226562 335.335938 266.277344 337.957031 C 265.5625 342.960938 264.453125 347.878906 262.945312 352.703125 L 263.472656 352.441406 C 269.933594 349.410156 276.105469 345.871094 281.984375 341.820312 Z M 315.320312 308.902344 C 308.25 314.949219 300.707031 320.335938 292.6875 325.050781 L 291.371094 325.929688 C 291.566406 326.441406 291.625 326.96875 291.546875 327.511719 C 290.933594 330.320312 290.40625 333.214844 289.792969 336.023438 C 289.878906 335.9375 290.054688 335.851562 290.140625 335.675781 C 293.125 333.304688 295.933594 330.757812 298.652344 328.210938 C 301.371094 325.667969 304.09375 322.683594 306.636719 319.785156 L 310.496094 315.308594 C 311.199219 314.429688 311.8125 313.554688 312.515625 312.761719 L 312.777344 312.414062 L 313.65625 311.359375 Z M 351.378906 196.277344 C 351.117188 193.207031 350.679688 190.046875 350.414062 186.972656 C 350.589844 188.464844 350.414062 186.972656 350.414062 186.621094 C 350.3125 186.21875 350.253906 185.808594 350.238281 185.394531 C 350.082031 184.667969 349.964844 183.9375 349.890625 183.199219 C 349.625 181.707031 349.363281 180.125 349.011719 178.632812 C 347.859375 172.636719 346.371094 166.726562 344.539062 160.902344 C 343.660156 158.09375 342.695312 155.285156 341.640625 152.476562 L 340.0625 148.4375 C 339.894531 148.066406 339.746094 147.6875 339.625 147.296875 L 339.625 147.121094 L 338.835938 145.277344 C 336.601562 140.21875 334.085938 135.300781 331.289062 130.53125 C 329.972656 128.246094 328.570312 126.054688 327.078125 123.859375 C 325.585938 121.664062 325.675781 121.753906 324.886719 120.785156 L 323.746094 119.117188 L 323.304688 118.59375 C 320.402344 114.933594 317.242188 111.511719 313.832031 108.320312 C 310.320312 105.074219 306.722656 101.914062 302.953125 98.929688 L 301.546875 97.789062 L 300.671875 97.171875 C 299.859375 96.480469 299.011719 95.835938 298.125 95.242188 C 296.371094 93.925781 294.617188 92.609375 292.773438 91.378906 C 285.621094 86.496094 278.136719 82.195312 270.316406 78.476562 L 264.875 76.019531 L 263.734375 75.578125 L 262.507812 75.050781 L 259.875 74 C 256.191406 72.683594 252.503906 71.367188 248.730469 70.3125 C 244.960938 69.257812 241.539062 68.382812 237.941406 67.679688 L 232.414062 66.625 L 229.695312 66.1875 L 228.289062 66.011719 L 228.027344 66.011719 C 221.152344 65.148438 214.25 64.765625 207.320312 64.871094 C 203.898438 64.957031 200.566406 65.132812 197.234375 65.398438 L 192.40625 65.835938 L 191.089844 66.011719 L 189.773438 66.011719 L 188.546875 66.1875 C 182.449219 67.128906 176.425781 68.417969 170.472656 70.050781 C 164.96875 71.542969 159.558594 73.328125 154.242188 75.402344 L 150.558594 76.894531 L 150.382812 76.894531 L 149.503906 77.246094 L 147.75 78.039062 L 140.996094 81.285156 C 136.960938 83.390625 133.097656 85.585938 129.328125 88.042969 C 126.871094 89.625 124.5 91.203125 122.21875 92.960938 L 120.992188 93.835938 C 120.710938 94.050781 120.445312 94.285156 120.203125 94.539062 L 118.097656 96.121094 L 113.535156 100.070312 C 107.398438 105.546875 101.785156 111.519531 96.691406 117.976562 C 96.691406 118.066406 96.601562 118.066406 96.601562 118.152344 L 96.25 118.59375 L 95.375 119.820312 L 93.617188 122.191406 L 90.195312 127.195312 C 88.003906 130.617188 85.898438 134.21875 83.96875 137.816406 C 82.039062 141.414062 80.195312 145.101562 78.617188 148.875 C 78.476562 149.058594 78.386719 149.261719 78.351562 149.492188 C 78.113281 149.941406 77.90625 150.410156 77.738281 150.894531 L 76.6875 153.617188 C 75.984375 155.546875 75.28125 157.390625 74.667969 159.324219 C 72.0625 167.140625 70.160156 175.128906 68.964844 183.285156 C 68.964844 183.550781 68.878906 183.8125 68.878906 184.078125 C 68.769531 184.539062 68.710938 185.007812 68.703125 185.480469 C 68.527344 186.445312 68.4375 187.414062 68.351562 188.378906 C 68.265625 189.34375 68 192.414062 67.914062 194.433594 C 67.738281 198.472656 67.738281 202.597656 67.914062 206.722656 C 67.914062 208.65625 68.089844 210.675781 68.265625 212.691406 L 68.527344 215.765625 L 68.789062 217.257812 C 68.789062 217.609375 68.964844 219.101562 68.789062 217.871094 C 69.300781 221.835938 70.03125 225.753906 70.984375 229.636719 C 71.859375 233.585938 73 237.449219 74.230469 241.308594 C 74.84375 243.242188 75.457031 245.085938 76.160156 246.925781 C 76.863281 248.769531 76.863281 248.859375 77.300781 249.824219 L 77.828125 251.230469 L 78.175781 252.195312 C 81.320312 259.492188 85.03125 266.484375 89.320312 273.175781 C 91.511719 276.597656 93.792969 279.933594 96.25 283.179688 L 96.339844 283.179688 L 96.691406 283.621094 C 96.984375 284.050781 97.304688 284.460938 97.65625 284.847656 L 99.496094 287.042969 C 100.726562 288.625 102.042969 290.117188 103.355469 291.609375 C 106.078125 294.59375 108.972656 297.402344 111.957031 300.210938 L 116.34375 304.160156 L 118.796875 306.09375 L 119.9375 307.058594 L 120.730469 307.671875 C 127.613281 312.847656 134.894531 317.382812 142.574219 321.277344 C 144.679688 322.417969 146.785156 323.472656 148.980469 324.4375 L 152.3125 325.929688 L 153.453125 326.457031 L 154.945312 327.070312 C 159.15625 328.738281 163.453125 330.320312 167.839844 331.636719 C 172.132812 333.035156 176.488281 334.175781 180.914062 335.058594 C 183.105469 335.585938 185.214844 335.9375 187.40625 336.289062 C 188.503906 336.558594 189.613281 336.730469 190.738281 336.816406 L 191.878906 336.992188 L 193.195312 337.167969 C 201.679688 338.207031 210.191406 338.5 218.726562 338.042969 L 224.957031 337.519531 L 228.203125 337.167969 L 229.78125 336.992188 L 230.484375 336.992188 C 234.519531 336.375 238.644531 335.675781 242.679688 334.707031 C 250.808594 332.871094 258.734375 330.386719 266.453125 327.246094 L 267.945312 326.632812 L 268.035156 326.632812 L 268.558594 326.371094 L 271.28125 325.140625 L 276.808594 322.507812 C 280.492188 320.664062 284.175781 318.734375 287.6875 316.539062 C 291.195312 314.34375 294.617188 312.238281 297.949219 309.867188 C 299.707031 308.726562 301.371094 307.410156 303.039062 306.179688 L 303.652344 305.742188 L 303.828125 305.566406 L 304.882812 304.773438 C 305.683594 304.179688 306.441406 303.535156 307.164062 302.84375 C 313.0625 298.148438 318.503906 292.972656 323.480469 287.308594 C 324.710938 285.902344 325.851562 284.410156 326.992188 283.003906 L 327.429688 282.480469 C 327.640625 282.140625 327.875 281.820312 328.132812 281.511719 L 329.621094 279.40625 C 331.667969 276.539062 333.601562 273.554688 335.414062 270.453125 C 337.226562 267.351562 338.804688 264.367188 340.152344 261.5 C 340.949219 260.003906 341.621094 258.453125 342.167969 256.847656 C 341.816406 258.164062 342.34375 256.582031 342.433594 256.230469 C 342.617188 255.898438 342.761719 255.546875 342.871094 255.179688 L 343.746094 252.984375 C 346.03125 246.769531 347.84375 240.417969 349.1875 233.9375 C 349.539062 232.355469 349.800781 230.777344 350.066406 229.109375 C 350.328125 227.441406 350.328125 227.351562 350.503906 226.5625 C 350.679688 225.773438 350.589844 226.035156 350.589844 225.773438 L 350.589844 225.507812 C 350.765625 224.808594 350.589844 225.507812 350.589844 225.773438 C 350.589844 226.035156 350.679688 225.421875 350.679688 225.246094 C 351.03125 222.085938 351.378906 218.925781 351.554688 215.675781 C 351.894531 209.207031 351.835938 202.742188 351.378906 196.277344 Z M 350.589844 225.683594 Z M 228.640625 66.097656 Z M 328.042969 197.683594 C 329.972656 220.242188 324.183594 243.855469 312.339844 263.253906 C 300.496094 282.65625 281.808594 297.226562 261.277344 306.882812 C 240.75 316.539062 218.726562 320.3125 196.707031 317.679688 C 191.554688 317.101562 186.460938 316.195312 181.425781 314.960938 C 176.390625 313.726562 171.453125 312.171875 166.621094 310.296875 C 161.785156 308.421875 157.089844 306.246094 152.539062 303.761719 C 147.984375 301.28125 143.613281 298.519531 139.414062 295.46875 C 135.261719 292.46875 131.332031 289.195312 127.628906 285.65625 C 123.921875 282.113281 120.476562 278.335938 117.285156 274.324219 C 114.097656 270.308594 111.199219 266.097656 108.585938 261.6875 C 105.976562 257.277344 103.675781 252.707031 101.691406 247.980469 C 92.652344 226.300781 91.777344 201.632812 98.09375 179.074219 C 101.46875 166.722656 106.878906 155.339844 114.324219 144.925781 C 121.808594 134.476562 130.84375 125.609375 141.433594 118.328125 C 161.964844 104.195312 187.320312 95.945312 212.324219 96.472656 C 218.25 96.179688 224.160156 96.414062 230.042969 97.171875 C 255.222656 100.246094 279.175781 111.394531 297.160156 129.476562 C 315.148438 147.558594 325.9375 172.226562 328.042969 197.683594 Z M 142.574219 285.902344 L 142.75 286.078125 C 142.660156 285.988281 141.960938 285.464844 142.574219 285.902344 Z M 318.566406 199 C 318.480469 197.417969 318.304688 195.839844 318.128906 194.257812 C 317.953125 192.679688 318.042969 193.558594 318.042969 193.117188 L 317.953125 193.117188 L 317.691406 191.011719 C 317.164062 188.027344 316.550781 185.042969 315.847656 182.058594 C 315.148438 179.160156 314.269531 176.351562 313.304688 173.453125 L 311.726562 168.976562 L 310.933594 167.046875 L 310.847656 167.046875 L 310.410156 165.992188 C 307.945312 160.488281 305.050781 155.222656 301.722656 150.191406 L 299.003906 146.332031 C 298.742188 146.03125 298.507812 145.707031 298.300781 145.363281 L 298.214844 145.363281 L 296.898438 143.785156 C 294.96875 141.445312 292.949219 139.160156 290.84375 136.9375 C 288.828125 134.832031 286.632812 132.8125 284.441406 130.882812 L 280.753906 127.898438 L 280.578125 127.898438 L 279.789062 127.371094 L 278.125 126.140625 C 273.210938 122.601562 268.035156 119.5 262.59375 116.835938 L 258.46875 114.90625 L 257.417969 114.464844 L 257.332031 114.464844 L 255.398438 113.675781 C 252.59375 112.535156 249.785156 111.570312 246.890625 110.691406 C 243.996094 109.8125 241.011719 109.113281 238.117188 108.496094 L 233.640625 107.621094 L 231.359375 107.269531 L 230.394531 107.269531 C 224.390625 106.550781 218.367188 106.316406 212.324219 106.566406 C 209.515625 106.476562 206.707031 106.566406 203.8125 106.742188 L 199.425781 107.09375 L 197.582031 107.269531 L 196.441406 107.445312 L 196.179688 107.445312 C 190.320312 108.332031 184.558594 109.648438 178.894531 111.394531 C 176 112.273438 173.105469 113.238281 170.296875 114.378906 L 167.753906 115.34375 L 167.667969 115.34375 L 166.789062 115.78125 L 162.664062 117.625 C 157.292969 120.21875 152.144531 123.203125 147.222656 126.578125 C 145.996094 127.371094 144.679688 128.246094 143.539062 129.125 L 141.960938 130.265625 L 141.519531 130.707031 C 141.191406 130.890625 140.898438 131.125 140.644531 131.40625 C 138.363281 133.164062 136.257812 135.09375 134.152344 137.027344 C 132.046875 138.957031 129.941406 141.238281 128.011719 143.433594 L 125.027344 147.03125 L 124.589844 147.558594 L 124.148438 148.175781 L 122.746094 150.019531 C 119.230469 154.855469 116.191406 159.976562 113.621094 165.378906 C 112.921875 166.785156 112.304688 168.1875 111.691406 169.59375 C 111.078125 170.996094 111.605469 169.679688 111.605469 169.769531 C 111.421875 170.105469 111.273438 170.453125 111.164062 170.820312 C 110.835938 171.507812 110.542969 172.210938 110.289062 172.929688 C 109.234375 175.738281 108.359375 178.546875 107.570312 181.355469 C 106.777344 184.164062 105.988281 187.238281 105.375 190.222656 L 104.585938 194.785156 C 104.496094 195.136719 104.496094 195.574219 104.410156 195.925781 L 104.410156 196.101562 L 104.148438 198.386719 C 103.546875 204.34375 103.429688 210.3125 103.796875 216.292969 C 103.972656 217.871094 104.058594 219.363281 104.234375 220.945312 C 104.410156 222.523438 104.324219 221.648438 104.410156 222.085938 L 104.410156 222.261719 C 104.476562 222.941406 104.59375 223.617188 104.761719 224.28125 C 105.113281 226.648438 105.636719 228.933594 106.164062 231.214844 C 107.285156 235.984375 108.777344 240.636719 110.640625 245.171875 C 110.726562 245.347656 111.164062 246.488281 110.902344 245.699219 C 110.640625 244.910156 110.988281 245.875 110.988281 245.960938 C 110.988281 246.050781 111.515625 247.101562 111.691406 247.628906 L 113.183594 250.703125 C 114.234375 252.808594 115.375 254.914062 116.605469 257.023438 C 117.832031 259.128906 119.148438 261.148438 120.554688 263.167969 C 121.199219 264.175781 121.898438 265.140625 122.660156 266.0625 C 123.058594 266.527344 123.410156 267.023438 123.710938 267.554688 L 124.0625 267.996094 C 127.078125 271.773438 130.324219 275.34375 133.800781 278.703125 L 139.066406 283.445312 L 142.136719 285.902344 C 142.222656 285.988281 142.660156 286.253906 142.75 286.429688 L 144.066406 287.394531 C 147.933594 290.214844 151.9375 292.816406 156.085938 295.207031 L 162.664062 298.542969 L 166.085938 300.121094 L 166.875 300.472656 C 167.492188 300.632812 168.078125 300.867188 168.632812 301.175781 C 173.152344 303 177.773438 304.523438 182.492188 305.742188 L 189.863281 307.410156 L 193.636719 308.023438 L 195.476562 308.285156 L 196.09375 308.285156 C 201.160156 308.929688 206.25 309.222656 211.359375 309.164062 C 213.902344 309.164062 216.359375 308.988281 218.816406 308.8125 L 223.027344 308.375 L 224.691406 308.199219 C 223.203125 308.375 225.308594 308.109375 225.65625 308.023438 C 230.84375 307.222656 235.960938 306.109375 241.011719 304.6875 C 243.644531 303.898438 246.277344 303.019531 248.820312 302.054688 L 252.679688 300.472656 L 252.855469 300.472656 L 253.820312 300.035156 L 255.75 299.15625 C 261.144531 296.695312 266.347656 293.886719 271.367188 290.730469 C 273.734375 289.238281 276.191406 287.65625 278.472656 285.988281 L 280.230469 284.761719 L 281.019531 284.058594 L 281.105469 284.058594 L 284.089844 281.6875 C 288.152344 278.230469 291.894531 274.457031 295.320312 270.363281 C 296.195312 269.398438 296.984375 268.433594 297.773438 267.378906 L 298.390625 266.679688 C 298.390625 266.621094 298.417969 266.589844 298.476562 266.589844 C 298.820312 266.214844 299.113281 265.808594 299.355469 265.363281 C 300.847656 263.34375 302.25 261.324219 303.566406 259.21875 C 306.175781 255.058594 308.457031 250.730469 310.410156 246.226562 L 310.671875 245.609375 C 310.847656 245.171875 310.847656 245.261719 310.496094 245.875 C 310.144531 246.488281 310.847656 245.261719 310.933594 245.085938 C 311.023438 244.910156 311.375 243.855469 311.550781 243.242188 C 311.726562 242.625 312.425781 241.132812 312.777344 239.992188 C 313.128906 238.851562 314.355469 235.164062 315.058594 232.707031 C 315.761719 230.25 316.460938 227.527344 316.988281 224.984375 C 317.515625 222.4375 317.601562 221.824219 317.777344 220.328125 C 317.875 219.957031 317.933594 219.574219 317.953125 219.1875 L 318.042969 219.1875 C 318.144531 218.492188 318.203125 217.789062 318.21875 217.082031 C 318.910156 211.066406 319.027344 205.039062 318.566406 199 Z M 48.4375 24.402344 L 48.171875 24.578125 Z M 35.101562 37.65625 L 35.011719 37.65625 C 34.835938 38.007812 34.398438 38.710938 35.101562 37.65625 Z M 78.265625 11.234375 Z M 288.476562 172.402344 C 282.335938 174.332031 275.929688 176.175781 269.523438 176.878906 C 268.035156 176.964844 266.542969 176.613281 265.753906 175.296875 C 264.964844 173.980469 265.753906 171.875 266.453125 170.292969 C 267.15625 168.714844 267.683594 167.308594 268.382812 165.816406 L 269.175781 163.886719 L 267.859375 163.886719 L 263.910156 164.324219 C 262.683594 164.414062 261.191406 164.765625 260.136719 163.710938 C 259.902344 163.460938 259.710938 163.179688 259.570312 162.867188 C 259.429688 162.554688 259.34375 162.226562 259.3125 161.882812 C 259.277344 161.542969 259.304688 161.203125 259.386719 160.871094 C 259.46875 160.535156 259.601562 160.226562 259.785156 159.9375 C 260.925781 157.566406 262.507812 155.195312 263.910156 152.828125 L 267.945312 145.890625 C 269.523438 143.171875 273.648438 145.628906 272.070312 148.261719 L 267.859375 155.460938 L 265.753906 159.148438 L 265.753906 159.324219 L 269.085938 158.972656 C 271.28125 158.796875 274.085938 158.355469 274.789062 161.164062 C 274.941406 162.316406 274.738281 163.398438 274.175781 164.414062 C 273.648438 165.554688 273.121094 166.785156 272.683594 167.925781 L 271.367188 170.910156 C 271.285156 171.1875 271.171875 171.453125 271.015625 171.699219 L 272.597656 171.4375 L 277.507812 170.382812 C 280.84375 169.59375 284.089844 168.714844 287.335938 167.75 C 290.582031 166.785156 291.457031 171.523438 288.476562 172.402344 Z M 264.085938 162.132812 C 263.910156 162.394531 264.085938 162.308594 264.085938 162.132812 Z M 155.382812 159.585938 C 157.097656 159.851562 158.792969 159.761719 160.472656 159.324219 L 161.4375 159.058594 L 162.050781 159.058594 C 162.457031 159.078125 162.804688 159.222656 163.105469 159.496094 C 163.546875 159.738281 163.867188 160.089844 164.070312 160.550781 C 164.214844 160.921875 164.332031 161.304688 164.421875 161.691406 C 164.441406 162.113281 164.324219 162.496094 164.070312 162.832031 C 163.84375 163.191406 163.550781 163.484375 163.191406 163.710938 C 162.800781 164.015625 162.363281 164.191406 161.871094 164.238281 C 161.378906 164.285156 160.914062 164.199219 160.472656 163.976562 C 160.167969 163.894531 159.863281 163.875 159.554688 163.914062 C 159.242188 163.957031 158.953125 164.054688 158.679688 164.210938 C 158.410156 164.367188 158.179688 164.570312 157.988281 164.816406 C 157.796875 165.066406 157.660156 165.339844 157.578125 165.640625 C 157.496094 165.949219 157.472656 166.261719 157.511719 166.578125 C 157.554688 166.894531 157.652344 167.195312 157.804688 167.472656 C 157.960938 167.75 158.164062 167.988281 158.414062 168.191406 C 158.660156 168.390625 158.9375 168.535156 159.242188 168.628906 C 159.925781 168.847656 160.625 168.972656 161.34375 169 C 162.0625 169.027344 162.769531 168.957031 163.464844 168.785156 C 164.164062 168.613281 164.824219 168.351562 165.449219 167.996094 C 166.074219 167.640625 166.636719 167.207031 167.140625 166.695312 C 167.671875 166.136719 168.105469 165.507812 168.433594 164.808594 C 168.765625 164.113281 168.976562 163.378906 169.074219 162.613281 C 169.167969 161.847656 169.140625 161.082031 168.988281 160.324219 C 168.839844 159.566406 168.574219 158.851562 168.191406 158.179688 C 167.800781 157.484375 167.3125 156.863281 166.730469 156.316406 C 166.144531 155.773438 165.488281 155.332031 164.765625 154.992188 C 164.039062 154.65625 163.28125 154.433594 162.488281 154.335938 C 161.695312 154.234375 160.90625 154.257812 160.121094 154.40625 C 158.628906 154.671875 157.3125 155.195312 156.085938 154.757812 C 155.21875 154.355469 154.546875 153.738281 154.066406 152.914062 C 153.839844 152.453125 153.734375 151.96875 153.75 151.453125 C 153.765625 150.941406 153.898438 150.460938 154.15625 150.015625 C 154.417969 149.488281 154.789062 149.050781 155.269531 148.707031 C 155.753906 148.367188 156.289062 148.160156 156.875 148.085938 C 157.132812 147.960938 157.359375 147.792969 157.558594 147.585938 C 157.761719 147.378906 157.917969 147.144531 158.035156 146.878906 C 158.152344 146.617188 158.21875 146.34375 158.242188 146.054688 C 158.261719 145.769531 158.234375 145.488281 158.15625 145.210938 C 158.074219 144.933594 157.953125 144.679688 157.785156 144.445312 C 157.617188 144.214844 157.414062 144.015625 157.179688 143.851562 C 156.941406 143.691406 156.683594 143.574219 156.40625 143.5 C 156.128906 143.429688 155.84375 143.40625 155.558594 143.433594 C 154.828125 143.59375 154.128906 143.84375 153.46875 144.191406 C 152.804688 144.539062 152.199219 144.964844 151.648438 145.476562 C 151.101562 145.984375 150.632812 146.558594 150.238281 147.195312 C 149.84375 147.832031 149.542969 148.507812 149.328125 149.226562 C 149.105469 149.953125 148.984375 150.695312 148.972656 151.453125 C 148.960938 152.210938 149.054688 152.957031 149.257812 153.6875 C 149.457031 154.421875 149.761719 155.109375 150.160156 155.753906 C 150.5625 156.398438 151.042969 156.972656 151.609375 157.480469 C 152.691406 158.5 153.949219 159.203125 155.382812 159.585938 Z M 162.578125 259.65625 L 148.277344 272.824219 C 147.046875 273.964844 145.820312 274.84375 144.066406 274.316406 C 142.3125 273.789062 141.695312 272.296875 140.730469 271.242188 L 134.414062 264.21875 C 132.308594 261.9375 135.730469 258.601562 137.75 260.886719 L 143.277344 267.03125 L 144.679688 268.609375 L 145.292969 269.046875 L 145.558594 268.785156 L 147.046875 267.46875 L 149.15625 265.449219 L 144.242188 259.042969 C 143.835938 258.472656 143.746094 257.859375 143.976562 257.199219 C 144.089844 256.550781 144.441406 256.082031 145.03125 255.792969 C 145.605469 255.429688 146.21875 255.34375 146.875 255.53125 C 147.5 255.699219 147.996094 256.046875 148.363281 256.582031 L 152.664062 262.289062 L 157.3125 257.898438 L 150.910156 251.84375 C 148.628906 249.738281 152.050781 246.3125 154.242188 248.421875 L 162.578125 256.234375 C 162.789062 256.464844 162.953125 256.730469 163.066406 257.027344 C 163.179688 257.320312 163.238281 257.628906 163.238281 257.945312 C 163.238281 258.261719 163.179688 258.566406 163.066406 258.863281 C 162.953125 259.15625 162.789062 259.421875 162.578125 259.65625 Z M 145.90625 269.839844 Z M 282.421875 267.292969 C 282.761719 267.636719 282.980469 268.046875 283.066406 268.523438 C 283.15625 269 283.105469 269.460938 282.914062 269.90625 C 282.71875 270.351562 282.417969 270.703125 282.007812 270.964844 C 281.597656 271.222656 281.152344 271.34375 280.667969 271.332031 L 263.824219 271.332031 C 265.910156 274.007812 267.753906 276.847656 269.351562 279.84375 C 270.753906 282.566406 266.628906 285.023438 265.226562 282.304688 C 262.964844 278.117188 260.246094 274.253906 257.066406 270.714844 L 256.890625 270.453125 C 257.59375 272.734375 258.207031 275.015625 258.734375 277.386719 C 258.785156 277.589844 258.8125 277.792969 258.8125 278 C 258.8125 278.207031 258.785156 278.410156 258.730469 278.609375 C 258.675781 278.808594 258.597656 279 258.492188 279.179688 C 258.390625 279.359375 258.265625 279.523438 258.117188 279.667969 C 257.972656 279.816406 257.808594 279.941406 257.628906 280.042969 C 257.449219 280.148438 257.261719 280.226562 257.0625 280.28125 C 256.859375 280.335938 256.65625 280.363281 256.449219 280.363281 C 256.242188 280.363281 256.039062 280.335938 255.839844 280.285156 C 252.417969 279.230469 249.609375 276.160156 247.242188 273.613281 C 239.519531 265.363281 233.027344 255.96875 226.796875 246.578125 C 222.0625 239.464844 217.410156 232.269531 213.199219 224.808594 C 211.636719 224.792969 210.085938 224.644531 208.550781 224.367188 C 207.671875 228.316406 206.796875 232.269531 205.832031 236.128906 C 202.789062 248.945312 199.542969 261.675781 196.09375 274.316406 C 195.300781 277.300781 190.652344 276.070312 191.441406 273.085938 L 192.671875 268.699219 C 196.617188 253.597656 200.566406 238.414062 203.988281 223.050781 L 203.550781 222.875 C 197.582031 220.15625 194.601562 214.183594 194.425781 207.953125 L 189.160156 207.164062 L 161 202.773438 L 143.277344 199.964844 C 141.960938 199.789062 141.257812 198.121094 141.609375 196.980469 C 141.699219 196.683594 141.84375 196.414062 142.035156 196.171875 C 142.230469 195.929688 142.460938 195.734375 142.730469 195.578125 C 143 195.421875 143.285156 195.324219 143.59375 195.277344 C 143.898438 195.230469 144.203125 195.242188 144.503906 195.3125 L 150.996094 196.367188 L 179.160156 200.753906 L 194.863281 203.210938 C 195.214844 201.632812 195.917969 200.050781 196.441406 198.472656 L 196.617188 198.035156 L 196.355469 197.769531 C 194.25 193.644531 192.230469 189.519531 190.214844 185.304688 C 182.667969 169.066406 176.175781 152.210938 170.035156 135.359375 C 169.15625 133.074219 172.402344 131.320312 174.070312 132.988281 C 175.738281 134.65625 178.984375 138.167969 181.441406 140.710938 C 188.019531 147.472656 194.601562 154.320312 200.828125 161.339844 C 207.058594 168.363281 212.148438 173.980469 216.535156 181.179688 C 216.972656 179.601562 217.5 178.109375 217.9375 176.613281 C 220.21875 168.890625 222.585938 161.253906 224.957031 153.527344 C 226.449219 148.699219 227.851562 143.871094 229.34375 139.046875 C 230.21875 136.148438 234.871094 137.378906 233.992188 140.363281 C 233.117188 143.347656 232.851562 143.871094 232.324219 145.714844 C 229.957031 153.351562 227.675781 161.078125 225.308594 168.800781 C 223.816406 173.628906 222.410156 178.457031 220.921875 183.285156 L 220.832031 183.285156 L 223.027344 184.164062 C 224.578125 184.964844 225.933594 186.015625 227.097656 187.316406 C 228.261719 188.617188 229.15625 190.082031 229.78125 191.714844 C 230.253906 192.925781 230.601562 194.171875 230.816406 195.453125 C 231.03125 196.738281 231.113281 198.027344 231.058594 199.328125 C 231.007812 200.625 230.820312 201.90625 230.5 203.167969 C 230.183594 204.429688 229.738281 205.644531 229.167969 206.8125 C 229.519531 207.691406 229.957031 208.480469 230.394531 209.359375 L 235.398438 210.410156 L 261.890625 215.941406 L 278.472656 219.453125 C 278.777344 219.535156 279.054688 219.671875 279.308594 219.859375 C 279.558594 220.050781 279.765625 220.28125 279.929688 220.550781 C 280.09375 220.820312 280.199219 221.109375 280.253906 221.421875 C 280.304688 221.730469 280.296875 222.042969 280.230469 222.347656 C 280.128906 222.648438 279.976562 222.917969 279.773438 223.164062 C 279.574219 223.40625 279.335938 223.605469 279.058594 223.757812 C 278.78125 223.914062 278.488281 224.011719 278.175781 224.054688 C 277.863281 224.101562 277.554688 224.085938 277.246094 224.015625 L 271.191406 222.789062 L 244.695312 217.257812 L 233.117188 215.0625 L 235.046875 218.835938 C 239.433594 227.265625 243.730469 235.78125 247.503906 244.558594 C 251.023438 252.496094 254.003906 260.628906 256.453125 268.960938 C 256.464844 268.652344 256.53125 268.359375 256.65625 268.082031 C 256.78125 267.800781 256.957031 267.554688 257.175781 267.339844 C 257.398438 267.128906 257.652344 266.964844 257.933594 266.851562 C 258.21875 266.734375 258.515625 266.679688 258.820312 266.679688 L 275.667969 266.679688 C 273.121094 263.519531 270.664062 260.269531 268.296875 257.023438 C 268.136719 256.753906 268.03125 256.464844 267.984375 256.15625 C 267.933594 255.847656 267.949219 255.539062 268.023438 255.234375 C 268.097656 254.929688 268.226562 254.652344 268.410156 254.398438 C 268.59375 254.144531 268.820312 253.9375 269.085938 253.773438 C 269.367188 253.625 269.667969 253.53125 269.984375 253.496094 C 270.304688 253.457031 270.617188 253.480469 270.925781 253.5625 C 271.234375 253.644531 271.515625 253.777344 271.773438 253.964844 C 272.03125 254.15625 272.25 254.382812 272.421875 254.652344 C 275.578125 258.867188 278.914062 263.167969 282.421875 267.292969 Z M 222.585938 189.78125 C 221.746094 189.085938 220.808594 188.5625 219.78125 188.203125 C 217.347656 187.191406 214.832031 186.898438 212.234375 187.324219 C 207.9375 188.203125 204.074219 191.097656 202.585938 195.136719 L 202.585938 195.398438 C 202.355469 195.933594 202.210938 196.492188 202.144531 197.066406 C 201.960938 198.28125 201.949219 199.492188 202.113281 200.707031 C 202.273438 201.921875 202.605469 203.089844 203.101562 204.210938 C 203.601562 205.332031 204.246094 206.359375 205.039062 207.292969 C 205.828125 208.230469 206.738281 209.035156 207.761719 209.707031 C 212.058594 212.34375 217.675781 211.726562 221.621094 208.832031 C 225.570312 205.933594 227.238281 198.558594 225.21875 193.207031 C 224.617188 191.851562 223.738281 190.710938 222.585938 189.78125 Z M 198.8125 192.066406 C 199.429688 190.816406 200.183594 189.65625 201.078125 188.589844 C 201.972656 187.519531 202.980469 186.574219 204.105469 185.75 C 205.226562 184.925781 206.429688 184.246094 207.714844 183.710938 C 209 183.175781 210.332031 182.800781 211.707031 182.585938 C 209.78125 179.636719 207.703125 176.800781 205.480469 174.070312 C 197.058594 163.800781 187.757812 154.320312 178.546875 144.75 L 179.597656 147.382812 C 185.300781 162.484375 191.355469 177.667969 198.8125 192.066406 Z M 210.304688 219.890625 L 207.671875 214.976562 C 205.929688 214.242188 204.347656 213.246094 202.933594 211.992188 C 201.382812 210.546875 200.125 208.878906 199.164062 206.988281 C 198.949219 209.410156 199.417969 211.691406 200.566406 213.835938 C 202.671875 217.695312 206.269531 219.363281 210.304688 219.890625 Z M 221.535156 229.546875 C 223.726562 233.234375 226.097656 236.921875 228.464844 240.519531 C 231.625 238.765625 234.871094 237.183594 238.203125 235.691406 C 237.5625 234.289062 236.859375 232.882812 236.097656 231.476562 C 233.027344 225.332031 229.78125 219.277344 226.796875 213.042969 C 226.628906 212.871094 226.511719 212.664062 226.449219 212.429688 L 225.921875 211.375 C 224.808594 212.484375 223.550781 213.390625 222.148438 214.097656 C 219.5 215.433594 216.691406 216.105469 213.726562 216.117188 C 216.183594 220.59375 218.816406 225.070312 221.535156 229.546875 Z M 231.097656 244.558594 C 232.5 246.664062 233.90625 248.769531 235.398438 250.789062 C 235.398438 247.980469 235.484375 245.085938 235.484375 242.273438 Z M 242.238281 260.183594 L 243.820312 262.289062 C 243.820312 258.953125 243.996094 255.707031 244.257812 252.371094 C 244.261719 251.71875 244.496094 251.160156 244.960938 250.703125 C 243.46875 247.101562 241.976562 243.59375 240.308594 240.082031 L 240.308594 240.433594 L 240.046875 257.199219 Z M 251.277344 271.066406 L 252.417969 272.121094 C 251.277344 268.171875 250.046875 264.21875 248.644531 260.269531 C 248.558594 262.816406 248.558594 265.273438 248.558594 267.820312 L 248.558594 268.082031 C 249.433594 269.046875 250.3125 270.101562 251.277344 271.066406 Z M 166.4375 276.246094 C 166.15625 276.097656 165.855469 276.003906 165.539062 275.96875 C 165.222656 275.929688 164.910156 275.953125 164.601562 276.035156 C 164.289062 276.117188 164.007812 276.25 163.75 276.4375 C 163.492188 276.625 163.277344 276.855469 163.105469 277.125 C 162.753906 277.828125 162.226562 278.527344 161.789062 279.230469 L 161 280.285156 C 160.945312 280.332031 160.917969 280.390625 160.910156 280.460938 C 160.734375 280.636719 160.648438 280.8125 160.472656 280.898438 C 159.417969 282.261719 158.246094 283.523438 156.960938 284.671875 C 156.753906 284.902344 156.59375 285.15625 156.480469 285.445312 C 156.367188 285.734375 156.308594 286.03125 156.308594 286.339844 C 156.308594 286.652344 156.367188 286.949219 156.480469 287.238281 C 156.59375 287.523438 156.753906 287.78125 156.960938 288.007812 C 157.1875 288.242188 157.445312 288.421875 157.742188 288.550781 C 158.039062 288.675781 158.351562 288.738281 158.671875 288.738281 C 158.996094 288.738281 159.304688 288.675781 159.601562 288.550781 C 159.902344 288.421875 160.160156 288.242188 160.382812 288.007812 C 163.105469 285.507812 165.417969 282.667969 167.316406 279.496094 C 167.460938 279.21875 167.554688 278.925781 167.589844 278.613281 C 167.625 278.304688 167.601562 278 167.519531 277.695312 C 167.4375 277.394531 167.304688 277.117188 167.117188 276.867188 C 166.929688 276.617188 166.703125 276.410156 166.4375 276.246094 Z M 201.003906 282.917969 C 200.703125 282.835938 200.394531 282.816406 200.085938 282.859375 C 199.777344 282.898438 199.484375 282.996094 199.214844 283.152344 C 198.941406 283.308594 198.710938 283.511719 198.519531 283.761719 C 198.328125 284.007812 198.191406 284.285156 198.109375 284.585938 L 193.371094 296.347656 C 193.289062 296.65625 193.269531 296.96875 193.308594 297.285156 C 193.347656 297.601562 193.445312 297.898438 193.601562 298.179688 C 193.757812 298.457031 193.960938 298.695312 194.207031 298.894531 C 194.457031 299.09375 194.734375 299.242188 195.039062 299.332031 C 195.347656 299.414062 195.660156 299.4375 195.976562 299.394531 C 196.292969 299.355469 196.589844 299.257812 196.867188 299.101562 C 197.144531 298.949219 197.386719 298.746094 197.585938 298.496094 C 197.785156 298.246094 197.929688 297.96875 198.023438 297.664062 C 199.601562 293.714844 201.179688 289.765625 202.671875 285.902344 C 202.78125 285.59375 202.820312 285.277344 202.792969 284.949219 C 202.761719 284.625 202.667969 284.320312 202.511719 284.035156 C 202.351562 283.75 202.140625 283.507812 201.878906 283.3125 C 201.613281 283.121094 201.324219 282.988281 201.003906 282.917969 Z M 234.34375 283.972656 C 234.179688 283.699219 233.972656 283.464844 233.71875 283.273438 C 233.460938 283.085938 233.179688 282.949219 232.871094 282.871094 C 232.5625 282.792969 232.25 282.777344 231.9375 282.824219 C 231.621094 282.871094 231.328125 282.972656 231.054688 283.136719 C 230.78125 283.300781 230.546875 283.507812 230.359375 283.765625 C 230.167969 284.019531 230.035156 284.300781 229.957031 284.609375 C 229.878906 284.917969 229.863281 285.230469 229.90625 285.546875 C 229.953125 285.859375 230.058594 286.15625 230.21875 286.429688 L 231.097656 288.359375 C 231.164062 288.433594 231.195312 288.523438 231.183594 288.625 L 231.359375 288.976562 C 231.449219 289.324219 231.625 289.589844 231.710938 289.941406 C 232.257812 291.289062 232.726562 292.664062 233.117188 294.066406 C 233.207031 294.371094 233.351562 294.648438 233.554688 294.898438 C 233.753906 295.144531 233.992188 295.347656 234.269531 295.503906 C 234.546875 295.660156 234.84375 295.757812 235.160156 295.796875 C 235.476562 295.835938 235.789062 295.816406 236.097656 295.734375 C 236.402344 295.640625 236.679688 295.496094 236.929688 295.296875 C 237.179688 295.097656 237.378906 294.859375 237.535156 294.578125 C 237.691406 294.300781 237.789062 294.003906 237.828125 293.6875 C 237.867188 293.371094 237.847656 293.058594 237.765625 292.75 C 236.867188 289.726562 235.726562 286.800781 234.34375 283.972656 Z M 300.847656 242.449219 C 296.726562 241.648438 292.691406 240.535156 288.738281 239.113281 C 288.4375 239.035156 288.128906 239.015625 287.820312 239.054688 C 287.507812 239.097656 287.21875 239.195312 286.949219 239.351562 C 286.675781 239.507812 286.445312 239.710938 286.253906 239.957031 C 286.0625 240.207031 285.925781 240.480469 285.84375 240.78125 C 285.761719 241.085938 285.742188 241.390625 285.785156 241.703125 C 285.824219 242.011719 285.921875 242.304688 286.078125 242.574219 C 286.234375 242.847656 286.4375 243.078125 286.6875 243.269531 C 286.933594 243.460938 287.207031 243.597656 287.511719 243.679688 C 291.433594 245.117188 295.4375 246.257812 299.53125 247.101562 C 299.835938 247.175781 300.148438 247.1875 300.460938 247.144531 C 300.773438 247.097656 301.066406 247 301.34375 246.84375 C 301.617188 246.691406 301.859375 246.492188 302.058594 246.25 C 302.261719 246.007812 302.414062 245.734375 302.511719 245.433594 C 302.59375 245.128906 302.617188 244.816406 302.578125 244.5 C 302.535156 244.179688 302.4375 243.882812 302.285156 243.605469 C 302.128906 243.328125 301.925781 243.089844 301.675781 242.886719 C 301.429688 242.6875 301.152344 242.542969 300.847656 242.449219 Z M 305.410156 209.445312 L 304.269531 209.621094 L 303.566406 209.621094 L 301.371094 209.796875 L 296.898438 209.796875 C 296.578125 209.808594 296.277344 209.878906 295.984375 210.007812 C 295.695312 210.136719 295.4375 210.316406 295.21875 210.546875 C 294.996094 210.777344 294.828125 211.039062 294.707031 211.332031 C 294.589844 211.628906 294.527344 211.9375 294.527344 212.253906 C 294.539062 212.566406 294.609375 212.863281 294.730469 213.148438 C 294.855469 213.433594 295.027344 213.6875 295.246094 213.90625 C 295.46875 214.125 295.71875 214.296875 296.003906 214.421875 C 296.289062 214.546875 296.585938 214.613281 296.898438 214.625 C 300.167969 214.773438 303.414062 214.566406 306.636719 214.011719 C 307.296875 213.84375 307.796875 213.464844 308.128906 212.867188 C 308.417969 212.277344 308.476562 211.660156 308.304688 211.023438 C 308.203125 210.738281 308.054688 210.476562 307.855469 210.246094 C 307.660156 210.011719 307.429688 209.824219 307.160156 209.675781 C 306.894531 209.53125 306.609375 209.4375 306.304688 209.398438 C 306.003906 209.359375 305.703125 209.375 305.410156 209.445312 Z M 296.371094 192.152344 C 297.042969 191.691406 297.746094 191.28125 298.476562 190.921875 L 299.617188 190.398438 L 300.230469 190.132812 C 301.714844 189.589844 303.238281 189.179688 304.792969 188.90625 C 305.421875 188.738281 305.917969 188.386719 306.285156 187.851562 C 306.566406 187.257812 306.625 186.644531 306.460938 186.007812 C 306.378906 185.707031 306.242188 185.429688 306.050781 185.183594 C 305.859375 184.933594 305.628906 184.734375 305.355469 184.578125 C 305.085938 184.421875 304.796875 184.320312 304.484375 184.28125 C 304.175781 184.238281 303.867188 184.257812 303.566406 184.339844 C 300.09375 184.898438 296.875 186.128906 293.914062 188.027344 C 293.640625 188.179688 293.40625 188.386719 293.214844 188.636719 C 293.019531 188.890625 292.886719 189.171875 292.8125 189.480469 C 292.738281 189.785156 292.726562 190.097656 292.78125 190.410156 C 292.835938 190.722656 292.949219 191.011719 293.125 191.273438 C 293.28125 191.550781 293.484375 191.78125 293.734375 191.976562 C 293.984375 192.167969 294.261719 192.308594 294.566406 192.390625 C 294.871094 192.472656 295.179688 192.492188 295.492188 192.453125 C 295.804688 192.410156 296.097656 192.3125 296.371094 192.152344 Z M 251.011719 136.410156 C 251.582031 136.820312 252.195312 136.90625 252.855469 136.675781 C 253.5 136.53125 253.996094 136.179688 254.347656 135.621094 C 254.953125 134.070312 255.6875 132.578125 256.539062 131.144531 L 257.855469 129.125 C 258.058594 128.753906 258.292969 128.402344 258.558594 128.074219 L 258.910156 127.546875 C 258.996094 127.457031 259.4375 126.84375 258.996094 127.457031 C 259.460938 127 259.695312 126.441406 259.699219 125.789062 C 259.691406 125.113281 259.457031 124.53125 258.996094 124.035156 C 258.519531 123.617188 257.960938 123.382812 257.332031 123.332031 C 256.671875 123.382812 256.085938 123.617188 255.574219 124.035156 C 253.40625 126.863281 251.59375 129.90625 250.136719 133.164062 C 249.847656 133.757812 249.789062 134.371094 249.960938 135.007812 C 250.097656 135.636719 250.449219 136.105469 251.011719 136.410156 Z M 223.640625 129.476562 C 223.953125 129.476562 224.257812 129.417969 224.546875 129.296875 C 224.835938 129.175781 225.09375 129.003906 225.316406 128.78125 C 225.539062 128.558594 225.707031 128.304688 225.828125 128.015625 C 225.949219 127.722656 226.007812 127.421875 226.007812 127.105469 C 225.921875 125.613281 225.921875 124.121094 225.921875 122.628906 C 225.921875 121.136719 226.007812 121.136719 226.097656 120.433594 C 226.082031 120.082031 226.113281 119.730469 226.183594 119.382812 L 226.273438 119.382812 C 226.257812 119.171875 226.289062 118.964844 226.359375 118.769531 C 226.503906 118.09375 226.414062 117.449219 226.097656 116.835938 C 225.761719 116.304688 225.296875 115.957031 224.691406 115.78125 C 224.386719 115.699219 224.074219 115.679688 223.757812 115.71875 C 223.441406 115.757812 223.144531 115.855469 222.863281 116.011719 C 222.585938 116.167969 222.347656 116.371094 222.148438 116.621094 C 221.949219 116.867188 221.800781 117.144531 221.710938 117.449219 C 221.167969 120.679688 221.023438 123.929688 221.273438 127.195312 C 221.28125 127.5 221.351562 127.792969 221.476562 128.074219 C 221.601562 128.355469 221.773438 128.601562 221.996094 128.8125 C 222.214844 129.027344 222.46875 129.191406 222.753906 129.304688 C 223.039062 129.417969 223.332031 129.476562 223.640625 129.476562 Z M 199.25 127.898438 C 199.539062 128.488281 200.007812 128.839844 200.652344 128.949219 C 201.289062 129.113281 201.902344 129.054688 202.496094 128.773438 C 203.058594 128.417969 203.441406 127.917969 203.636719 127.28125 C 203.722656 126.644531 203.636719 126.027344 203.375 125.4375 L 200.128906 118.59375 C 199.769531 118.09375 199.304688 117.742188 198.722656 117.539062 C 198.070312 117.351562 197.457031 117.441406 196.882812 117.800781 C 196.300781 118.105469 195.917969 118.574219 195.742188 119.207031 C 195.65625 119.847656 195.742188 120.460938 196.003906 121.050781 C 197.058594 123.332031 198.109375 125.613281 199.25 127.898438 Z M 130.027344 166.960938 L 141.960938 168.890625 C 143.1875 169.066406 144.59375 168.628906 144.855469 167.222656 C 144.9375 166.914062 144.957031 166.601562 144.917969 166.285156 C 144.878906 165.96875 144.78125 165.671875 144.625 165.394531 C 144.46875 165.113281 144.269531 164.875 144.019531 164.675781 C 143.769531 164.476562 143.492188 164.328125 143.1875 164.238281 L 131.34375 162.394531 C 131.035156 162.3125 130.722656 162.292969 130.40625 162.332031 C 130.089844 162.371094 129.792969 162.46875 129.515625 162.625 C 129.238281 162.78125 129 162.980469 128.796875 163.230469 C 128.597656 163.480469 128.453125 163.757812 128.363281 164.0625 C 128.097656 165.203125 128.710938 166.785156 130.027344 166.960938 Z M 125.992188 201.546875 C 127.332031 201.722656 128.675781 201.8125 130.027344 201.808594 C 131.386719 201.71875 132.730469 201.542969 134.0625 201.28125 C 134.667969 201.109375 135.132812 200.757812 135.46875 200.226562 C 135.828125 199.652344 135.917969 199.039062 135.730469 198.386719 C 135.640625 198.078125 135.492188 197.800781 135.292969 197.554688 C 135.09375 197.304688 134.855469 197.101562 134.578125 196.945312 C 134.296875 196.792969 134 196.695312 133.683594 196.652344 C 133.367188 196.613281 133.054688 196.636719 132.75 196.71875 L 131.871094 196.890625 C 130.140625 197.082031 128.417969 197.054688 126.695312 196.804688 L 127.222656 196.804688 C 126.574219 196.660156 125.960938 196.75 125.378906 197.066406 C 124.789062 197.355469 124.4375 197.824219 124.324219 198.472656 C 124.113281 199.113281 124.171875 199.726562 124.5 200.316406 C 124.816406 200.949219 125.3125 201.359375 125.992188 201.546875 Z M 137.835938 229.546875 C 138.117188 228.953125 138.175781 228.339844 138.011719 227.703125 C 137.84375 227.078125 137.492188 226.578125 136.960938 226.210938 C 136.371094 225.878906 135.757812 225.820312 135.117188 226.035156 L 126.429688 229.636719 C 125.785156 229.746094 125.316406 230.097656 125.027344 230.6875 C 124.664062 231.261719 124.578125 231.878906 124.765625 232.53125 C 124.910156 233.152344 125.261719 233.621094 125.816406 233.9375 C 126.386719 234.34375 127 234.429688 127.660156 234.199219 L 136.34375 230.601562 C 136.953125 230.402344 137.449219 230.054688 137.835938 229.546875 Z M 115.726562 113.851562 C 123.945312 104.75 133.507812 97.40625 144.417969 91.820312 C 147.222656 90.414062 144.769531 86.289062 142.046875 87.691406 C 130.753906 93.464844 120.839844 101.042969 112.304688 110.429688 C 110.289062 112.710938 113.621094 116.132812 115.726562 113.851562 Z M 151.523438 87.691406 L 152.136719 87.867188 C 152.546875 88.054688 152.957031 88.054688 153.367188 87.867188 L 156.171875 86.816406 C 156.46875 86.773438 156.734375 86.65625 156.960938 86.464844 C 157.214844 86.269531 157.417969 86.039062 157.578125 85.761719 C 157.746094 85.496094 157.835938 85.203125 157.839844 84.882812 C 157.925781 84.5625 157.925781 84.242188 157.839844 83.917969 C 157.632812 83.3125 157.25 82.84375 156.699219 82.515625 L 156.171875 82.25 L 154.855469 82.25 L 152.136719 83.304688 C 151.796875 83.3125 151.535156 83.457031 151.347656 83.742188 C 151.050781 83.855469 150.84375 84.058594 150.734375 84.355469 C 150.578125 84.636719 150.460938 84.925781 150.382812 85.234375 C 150.363281 85.5625 150.390625 85.882812 150.46875 86.199219 C 150.636719 86.828125 150.988281 87.324219 151.523438 87.691406 Z M 98.621094 91.820312 L 98.09375 91.46875 L 97.828125 91.292969 L 97.742188 91.292969 L 96.953125 90.589844 C 96.269531 90.011719 95.65625 89.367188 95.109375 88.660156 L 94.671875 88.21875 C 94.582031 88.132812 94.582031 88.132812 94.582031 88.042969 L 93.792969 86.992188 C 93.289062 86.238281 92.851562 85.449219 92.476562 84.621094 C 92.316406 84.347656 92.105469 84.113281 91.851562 83.921875 C 91.597656 83.730469 91.316406 83.597656 91.003906 83.519531 C 90.695312 83.441406 90.386719 83.425781 90.070312 83.46875 C 89.753906 83.515625 89.460938 83.621094 89.1875 83.785156 C 88.914062 83.945312 88.679688 84.15625 88.488281 84.410156 C 88.300781 84.667969 88.164062 84.949219 88.085938 85.257812 C 88.007812 85.566406 87.992188 85.878906 88.039062 86.195312 C 88.085938 86.511719 88.191406 86.804688 88.355469 87.078125 C 90.179688 90.773438 92.8125 93.757812 96.25 96.03125 C 96.523438 96.191406 96.816406 96.289062 97.128906 96.332031 C 97.441406 96.371094 97.75 96.351562 98.054688 96.269531 C 98.359375 96.1875 98.636719 96.050781 98.886719 95.855469 C 99.136719 95.664062 99.339844 95.429688 99.496094 95.15625 C 99.65625 94.875 99.757812 94.574219 99.800781 94.253906 C 99.84375 93.933594 99.824219 93.617188 99.742188 93.308594 C 99.660156 92.996094 99.519531 92.710938 99.328125 92.453125 C 99.132812 92.195312 98.898438 91.984375 98.621094 91.820312 Z M 341.117188 201.195312 C 341.019531 211.453125 339.472656 221.492188 336.464844 231.300781 C 335.589844 234.289062 340.152344 235.515625 341.117188 232.621094 C 344.191406 222.371094 345.773438 211.894531 345.855469 201.195312 C 345.941406 198.035156 341.117188 198.035156 341.117188 201.195312 Z M 337.082031 242.1875 C 336.804688 242.039062 336.511719 241.949219 336.199219 241.914062 C 335.890625 241.878906 335.585938 241.902344 335.285156 241.984375 C 334.980469 242.066406 334.707031 242.199219 334.457031 242.386719 C 334.207031 242.574219 334 242.800781 333.832031 243.066406 C 332.53125 245.070312 331.949219 247.261719 332.078125 249.648438 C 332.089844 250.324219 332.320312 250.910156 332.78125 251.40625 C 333.261719 251.820312 333.816406 252.054688 334.449219 252.105469 C 335.105469 252.054688 335.691406 251.820312 336.203125 251.40625 C 336.640625 250.898438 336.871094 250.316406 336.90625 249.648438 C 336.816406 249.179688 336.816406 248.710938 336.90625 248.246094 C 337 247.605469 337.175781 246.992188 337.429688 246.402344 L 337.957031 245.433594 C 338.117188 245.160156 338.214844 244.867188 338.257812 244.554688 C 338.296875 244.242188 338.277344 243.933594 338.195312 243.628906 C 338.113281 243.324219 337.972656 243.046875 337.78125 242.796875 C 337.589844 242.546875 337.355469 242.34375 337.082031 242.1875 Z M 158.894531 320.398438 C 155.847656 319.566406 152.886719 318.5 150.007812 317.203125 C 147.125 315.90625 144.367188 314.390625 141.722656 312.664062 C 139.078125 310.933594 136.585938 309.011719 134.242188 306.894531 C 131.898438 304.777344 129.734375 302.492188 127.746094 300.035156 C 127.519531 299.847656 127.265625 299.707031 126.988281 299.617188 C 126.707031 299.523438 126.421875 299.484375 126.128906 299.5 C 125.835938 299.515625 125.554688 299.582031 125.285156 299.699219 C 125.015625 299.820312 124.777344 299.984375 124.570312 300.191406 C 124.363281 300.398438 124.199219 300.636719 124.078125 300.90625 C 123.960938 301.175781 123.894531 301.457031 123.878906 301.75 C 123.863281 302.042969 123.902344 302.332031 123.996094 302.609375 C 124.085938 302.890625 124.226562 303.144531 124.414062 303.371094 C 126.53125 305.992188 128.839844 308.433594 131.339844 310.691406 C 133.839844 312.953125 136.503906 315 139.324219 316.84375 C 142.148438 318.683594 145.097656 320.292969 148.171875 321.667969 C 151.246094 323.046875 154.410156 324.171875 157.664062 325.050781 C 160.648438 325.84375 161.875 321.277344 158.894531 320.398438 Z M 169.15625 323.824219 C 166.085938 323.824219 166.085938 328.652344 169.15625 328.652344 C 172.226562 328.652344 172.316406 323.824219 169.15625 323.824219 Z M 169.15625 323.824219 " fill-opacity="1" fill-rule="nonzero"/></svg>