<svg xmlns="http://www.w3.org/2000/svg" xmlns:xlink="http://www.w3.org/1999/xlink" width="500" zoomAndPan="magnify" viewBox="0 0 375 374.999991" height="500" preserveAspectRatio="xMidYMid meet" version="1.0"><path fill="#3533f3" d="M 38.746094 49.726562 C 43.25 34.875 59.769531 26.773438 72.6875 21.148438 C 103.171875 7.726562 145.222656 0 189.300781 0 C 233.605469 0 276.707031 7.648438 307.042969 20.925781 C 317.933594 25.726562 335.277344 32.773438 340.308594 44.925781 C 341.8125 48.523438 342.261719 52.648438 341.0625 57.226562 C 337.304688 71.851562 318.382812 79.050781 306.066406 84.449219 C 275.730469 97.800781 232.929688 105.148438 188.625 105.148438 C 144.324219 105.148438 101.519531 97.949219 71.183594 84.601562 C 57.066406 78.523438 33.113281 68.476562 38.746094 49.726562 Z M 341.886719 263.023438 L 341.886719 328.648438 C 336.855469 336.976562 325.066406 346.425781 307.121094 354.300781 C 276.78125 367.574219 233.832031 375 189.601562 375 C 145.375 375 102.347656 367.726562 72.011719 354.375 C 55.867188 347.25 43.476562 338.851562 38.445312 331.125 L 38.445312 264.148438 C 47.230469 270.601562 56.839844 275.699219 65.25 279.449219 C 97.464844 293.625 142.671875 301.726562 189.527344 301.726562 C 236.160156 301.726562 281.363281 293.625 313.652344 279.449219 C 324.089844 274.875 333.328125 269.476562 340.683594 263.625 C 340.984375 263.398438 341.886719 263.175781 341.886719 263.023438 Z M 266.71875 328.351562 C 266.71875 323.175781 262.515625 318.976562 257.335938 318.976562 C 252.152344 318.976562 247.949219 323.175781 247.949219 328.351562 C 247.949219 333.523438 252.152344 337.726562 257.335938 337.726562 C 262.515625 337.726562 266.71875 333.523438 266.71875 328.351562 Z M 298.035156 322.125 C 298.035156 316.949219 293.828125 312.75 288.648438 312.75 C 283.464844 312.75 279.261719 316.949219 279.261719 322.125 C 279.261719 327.300781 283.464844 331.5 288.648438 331.5 C 293.828125 331.5 298.035156 327.300781 298.035156 322.125 Z M 329.269531 309.601562 C 329.269531 304.425781 325.066406 300.226562 319.886719 300.226562 C 314.703125 300.226562 310.5 304.425781 310.5 309.601562 C 310.5 314.773438 314.703125 318.976562 319.886719 318.976562 C 325.066406 318.976562 329.269531 314.773438 329.269531 309.601562 Z M 341.886719 85.351562 L 341.886719 149.476562 C 336.855469 157.800781 325.066406 166.875 307.121094 174.75 C 276.78125 188.101562 233.832031 195.300781 189.601562 195.300781 C 145.296875 195.300781 102.347656 188.25 72.011719 174.898438 C 55.867188 167.773438 43.476562 159.601562 38.445312 151.949219 L 38.445312 84.824219 C 47.230469 91.648438 57.140625 96.226562 64.800781 99.523438 L 65.550781 99.976562 C 97.316406 113.925781 142.59375 121.949219 189.753906 121.949219 C 236.683594 121.949219 281.964844 113.925781 313.953125 99.824219 L 316.957031 98.625 C 324.242188 95.476562 333.777344 91.425781 341.886719 85.351562 Z M 266.71875 149.476562 C 266.71875 144.300781 262.515625 140.101562 257.335938 140.101562 C 252.152344 140.101562 247.949219 144.300781 247.949219 149.476562 C 247.949219 154.648438 252.152344 158.851562 257.335938 158.851562 C 262.515625 158.851562 266.71875 154.648438 266.71875 149.476562 Z M 298.035156 143.175781 C 298.035156 138 293.828125 133.800781 288.648438 133.800781 C 283.464844 133.800781 279.261719 138 279.261719 143.175781 C 279.261719 148.351562 283.464844 152.550781 288.648438 152.550781 C 293.828125 152.550781 298.035156 148.351562 298.035156 143.175781 Z M 329.269531 130.726562 C 329.269531 125.550781 325.066406 121.351562 319.886719 121.351562 C 314.703125 121.351562 310.5 125.550781 310.5 130.726562 C 310.5 135.898438 314.703125 140.101562 319.886719 140.101562 C 325.066406 140.101562 329.269531 135.898438 329.269531 130.726562 Z M 336.78125 177.449219 C 338.433594 176.550781 340.683594 175.648438 341.960938 174.75 L 341.960938 238.199219 C 336.929688 246.601562 325.140625 256.199219 307.195312 264.074219 C 276.859375 277.425781 233.90625 284.925781 189.675781 284.925781 C 145.449219 284.925781 102.421875 277.425781 72.085938 264.074219 C 55.941406 256.949219 43.550781 248.398438 38.519531 240.675781 L 38.519531 175.199219 C 45.429688 180.449219 54.4375 185.476562 65.328125 190.273438 C 97.316406 204.300781 141.320312 212.023438 189.601562 212.023438 C 237.359375 212.023438 281.4375 204.226562 313.726562 190.050781 C 322.363281 186.226562 330.246094 181.949219 336.78125 177.449219 Z M 266.71875 239.175781 C 266.71875 234 262.515625 229.800781 257.335938 229.800781 C 252.152344 229.800781 247.949219 234 247.949219 239.175781 C 247.949219 244.351562 252.152344 248.550781 257.335938 248.550781 C 262.515625 248.550781 266.71875 244.351562 266.71875 239.175781 Z M 298.035156 232.949219 C 298.035156 227.773438 293.828125 223.574219 288.648438 223.574219 C 283.464844 223.574219 279.261719 227.773438 279.261719 232.949219 C 279.261719 238.125 283.464844 242.324219 288.648438 242.324219 C 293.828125 242.324219 298.035156 238.125 298.035156 232.949219 Z M 329.269531 220.425781 C 329.269531 215.25 325.066406 211.050781 319.886719 211.050781 C 314.703125 211.050781 310.5 215.25 310.5 220.425781 C 310.5 225.601562 314.703125 229.800781 319.886719 229.800781 C 325.066406 229.800781 329.269531 225.601562 329.269531 220.425781 Z M 329.269531 220.425781 " fill-opacity="1" fill-rule="nonzero"/></svg>