<svg xmlns="http://www.w3.org/2000/svg" xmlns:xlink="http://www.w3.org/1999/xlink" width="500" zoomAndPan="magnify" viewBox="0 0 375 374.999991" height="500" preserveAspectRatio="xMidYMid meet" version="1.0"><defs><clipPath id="46f88edc17"><path d="M 35.15625 0 L 339.65625 0 L 339.65625 375 L 35.15625 375 Z M 35.15625 0 " clip-rule="nonzero"/></clipPath></defs><g clip-path="url(#46f88edc17)"><path fill="#3533f3" d="M 339.65625 159.226562 C 339.65625 86.570312 293.394531 22.996094 224.589844 1.609375 L 219.613281 0.144531 L 213.464844 14.5 C 212.292969 17.136719 213.464844 20.359375 216.097656 21.824219 C 203.507812 18.015625 190.042969 15.964844 176.28125 15.964844 C 98.398438 15.964844 35.15625 79.832031 35.15625 158.347656 C 35.15625 211.667969 64.433594 258.25 107.476562 282.566406 C 105.425781 282.859375 103.667969 284.324219 103.082031 286.375 L 96.933594 303.371094 L 101.328125 305.714844 C 120.652344 315.96875 141.4375 321.828125 163.105469 323.585938 L 156.078125 351.417969 L 135.289062 351.417969 C 128.847656 351.417969 123.578125 356.691406 123.578125 363.136719 L 123.578125 374.855469 L 239.523438 374.855469 L 239.523438 363.136719 C 239.523438 356.691406 234.253906 351.417969 227.8125 351.417969 L 207.023438 351.417969 L 199.703125 322.414062 C 279.050781 310.691406 339.65625 242.136719 339.65625 159.226562 Z M 47.746094 175.046875 C 51.550781 182.664062 56.238281 190.867188 56.238281 190.867188 C 70.289062 207.859375 68.828125 199.65625 73.804688 200.828125 C 77.316406 202 72.632812 212.546875 74.390625 216.0625 C 77.023438 221.921875 88.738281 229.539062 91.371094 235.105469 C 99.863281 253.5625 113.917969 269.382812 113.917969 269.382812 C 112.453125 247.703125 125.042969 241.550781 125.042969 241.550781 C 125.042969 241.550781 129.140625 226.023438 126.507812 221.921875 C 123.285156 216.648438 108.0625 217.234375 104.546875 212.253906 C 98.105469 203.757812 85.222656 194.675781 77.609375 196.140625 C 69.707031 197.605469 69.414062 196.433594 67.65625 194.675781 C 51.84375 180.027344 58.285156 171.53125 58.285156 171.53125 C 58.285156 171.53125 67.949219 165.671875 69.414062 162.449219 C 79.953125 134.617188 87.273438 138.132812 91.371094 128.757812 C 93.714844 123.191406 86.101562 111.179688 85.515625 105.027344 C 84.636719 98.582031 90.492188 83.347656 86.101562 78.953125 C 84.34375 77.195312 79.953125 76.609375 75.855469 77.195312 C 82.589844 68.699219 90.199219 61.082031 98.691406 54.636719 C 98.691406 58.445312 102.496094 58.738281 105.425781 58.738281 C 99.863281 60.496094 99.863281 66.941406 102.203125 68.113281 C 108.351562 64.304688 109.230469 69.285156 109.230469 69.285156 C 111.574219 89.207031 108.0625 86.863281 108.0625 86.863281 C 100.742188 88.621094 108.0625 103.855469 108.0625 103.855469 C 112.453125 108.542969 113.917969 102.976562 113.917969 102.976562 C 114.210938 93.601562 122.699219 90.964844 126.507812 87.742188 C 127.675781 86.863281 129.140625 84.519531 130.3125 83.933594 C 132.65625 82.46875 137.046875 81.589844 139.683594 77.78125 C 144.367188 70.75 137.632812 70.457031 137.632812 67.820312 C 137.632812 66.941406 141.4375 66.355469 141.4375 66.355469 C 144.953125 65.476562 145.246094 60.496094 145.246094 60.496094 C 143.195312 50.535156 154.320312 44.96875 153.441406 43.796875 C 145.246094 32.957031 134.117188 41.453125 134.117188 41.453125 C 130.019531 42.332031 118.308594 46.726562 118.308594 46.726562 C 117.136719 44.675781 114.5 44.675781 111.867188 45.554688 C 131.191406 33.835938 153.734375 27.390625 177.746094 27.390625 C 218.734375 27.390625 255.039062 46.726562 278.757812 76.609375 C 273.777344 74.265625 268.507812 71.921875 266.460938 70.457031 C 261.480469 66.941406 252.699219 54.34375 249.183594 56.980469 C 243.328125 61.667969 234.253906 74.558594 227.8125 78.660156 C 208.195312 91.257812 188.578125 75.730469 188.578125 75.730469 C 173.9375 74.851562 169.546875 96.238281 169.546875 96.238281 C 161.054688 95.945312 161.640625 103.855469 163.691406 106.199219 C 168.667969 111.472656 169.546875 106.199219 171.304688 107.078125 C 173.351562 108.25 171.59375 110.59375 175.695312 114.988281 C 178.328125 117.917969 181.550781 106.785156 181.257812 103.5625 C 179.792969 87.449219 188.285156 90.964844 188.285156 90.964844 C 178.914062 103.855469 192.382812 103.855469 192.382812 103.855469 C 187.40625 103.855469 185.941406 115.574219 185.941406 115.574219 L 174.230469 117.917969 C 167.496094 116.746094 147.878906 130.808594 147.878906 130.808594 C 147.878906 130.808594 154.90625 134.324219 151.980469 140.183594 C 150.808594 142.820312 142.609375 140.476562 140.851562 142.820312 C 137.046875 147.800781 138.21875 159.519531 151.980469 154.246094 C 158.421875 151.902344 161.347656 136.960938 173.9375 138.132812 C 184.1875 139.011719 191.210938 155.125 191.210938 155.125 L 194.726562 146.921875 C 196.191406 161.277344 212 156.003906 212 156.003906 C 211.414062 161.570312 207.316406 170.652344 205.558594 171.53125 C 200.582031 174.167969 191.503906 169.773438 191.503906 169.773438 C 191.503906 169.773438 189.164062 168.015625 187.992188 168.015625 C 187.113281 168.015625 184.769531 169.480469 184.769531 169.480469 C 184.769531 169.480469 184.476562 173.582031 183.601562 172.996094 C 174.523438 166.550781 170.132812 170.066406 167.789062 166.257812 C 167.203125 165.085938 170.71875 164.207031 168.375 161.277344 C 165.15625 156.882812 137.046875 168.601562 137.046875 168.601562 C 116.257812 188.230469 125.921875 211.960938 137.046875 214.597656 C 144.367188 216.355469 160.761719 211.375 166.617188 216.0625 C 171.304688 219.871094 174.523438 233.933594 172.472656 239.792969 C 168.667969 251.804688 179.5 264.109375 179.5 264.109375 C 193.847656 271.140625 202.632812 248.875 209.367188 243.015625 C 210.242188 242.429688 212.292969 241.84375 212.585938 240.964844 C 214.050781 237.746094 211.121094 230.421875 212.292969 227.199219 C 214.050781 223.386719 221.371094 219.289062 224.296875 216.359375 C 227.226562 213.722656 233.375 204.933594 231.910156 202.296875 C 231.324219 201.417969 224.003906 205.808594 221.664062 204.640625 C 215.222656 201.710938 199.117188 181.789062 206.4375 175.929688 C 206.730469 175.636719 210.828125 171.242188 212.585938 171.535156 C 219.027344 173.292969 223.125 193.214844 226.347656 194.972656 C 231.617188 197.902344 245.378906 186.476562 245.378906 180.617188 C 245.378906 178.566406 238.9375 175.636719 238.9375 175.636719 C 229.273438 174.171875 232.496094 166.554688 232.496094 166.554688 C 236.59375 172.121094 241.863281 171.535156 241.863281 171.535156 C 246.84375 174.464844 254.160156 173 254.160156 173 L 259.726562 180.617188 L 264.996094 196.730469 C 268.214844 195.558594 268.800781 187.648438 268.800781 187.648438 C 268.800781 187.648438 275.242188 174.757812 279.34375 175.050781 C 283.734375 175.636719 286.367188 190.578125 287.832031 190.285156 C 291.347656 189.40625 289.589844 175.929688 289.589844 175.929688 C 289.589844 175.929688 296.03125 169.484375 296.617188 166.554688 C 298.957031 155.714844 294.566406 153.078125 295.445312 148.683594 C 296.324219 144.289062 301.300781 136.085938 300.714844 131.691406 C 298.082031 115.578125 296.03125 121.730469 295.738281 118.214844 C 295.445312 116.457031 296.324219 112.941406 296.910156 110.011719 C 302.765625 124.953125 306.277344 141.359375 306.277344 158.644531 C 306.277344 230.714844 248.304688 289.308594 176.867188 289.308594 C 110.402344 289.304688 55.945312 239.207031 47.746094 175.046875 Z M 176.28125 312.742188 C 153.441406 312.742188 131.777344 307.761719 111.28125 298.09375 L 113.917969 290.769531 C 114.5 289.304688 114.210938 287.839844 113.625 286.375 C 132.363281 295.75 153.734375 301.023438 176.28125 301.023438 C 254.160156 301.023438 317.40625 237.15625 317.40625 158.640625 C 317.40625 94.773438 275.828125 40.867188 218.734375 22.703125 C 221.078125 22.703125 223.417969 21.53125 224.296875 19.1875 L 226.347656 14.792969 C 287.539062 36.179688 328.238281 93.894531 328.238281 159.519531 C 327.945312 243.894531 260.019531 312.742188 176.28125 312.742188 Z M 176.28125 312.742188 " fill-opacity="1" fill-rule="nonzero"/></g></svg>