<svg xmlns="http://www.w3.org/2000/svg" xmlns:xlink="http://www.w3.org/1999/xlink" width="500" zoomAndPan="magnify" viewBox="0 0 375 374.999991" height="500" preserveAspectRatio="xMidYMid meet" version="1.0"><path fill="#000000" d="M 180 15.679688 L 106 89.679688 L 105.707031 126.371094 L 216.722656 15.386719 L 180 15.679688 " fill-opacity="1" fill-rule="nonzero"/><path fill="#000000" d="M 21.953125 354.136719 C 29.347656 361.535156 41.40625 361.535156 48.804688 354.136719 L 53.695312 349.246094 L 16.710938 337.625 C 15.75 343.449219 17.46875 349.652344 21.953125 354.136719 " fill-opacity="1" fill-rule="nonzero"/><path fill="#000000" d="M 92.109375 257.132812 L 132.964844 269.972656 L 151.925781 251.015625 L 111.066406 238.171875 L 92.109375 257.132812 " fill-opacity="1" fill-rule="nonzero"/><path fill="#000000" d="M 43.007812 306.230469 L 83.867188 319.101562 L 102.824219 300.117188 L 61.964844 287.300781 L 43.007812 306.230469 " fill-opacity="1" fill-rule="nonzero"/><path fill="#000000" d="M 21.953125 327.285156 C 20.816406 328.421875 19.914062 329.703125 19.128906 331.015625 L 59.316406 343.652344 L 78.246094 324.695312 L 37.386719 311.851562 L 21.953125 327.285156 " fill-opacity="1" fill-rule="nonzero"/><path fill="#000000" d="M 116.65625 232.582031 L 157.515625 245.425781 L 161.476562 241.464844 L 134.65625 214.613281 L 116.65625 232.582031 " fill-opacity="1" fill-rule="nonzero"/><path fill="#000000" d="M 336.5 128.03125 L 277.441406 187.09375 C 276.742188 187.792969 275.839844 188.140625 274.964844 188.140625 C 274.0625 188.140625 273.160156 187.792969 272.460938 187.09375 C 271.09375 185.722656 271.09375 183.511719 272.460938 182.113281 L 331.550781 123.050781 L 308.6875 100.222656 L 249.628906 159.28125 C 248.960938 159.980469 248.027344 160.328125 247.152344 160.328125 C 246.25 160.328125 245.347656 159.980469 244.679688 159.28125 C 243.28125 157.910156 243.28125 155.699219 244.679688 154.328125 L 303.738281 95.242188 L 225.253906 16.757812 L 107.105469 134.933594 L 129.90625 157.738281 L 188.996094 98.648438 C 190.367188 97.28125 192.578125 97.28125 193.976562 98.648438 C 195.34375 100.046875 195.34375 102.257812 193.976562 103.628906 L 134.886719 162.71875 L 157.71875 185.546875 L 216.808594 126.460938 C 218.175781 125.089844 220.390625 125.089844 221.757812 126.460938 C 223.15625 127.828125 223.15625 130.070312 221.757812 131.441406 L 162.699219 190.527344 L 241.15625 268.984375 L 359.332031 150.835938 L 336.5 128.03125 " fill-opacity="1" fill-rule="nonzero"/><path fill="#000000" d="M 130.460938 190.761719 C 127.78125 193.441406 127.78125 197.808594 130.460938 200.488281 L 175.601562 245.628906 C 178.28125 248.308594 182.675781 248.308594 185.328125 245.628906 L 196.597656 234.359375 L 141.730469 179.492188 L 130.460938 190.761719 " fill-opacity="1" fill-rule="nonzero"/><path fill="#000000" d="M 67.558594 281.679688 L 108.414062 294.523438 L 127.375 275.566406 L 86.515625 262.722656 L 67.558594 281.679688 " fill-opacity="1" fill-rule="nonzero"/><path fill="#000000" d="M 367.429688 197.578125 C 367.429688 198.507812 367.050781 199.382812 366.410156 200.050781 L 290.371094 276.058594 C 289.730469 276.730469 288.828125 277.078125 287.925781 277.109375 L 241.183594 277.488281 C 241.183594 277.488281 241.183594 277.488281 241.15625 277.488281 C 240.71875 277.488281 240.25 277.371094 239.84375 277.195312 C 239.40625 277.050781 239.027344 276.757812 238.679688 276.4375 L 201.578125 239.335938 L 190.308594 250.609375 C 187.597656 253.316406 184.015625 254.65625 180.464844 254.65625 C 176.910156 254.65625 173.359375 253.316406 170.621094 250.609375 L 166.457031 246.414062 L 53.78125 359.117188 C 48.6875 364.183594 42.046875 366.71875 35.378906 366.71875 C 28.707031 366.71875 22.070312 364.183594 16.972656 359.117188 C 9.777344 351.894531 7.800781 341.527344 10.828125 332.46875 C 10.855469 332.324219 10.828125 332.207031 10.855469 332.089844 C 10.886719 332.003906 10.972656 331.917969 11.003906 331.828125 C 12.285156 328.363281 14.207031 325.101562 16.972656 322.335938 L 129.675781 209.632812 L 125.480469 205.46875 C 120.066406 200.023438 120.066406 191.199219 125.480469 185.78125 L 136.75 174.511719 L 99.648438 137.410156 C 99.328125 137.089844 99.066406 136.683594 98.894531 136.246094 C 98.71875 135.835938 98.632812 135.371094 98.632812 134.90625 L 98.980469 88.164062 C 99.007812 87.261719 99.386719 86.359375 100.027344 85.71875 L 176.039062 9.710938 C 176.707031 9.039062 177.582031 8.660156 178.511719 8.660156 L 225.226562 8.28125 C 225.226562 8.28125 225.253906 8.28125 225.253906 8.28125 C 225.71875 8.28125 226.15625 8.371094 226.59375 8.542969 C 227.03125 8.71875 227.410156 8.980469 227.730469 9.300781 L 366.789062 148.359375 C 367.109375 148.679688 367.371094 149.089844 367.542969 149.496094 C 367.71875 149.933594 367.808594 150.398438 367.808594 150.863281 Z M 374.183594 146.789062 C 373.632812 145.417969 372.816406 144.222656 371.855469 143.292969 L 232.796875 4.234375 C 231.835938 3.273438 230.640625 2.457031 229.300781 1.90625 C 228.019531 1.378906 226.652344 1.117188 225.167969 1.117188 L 178.453125 1.496094 C 175.628906 1.527344 172.980469 2.632812 170.96875 4.613281 L 94.960938 80.652344 C 92.980469 82.601562 91.84375 85.339844 91.816406 88.105469 L 91.46875 134.789062 C 91.4375 136.214844 91.699219 137.585938 92.253906 138.984375 C 92.777344 140.265625 93.535156 141.429688 94.582031 142.476562 L 126.617188 174.539062 L 120.414062 180.714844 C 112.523438 188.636719 112.230469 201.332031 119.570312 209.632812 L 11.90625 317.269531 C 8.585938 320.589844 6.050781 324.605469 4.507812 328.800781 C 4.273438 329.238281 4.101562 329.675781 3.984375 330.082031 C 3.898438 330.316406 3.839844 330.605469 3.808594 330.898438 C 0.109375 342.75 3.199219 355.449219 11.90625 364.183594 C 18.167969 370.445312 26.496094 373.882812 35.378906 373.882812 C 44.261719 373.882812 52.589844 370.445312 58.851562 364.183594 L 166.484375 256.546875 C 170.359375 259.957031 175.25 261.820312 180.464844 261.820312 C 186.085938 261.820312 191.386719 259.636719 195.375 255.675781 L 201.578125 249.472656 L 233.554688 281.449219 C 234.542969 282.4375 235.707031 283.253906 237.105469 283.835938 C 238.386719 284.359375 239.757812 284.652344 241.242188 284.652344 L 287.984375 284.273438 C 290.808594 284.242188 293.488281 283.136719 295.4375 281.128906 L 371.445312 205.148438 C 373.425781 203.167969 374.5625 200.519531 374.59375 197.632812 L 374.972656 150.835938 C 374.972656 149.4375 374.707031 148.070312 374.183594 146.789062 " fill-opacity="1" fill-rule="nonzero"/><path fill="#000000" d="M 286.410156 270.089844 L 360.410156 196.089844 L 360.699219 159.398438 L 249.714844 270.382812 L 286.410156 270.089844 " fill-opacity="1" fill-rule="nonzero"/></svg>