<svg xmlns="http://www.w3.org/2000/svg" xmlns:xlink="http://www.w3.org/1999/xlink" width="500" zoomAndPan="magnify" viewBox="0 0 375 374.999991" height="500" preserveAspectRatio="xMidYMid meet" version="1.0"><defs><clipPath id="b35b1ca271"><path d="M 50.390625 56 L 302 56 L 302 371.449219 L 50.390625 371.449219 Z M 50.390625 56 " clip-rule="nonzero"/></clipPath><clipPath id="4b267a0ebc"><path d="M 289 85.007812 L 324.441406 85.007812 L 324.441406 107 L 289 107 Z M 289 85.007812 " clip-rule="nonzero"/></clipPath></defs><path fill="#f1f333" d="M 123.882812 295.613281 C 123.882812 295.613281 120.570312 274.367188 110.914062 266.394531 C 87.652344 247.214844 58.371094 209.386719 83.664062 141.378906 C 106.78125 79.316406 257.257812 79.066406 274.390625 170.5625 C 283.546875 219.457031 261.316406 242.875 220.5625 280.0625 C 201.503906 297.464844 208.984375 296.539062 201.753906 304.046875 L 123.882812 295.613281 " fill-opacity="1" fill-rule="evenodd"/><g clip-path="url(#b35b1ca271)"><path fill="#3533f3" d="M 111.234375 290.097656 C 111.199219 290.132812 111.128906 290.167969 111.058594 290.238281 C 108.671875 292.160156 107.101562 294.972656 106.78125 298.03125 C 106.425781 301.128906 107.316406 304.191406 109.277344 306.609375 C 110.203125 307.75 111.34375 308.710938 112.589844 309.457031 C 111.199219 309.882812 109.882812 310.558594 108.742188 311.484375 C 106.320312 313.40625 104.789062 316.21875 104.429688 319.3125 C 104.109375 322.375 105 325.433594 106.925781 327.855469 C 108.3125 329.5625 110.132812 330.84375 112.160156 331.554688 C 110.023438 331.804688 107.957031 332.660156 106.25 334.046875 C 103.863281 335.96875 102.292969 338.78125 101.972656 341.839844 C 101.617188 344.902344 102.542969 347.996094 104.46875 350.417969 C 105.785156 352.019531 107.460938 353.265625 109.382812 353.976562 C 109.988281 355.328125 110.738281 356.609375 111.699219 357.746094 C 114.621094 361.449219 118.894531 363.796875 123.5625 364.296875 C 140.695312 366.183594 170.761719 369.457031 187.753906 371.34375 C 194.273438 372.054688 200.328125 369.136719 203.925781 364.226562 C 205.816406 363.867188 207.597656 363.085938 209.128906 361.839844 C 211.515625 359.917969 213.082031 357.105469 213.402344 354.046875 C 213.722656 350.949219 212.832031 347.890625 210.910156 345.46875 C 209.554688 343.761719 207.738281 342.515625 205.707031 341.769531 C 207.847656 341.519531 209.875 340.667969 211.585938 339.3125 C 214.007812 337.355469 215.539062 334.546875 215.863281 331.484375 C 216.21875 328.425781 215.328125 325.328125 213.367188 322.910156 C 212.441406 321.769531 211.300781 320.808594 210.054688 320.097656 C 211.445312 319.667969 212.761719 318.957031 213.902344 318.03125 C 216.324219 316.109375 217.855469 313.300781 218.210938 310.238281 C 218.535156 307.144531 217.644531 304.082031 215.71875 301.664062 C 215.648438 301.589844 215.613281 301.554688 215.578125 301.484375 C 260.535156 286.324219 295.050781 246.074219 300.574219 195.648438 C 308.160156 126.539062 258.429688 64.296875 189.605469 56.789062 C 120.78125 49.246094 58.726562 99.246094 51.175781 168.390625 C 45.617188 218.816406 70.625 265.578125 111.234375 290.097656 Z M 203.855469 352.980469 C 203.785156 353.546875 203.535156 354.011719 203.109375 354.367188 C 202.679688 354.722656 202.148438 354.867188 201.613281 354.792969 C 183.050781 352.765625 131.863281 347.179688 113.335938 345.148438 C 112.804688 345.113281 112.304688 344.828125 111.949219 344.402344 C 111.628906 343.976562 111.449219 343.441406 111.519531 342.90625 C 111.554688 342.339844 111.839844 341.839844 112.269531 341.519531 C 112.695312 341.164062 113.230469 341.023438 113.765625 341.058594 C 132.324219 343.085938 183.515625 348.707031 202.039062 350.738281 C 202.574219 350.773438 203.074219 351.058594 203.429688 351.484375 C 203.75 351.910156 203.925781 352.445312 203.855469 352.980469 Z M 206.3125 330.453125 C 206.277344 330.988281 205.992188 331.484375 205.566406 331.839844 C 205.140625 332.160156 204.605469 332.304688 204.070312 332.269531 C 185.511719 330.238281 134.355469 324.652344 115.796875 322.625 C 115.261719 322.550781 114.761719 322.269531 114.441406 321.839844 C 114.085938 321.414062 113.941406 320.878906 113.976562 320.347656 C 114.050781 319.8125 114.335938 319.3125 114.761719 318.957031 C 115.152344 318.636719 115.722656 318.460938 116.257812 318.53125 C 134.78125 320.558594 185.972656 326.148438 204.496094 328.175781 C 205.066406 328.246094 205.566406 328.496094 205.886719 328.921875 C 206.242188 329.347656 206.386719 329.917969 206.3125 330.453125 Z M 208.664062 309.171875 C 208.59375 309.742188 208.34375 310.238281 207.917969 310.558594 C 207.488281 310.914062 206.921875 311.058594 206.386719 310.988281 C 187.863281 308.992188 136.671875 303.371094 118.144531 301.34375 C 117.578125 301.308594 117.113281 301.023438 116.757812 300.59375 C 116.402344 300.167969 116.257812 299.632812 116.328125 299.101562 C 116.328125 299.066406 116.328125 299.066406 116.328125 299.066406 C 116.367188 298.53125 116.648438 298.03125 117.078125 297.710938 C 117.503906 297.355469 118.039062 297.214844 118.574219 297.285156 C 137.132812 299.277344 188.289062 304.902344 206.847656 306.929688 C 207.382812 306.964844 207.882812 307.25 208.238281 307.675781 C 208.558594 308.105469 208.703125 308.636719 208.664062 309.171875 Z M 122.351562 285.433594 L 206.3125 294.617188 C 206.777344 294.261719 207.277344 294.011719 207.847656 293.871094 C 251.664062 281.128906 285.753906 242.945312 291.027344 194.617188 C 298.042969 130.773438 252.125 73.265625 188.539062 66.328125 C 124.984375 59.351562 67.703125 105.578125 60.6875 169.421875 C 55.34375 218.210938 80.917969 263.300781 121.636719 284.9375 C 121.921875 285.078125 122.136719 285.257812 122.351562 285.433594 " fill-opacity="1" fill-rule="evenodd"/></g><path fill="#3533f3" d="M 177.496094 214.511719 C 173.363281 216.003906 168.660156 216.253906 164.351562 213.835938 C 166.273438 211.484375 167.875 208.675781 169.015625 205.398438 C 170.300781 201.628906 170.300781 196.359375 168.589844 192.269531 C 166.488281 187.285156 162.285156 183.761719 155.621094 184.722656 C 152.203125 185.222656 149.175781 187.75 147.535156 192.019531 C 145.539062 197.285156 145.824219 205.757812 150.277344 213.050781 C 149.671875 213.371094 149.066406 213.65625 148.496094 213.90625 C 148.105469 214.082031 147.714844 214.226562 147.320312 214.402344 C 146.609375 212.410156 145.898438 210.632812 145.148438 209.101562 C 142.867188 204.511719 140.269531 199.351562 136.882812 195.96875 C 133.890625 192.980469 130.328125 191.238281 126.125 191.414062 C 122.421875 191.59375 119.214844 193.800781 117.253906 197.320312 C 114.832031 201.558594 114.335938 207.679688 116.578125 212.410156 C 118.574219 216.644531 123.027344 221.699219 127.941406 224.511719 C 131.96875 226.789062 136.242188 227.570312 139.949219 226.324219 C 140.199219 226.253906 140.554688 226.148438 141.015625 226.078125 C 147.925781 251.308594 152.34375 293.371094 152.34375 293.371094 C 152.628906 296.003906 154.980469 297.925781 157.617188 297.640625 C 160.253906 297.355469 162.175781 295.007812 161.890625 292.375 C 161.890625 292.375 157.261719 249.953125 150.171875 223.585938 C 150.882812 223.300781 151.632812 223.015625 152.378906 222.695312 C 153.875 222.019531 155.371094 221.238281 156.832031 220.347656 C 165.277344 226.789062 174.964844 226.183594 182.875 222.660156 C 183.835938 223.550781 184.796875 224.367188 185.867188 225.152344 C 187.078125 226.003906 188.359375 226.789062 189.644531 227.464844 C 176.996094 253.726562 166.058594 293.621094 166.058594 293.621094 C 165.347656 296.183594 166.878906 298.816406 169.410156 299.527344 C 171.972656 300.203125 174.609375 298.671875 175.320312 296.148438 C 175.320312 296.148438 186.042969 256.039062 198.371094 231.058594 C 202.394531 232.304688 205.636719 232.835938 206.457031 232.980469 C 215.613281 234.4375 226.300781 230.738281 229.148438 222.195312 C 232.425781 212.375 229.789062 203.691406 222.378906 200.988281 C 212.941406 197.535156 205.316406 204.226562 200.292969 209.992188 C 198.226562 212.339844 196.160156 215.398438 194.09375 218.996094 C 193.203125 218.496094 192.3125 217.960938 191.496094 217.359375 L 191.351562 217.25 C 195.769531 213.441406 199.117188 208.746094 200.722656 204.476562 C 202.324219 200.167969 202.253906 196.183594 200.757812 193.300781 C 199.546875 190.953125 197.480469 189.101562 194.203125 188.210938 C 188.183594 186.609375 183.835938 189.136719 180.84375 193.515625 C 178.636719 196.789062 177.316406 201.238281 176.746094 204.972656 C 176.210938 208.53125 176.535156 211.699219 177.496094 214.511719 Z M 138.058594 216.964844 C 137.5625 215.613281 137.027344 214.402344 136.527344 213.335938 C 134.960938 210.167969 133.320312 206.644531 131.183594 203.976562 C 129.902344 202.339844 128.511719 200.917969 126.554688 200.988281 C 126.304688 201.023438 126.199219 201.238281 126.019531 201.414062 C 125.664062 201.839844 125.414062 202.375 125.199219 202.945312 C 124.59375 204.617188 124.488281 206.679688 125.269531 208.316406 C 126.554688 211.09375 129.511719 214.367188 132.714844 216.183594 C 134.140625 217 135.566406 217.675781 136.882812 217.214844 C 137.167969 217.144531 137.5625 217.039062 138.058594 216.964844 Z M 203.074219 222.480469 C 205.53125 223.121094 207.417969 223.40625 207.953125 223.515625 C 210.625 223.941406 213.511719 223.761719 215.96875 222.800781 C 217.820312 222.125 219.425781 220.988281 220.03125 219.136719 C 220.882812 216.609375 221.242188 214.226562 220.8125 212.234375 C 220.5625 211.199219 220.101562 210.347656 219.101562 209.992188 C 217 209.207031 215.148438 209.777344 213.511719 210.738281 C 211.160156 212.160156 209.164062 214.402344 207.527344 216.289062 C 206.03125 217.996094 204.535156 220.0625 203.074219 222.480469 Z M 157.722656 206.679688 C 158.613281 205.398438 159.363281 203.941406 159.933594 202.269531 C 160.574219 200.453125 160.539062 197.925781 159.71875 195.96875 C 159.292969 194.9375 158.542969 194.121094 157.226562 194.191406 C 157.046875 194.476562 156.476562 195.4375 156.300781 196.183594 C 155.695312 198.425781 155.800781 201.378906 156.761719 204.332031 C 157.011719 205.117188 157.332031 205.898438 157.722656 206.679688 Z M 186.152344 209.03125 C 188.753906 206.574219 190.746094 203.726562 191.707031 201.09375 C 192.066406 200.203125 192.277344 199.351562 192.3125 198.566406 C 192.351562 198.070312 192.242188 197.605469 191.707031 197.464844 C 190.355469 197.109375 189.464844 197.925781 188.789062 198.921875 C 187.363281 201.023438 186.613281 203.976562 186.257812 206.398438 C 186.117188 207.320312 186.082031 208.210938 186.152344 209.03125 " fill-opacity="1" fill-rule="evenodd"/><path fill="#3533f3" d="M 194.628906 36.078125 L 197.65625 8.390625 C 197.941406 5.757812 196.054688 3.375 193.417969 3.089844 C 190.78125 2.804688 188.394531 4.691406 188.109375 7.324219 L 185.082031 35.046875 C 184.796875 37.679688 186.6875 40.027344 189.320312 40.3125 C 191.957031 40.632812 194.34375 38.710938 194.628906 36.078125 " fill-opacity="1" fill-rule="evenodd"/><path fill="#3533f3" d="M 261.851562 62.089844 L 280.125 41.453125 C 281.871094 39.457031 281.695312 36.433594 279.699219 34.691406 C 277.738281 32.910156 274.675781 33.125 272.929688 35.082031 L 254.65625 55.722656 C 252.910156 57.714844 253.089844 60.773438 255.082031 62.519531 C 257.078125 64.261719 260.105469 64.085938 261.851562 62.089844 " fill-opacity="1" fill-rule="evenodd"/><g clip-path="url(#4b267a0ebc)"><path fill="#3533f3" d="M 296.871094 106.253906 L 321.734375 94.367188 C 324.121094 93.230469 325.152344 90.347656 324.015625 87.964844 C 322.875 85.578125 319.988281 84.546875 317.601562 85.6875 L 292.703125 97.605469 C 290.316406 98.746094 289.316406 101.59375 290.457031 104.011719 C 291.597656 106.398438 294.484375 107.394531 296.871094 106.253906 " fill-opacity="1" fill-rule="evenodd"/></g><path fill="#3533f3" d="M 133.464844 43.050781 L 122.707031 17.679688 C 121.671875 15.222656 118.859375 14.085938 116.402344 15.117188 C 113.976562 16.148438 112.839844 18.960938 113.871094 21.414062 L 124.628906 46.789062 C 125.628906 49.210938 128.476562 50.347656 130.898438 49.351562 C 133.359375 48.320312 134.496094 45.472656 133.464844 43.050781 " fill-opacity="1" fill-rule="evenodd"/><path fill="#3533f3" d="M 84.660156 72.269531 L 62.964844 55.222656 C 60.898438 53.621094 57.871094 53.976562 56.234375 56.042969 C 54.59375 58.140625 54.949219 61.167969 57.050781 62.769531 L 78.710938 79.8125 C 80.8125 81.449219 83.839844 81.09375 85.480469 78.996094 C 87.117188 76.929688 86.726562 73.90625 84.660156 72.269531 " fill-opacity="1" fill-rule="evenodd"/></svg>