<svg xmlns="http://www.w3.org/2000/svg" xmlns:xlink="http://www.w3.org/1999/xlink" viewBox="0 0 638.99 90.66"><defs><style>.cls-1{fill:url(#linear-gradient);}.cls-2{fill:url(#linear-gradient-2);}.cls-3{fill:url(#linear-gradient-3);}.cls-4{fill:url(#linear-gradient-4);}.cls-5{fill:url(#linear-gradient-5);}.cls-6{fill:url(#linear-gradient-6);}.cls-7{fill:url(#linear-gradient-7);}.cls-8{fill:url(#linear-gradient-8);}.cls-9{fill:url(#linear-gradient-9);}.cls-10{fill:url(#linear-gradient-10);}.cls-11{fill:url(#linear-gradient-11);}.cls-12{fill:url(#linear-gradient-12);}.cls-13{fill:url(#linear-gradient-13);}.cls-14{fill:url(#linear-gradient-14);}.cls-15{fill:#fff;}</style><linearGradient id="linear-gradient" x1="38.14" y1="5.87" x2="81.03" y2="89.54" gradientUnits="userSpaceOnUse"><stop offset="0" stop-color="#ffc922"/><stop offset="0.45" stop-color="#ffbf19"/><stop offset="1" stop-color="#fd930d"/></linearGradient><linearGradient id="linear-gradient-2" x1="-2.72" y1="35.66" x2="26.13" y2="-2.58" gradientUnits="userSpaceOnUse"><stop offset="0" stop-color="#044081"/><stop offset="0.51" stop-color="#0480b7"/><stop offset="1" stop-color="#0bd0ed"/></linearGradient><linearGradient id="linear-gradient-3" x1="1.91" y1="51.02" x2="25.74" y2="97.5" gradientUnits="userSpaceOnUse"><stop offset="0" stop-color="#fa1291"/><stop offset="0.6" stop-color="#fc5e44"/><stop offset="1" stop-color="#fd9914"/></linearGradient><linearGradient id="linear-gradient-4" x1="18.63" y1="72.09" x2="36.58" y2="79.19" gradientUnits="userSpaceOnUse"><stop offset="0" stop-color="#ff2662"/><stop offset="1" stop-color="#fc7339"/></linearGradient><linearGradient id="linear-gradient-5" x1="40.43" y1="72.87" x2="61.99" y2="78.5" gradientUnits="userSpaceOnUse"><stop offset="0" stop-color="#fe7f2d"/><stop offset="1" stop-color="#ffa60e"/></linearGradient><linearGradient id="linear-gradient-6" x1="13.29" y1="63.54" x2="16.65" y2="71.71" gradientUnits="userSpaceOnUse"><stop offset="0" stop-color="#e6302b"/><stop offset="1" stop-color="#fa4e38"/></linearGradient><linearGradient id="linear-gradient-7" x1="19.24" y1="14.54" x2="66.39" y2="70.87" gradientUnits="userSpaceOnUse"><stop offset="0" stop-color="#183777"/><stop offset="0.44" stop-color="#fa0b96"/><stop offset="1" stop-color="#f9682e"/></linearGradient><linearGradient id="linear-gradient-8" x1="51.26" y1="53.2" x2="51.26" y2="65.67" gradientUnits="userSpaceOnUse"><stop offset="0" stop-color="#9c3e4f"/><stop offset="1" stop-color="#f56b58"/></linearGradient><linearGradient id="linear-gradient-9" x1="45.84" y1="27.61" x2="53.44" y2="43.75" gradientUnits="userSpaceOnUse"><stop offset="0" stop-color="#38356c"/><stop offset="1" stop-color="#6d3c7c"/></linearGradient><linearGradient id="linear-gradient-10" x1="22.2" y1="24.64" x2="37.49" y2="35.54" gradientUnits="userSpaceOnUse"><stop offset="0" stop-color="#322671"/><stop offset="1" stop-color="#4b317e"/></linearGradient><linearGradient id="linear-gradient-11" x1="24.81" y1="37.97" x2="24.81" y2="66.09" gradientUnits="userSpaceOnUse"><stop offset="0" stop-color="#5e2a79"/><stop offset="0.08" stop-color="#672c78"/><stop offset="0.2" stop-color="#7e3274"/><stop offset="0.35" stop-color="#a43a6f"/><stop offset="0.49" stop-color="#cc4469"/><stop offset="0.67" stop-color="#db5e72"/><stop offset="1" stop-color="#fb9785"/></linearGradient><linearGradient id="linear-gradient-12" x1="26.1" y1="67.4" x2="50.47" y2="67.4" gradientUnits="userSpaceOnUse"><stop offset="0" stop-color="#fe9d8a"/><stop offset="0.11" stop-color="#fea693"/><stop offset="0.28" stop-color="#febdaa"/><stop offset="0.34" stop-color="#fec5b2"/><stop offset="0.6" stop-color="#fdb098"/><stop offset="1" stop-color="#fb8c6a"/></linearGradient><linearGradient id="linear-gradient-13" x1="40.48" y1="49.04" x2="37.11" y2="36.91" gradientUnits="userSpaceOnUse"><stop offset="0" stop-color="#056bc5"/><stop offset="0.52" stop-color="#084e93"/><stop offset="1" stop-color="#0a3569"/></linearGradient><linearGradient id="linear-gradient-14" x1="32.35" y1="68.16" x2="48.73" y2="50.19" gradientUnits="userSpaceOnUse"><stop offset="0" stop-color="#faa131"/><stop offset="0.48" stop-color="#e5e7e0"/><stop offset="0.58" stop-color="#bdcfd5"/><stop offset="0.87" stop-color="#5491b7"/><stop offset="1" stop-color="#2a78ab"/></linearGradient></defs><g id="Layer_2" data-name="Layer 2"><g id="Layer_1-2" data-name="Layer 1"><polygon class="cls-1" points="38.67 0 78.07 0 78.07 90.66 38.67 90.66 38.67 79.35 64.94 79.35 64.94 12.77 38.67 12.77 38.67 0"/><polygon class="cls-2" points="0 0 38.67 0 38.67 12.77 11.49 12.77 11.49 48.88 0 48.88 0 0"/><polygon class="cls-3" points="11.49 48.88 11.49 79.35 38.67 79.35 38.67 90.66 0 90.66 0 48.88 11.49 48.88"/><polygon class="cls-4" points="11.31 79.35 20.69 69.86 38.67 69.86 38.67 79.35 11.31 79.35"/><polygon class="cls-5" points="65.12 79.35 38.67 79.35 38.67 69.86 55.46 69.86 65.12 79.35"/><polygon class="cls-6" points="20.8 69.87 20.8 61.65 11.49 61.65 11.49 79.29 20.8 69.87"/><polygon class="cls-7" points="20.8 61.65 11.49 61.65 11.49 12.77 64.94 12.77 64.94 79.35 55.27 69.93 55.27 23.35 20.8 23.35 20.8 61.65"/><polygon class="cls-8" points="55.27 69.86 47.24 65.05 47.24 50.71 55.27 50.71 55.27 69.86"/><polygon class="cls-9" points="47.24 50.71 47.24 36.66 38.67 36.66 38.67 23.35 55.27 23.35 55.27 50.71 47.24 50.71"/><rect class="cls-10" x="20.79" y="23.35" width="17.88" height="13.32"/><polygon class="cls-11" points="20.8 69.95 28.82 65.02 28.82 36.66 20.8 36.66 20.8 69.95"/><polygon class="cls-12" points="28.94 64.94 47.13 64.94 55.05 69.86 21.02 69.81 28.94 64.94"/><polygon class="cls-13" points="47.24 50.71 38.67 50.71 38.67 43.78 28.82 43.78 28.82 36.66 47.24 36.66 47.24 50.71"/><polygon class="cls-14" points="38.67 50.71 38.67 58.92 28.82 58.92 28.82 64.94 47.24 64.94 47.24 50.71 38.67 50.71"/><path class="cls-15" d="M115.42,23C130,23,139.29,34,139.29,50.06S130,77.15,115.42,77.15,91.55,66,91.55,50.06,100.82,23,115.42,23Zm0,13.11c-5.65,0-8.72,5.81-8.72,14s3.07,14,8.72,14,8.8-5.89,8.8-14S121.08,36.08,115.42,36.08Z"/><path class="cls-15" d="M157.36,90.66H144.09V38.28h13.27v4.08a10.63,10.63,0,0,1,9.18-5c8.56,0,14.38,7,14.38,19.86s-5.82,20-14.38,20a10.54,10.54,0,0,1-9.18-5.1ZM161.83,49a5.34,5.34,0,0,0-4.47,2.59V62.78a5.51,5.51,0,0,0,4.47,2.67c3.46,0,5.58-3.14,5.58-8.25S165.29,49,161.83,49Z"/><path class="cls-15" d="M202,37.34c10.92,0,17.59,8,17.59,20.49v3.61H196.7c.47,2.75,2.75,5.34,7.46,5.34A11.8,11.8,0,0,0,211.62,64l5.66,7.93c-3.62,3.53-9.58,5.26-14.69,5.26-11.31,0-19.08-7.77-19.08-20C183.51,46.21,190.58,37.34,202,37.34Zm-5.42,15.39h10.45c-.24-2.12-1.26-5-5.26-5C198,47.7,196.86,50.53,196.62,52.73Z"/><path class="cls-15" d="M245.94,76.21V53.28c0-3-1.41-4.24-3.85-4.24s-4,1.8-4.87,3.3V76.21H224V38.28h13.27v4.4a14.16,14.16,0,0,1,11.23-5.34c7.62,0,10.76,4.55,10.76,10.44V76.21Z"/><path class="cls-15" d="M266.36,76.21V23.83h33.06V36.47H281.2v6.91h17.67V56H281.2V76.21Z"/><path class="cls-15" d="M302.88,57.2c0-10.6,6.51-19.86,18.84-19.86s18.93,9.26,18.93,19.86-6.6,20-18.93,20S302.88,67.81,302.88,57.2Zm24.18,0c0-4.79-1.73-8.16-5.34-8.16s-5.26,3.37-5.26,8.16,1.65,8.25,5.26,8.25S327.06,62.07,327.06,57.2Z"/><path class="cls-15" d="M345.28,76.21V38.28h13.27v4.48a13.32,13.32,0,0,1,9.9-5.42V50a11,11,0,0,0-2.59-.31c-2.52,0-5.81,1-7.31,3V76.21Z"/><path class="cls-15" d="M373.16,76.21V23.83h26c10.53,0,14.69,7,14.69,13.35,0,6.52-3.69,10.84-8.72,12,5.5.87,9.58,6.13,9.58,12.8,0,7.39-4.32,14.22-14.6,14.22ZM388,43.62h7.38c2.05,0,3.38-1.65,3.38-3.93,0-2.12-1.33-3.77-3.38-3.77H388Zm0,20.49h7.78c2.35,0,3.84-1.72,3.84-4.16s-1.49-4.24-3.84-4.24H388Z"/><path class="cls-15" d="M441.87,76.21V71.89a14.21,14.21,0,0,1-11.22,5.26c-7.62,0-10.76-4.48-10.76-10.37V38.28h13.27v23c0,2.9,1.33,4.16,3.85,4.16s3.92-1.73,4.86-3.3V38.28h13.27V76.21Z"/><path class="cls-15" d="M461,26.74a7.5,7.5,0,1,1,7.46,7.53A7.47,7.47,0,0,1,461,26.74Zm.86,49.47V38.28h13.27V76.21Z"/><path class="cls-15" d="M481.77,76.21V23.83H495V76.21Z"/><path class="cls-15" d="M523.31,76.21V72.05a10.82,10.82,0,0,1-9.19,5.1c-8.48,0-14.45-7.07-14.45-20,0-12.48,5.89-19.86,14.45-19.86a10.65,10.65,0,0,1,9.19,5V23.83H536.5V76.21Zm0-24.58A5.8,5.8,0,0,0,518.68,49c-3.38,0-5.5,3.14-5.5,8.16s2.12,8.25,5.5,8.25a5.78,5.78,0,0,0,4.63-2.75Z"/><path class="cls-15" d="M559.75,37.34c10.91,0,17.59,8,17.59,20.49v3.61H554.41c.47,2.75,2.75,5.34,7.46,5.34A11.82,11.82,0,0,0,569.33,64L575,71.89c-3.61,3.53-9.58,5.26-14.68,5.26-11.31,0-19.08-7.77-19.08-20C541.22,46.21,548.28,37.34,559.75,37.34Zm-5.42,15.39h10.44c-.23-2.12-1.25-5-5.26-5C555.67,47.7,554.57,50.53,554.33,52.73Z"/><path class="cls-15" d="M581.66,76.21V38.28h13.27v4.48a13.32,13.32,0,0,1,9.9-5.42V50a11,11,0,0,0-2.6-.31c-2.51,0-5.81,1-7.3,3V76.21Z"/><path class="cls-15" d="M611.5,62.7a19.66,19.66,0,0,0,11,4.32c2.74,0,3.84-.86,3.84-2.12s-1.72-1.81-4.79-2.43c-5.49-1.18-13.74-2.83-13.74-12.65,0-6.51,5.26-12.48,15.55-12.48a25.1,25.1,0,0,1,14.76,4.79l-4.94,8.71a15.6,15.6,0,0,0-9.66-3.61c-1.89,0-3.3.71-3.3,1.81s1.49,1.65,4.55,2.35c5.58,1.26,14.22,3.07,14.22,13,0,7.46-6.29,12.8-16.26,12.8-6.83,0-13.11-2.43-16.41-5.5Z"/></g></g></svg>