<svg xmlns="http://www.w3.org/2000/svg" xmlns:xlink="http://www.w3.org/1999/xlink" width="500" zoomAndPan="magnify" viewBox="0 0 375 374.999991" height="500" preserveAspectRatio="xMidYMid meet" version="1.0"><path fill="#3533f3" d="M 238.832031 98.304688 C 254.628906 97.867188 267.789062 110.300781 268.261719 126.09375 C 268.261719 126.375 268.261719 126.628906 268.261719 126.910156 C 268.101562 142.703125 255.132812 155.386719 239.335938 155.199219 C 223.789062 155.042969 211.195312 142.484375 211.035156 126.910156 C 211.035156 111.429688 223.316406 98.777344 238.800781 98.304688 Z M 242.914062 88.699219 C 229.0625 88.195312 215.308594 90.988281 202.777344 96.828125 C 188.078125 103.707031 175.074219 113.785156 164.710938 126.28125 C 164.269531 126.816406 164.269531 127.570312 164.710938 128.101562 C 175.074219 140.601562 188.078125 150.648438 202.777344 157.523438 C 226.175781 168.449219 253.214844 168.449219 276.613281 157.523438 C 291.40625 150.679688 304.472656 140.632812 314.898438 128.101562 C 315.339844 127.570312 315.339844 126.816406 314.898438 126.28125 C 304.472656 113.753906 291.40625 103.707031 276.613281 96.828125 C 266.0625 91.898438 254.597656 89.136719 242.945312 88.699219 L 242.914062 88.699219 " fill-opacity="1" fill-rule="nonzero"/><path fill="#3533f3" d="M 239.804688 25.742188 C 294.109375 25.742188 338.140625 69.765625 338.109375 124.050781 C 338.109375 124.996094 338.109375 125.96875 338.078125 126.910156 C 339.523438 181.199219 296.714844 226.351562 242.414062 227.824219 C 188.140625 229.269531 142.945312 186.472656 141.5 132.183594 C 141.4375 130.425781 141.4375 128.667969 141.5 126.910156 C 139.898438 72.652344 182.613281 27.375 236.882812 25.773438 C 237.859375 25.742188 238.832031 25.742188 239.804688 25.742188 Z M 233.996094 9.164062 C 168.949219 12.304688 118.761719 67.535156 121.871094 132.5625 C 122.875 153.441406 129.410156 173.695312 140.839844 191.214844 C 141.691406 192.503906 141.5 194.167969 140.433594 195.265625 L 109.371094 226.414062 L 105.761719 222.863281 C 101.929688 219.066406 95.773438 219.066406 91.941406 222.863281 L 14.492188 300.199219 C 0.199219 314.550781 0.199219 337.753906 14.554688 352.070312 C 28.875 366.359375 52.117188 366.328125 66.40625 352.007812 L 143.824219 274.640625 C 147.65625 270.84375 147.65625 264.65625 143.824219 260.824219 L 140.214844 257.277344 L 171.273438 226.097656 C 172.34375 225.03125 174.039062 224.84375 175.328125 225.691406 C 229.878906 261.203125 302.933594 245.785156 338.457031 191.214844 C 373.976562 136.675781 358.554688 63.640625 304 28.128906 C 283.242188 14.628906 258.773438 8.003906 234.027344 9.164062 L 233.996094 9.164062 " fill-opacity="1" fill-rule="nonzero"/><path fill="#3533f3" d="M 256.578125 118.085938 C 261.445312 127.414062 257.832031 138.902344 248.503906 143.769531 C 239.207031 148.636719 227.714844 145.027344 222.84375 135.703125 C 217.976562 126.40625 221.558594 114.914062 230.886719 110.046875 C 234.84375 107.945312 239.460938 107.347656 243.824219 108.320312 C 240.214844 111.117188 239.554688 116.359375 242.316406 119.96875 C 245.175781 123.613281 250.359375 124.273438 254 121.445312 C 255.132812 120.566406 256.011719 119.40625 256.578125 118.085938 " fill-opacity="1" fill-rule="nonzero"/><path fill="#3533f3" d="M 242.097656 73.6875 L 242.097656 60.816406 C 241.878906 59.464844 240.652344 58.554688 239.269531 58.742188 C 238.203125 58.898438 237.355469 59.746094 237.199219 60.816406 L 237.199219 73.6875 C 237.417969 75.039062 238.675781 75.980469 240.023438 75.761719 C 241.09375 75.605469 241.941406 74.757812 242.097656 73.6875 " fill-opacity="1" fill-rule="nonzero"/><path fill="#3533f3" d="M 281.453125 84.519531 L 291.25 76.292969 C 292.285156 75.382812 292.445312 73.8125 291.53125 72.777344 C 290.652344 71.742188 289.082031 71.585938 288.046875 72.464844 L 278.246094 80.722656 C 277.210938 81.601562 277.054688 83.171875 277.933594 84.207031 C 278.84375 85.273438 280.414062 85.402344 281.453125 84.519531 " fill-opacity="1" fill-rule="nonzero"/><path fill="#3533f3" d="M 201.269531 80.722656 L 191.28125 72.464844 C 190.246094 71.585938 188.644531 71.742188 187.765625 72.777344 C 186.882812 73.8125 187.011719 75.382812 188.046875 76.292969 L 198.066406 84.519531 C 199.101562 85.402344 200.671875 85.273438 201.550781 84.207031 C 202.460938 83.171875 202.304688 81.601562 201.269531 80.722656 " fill-opacity="1" fill-rule="nonzero"/></svg>