<svg xmlns="http://www.w3.org/2000/svg" xmlns:xlink="http://www.w3.org/1999/xlink" width="500" zoomAndPan="magnify" viewBox="0 0 375 374.999991" height="500" preserveAspectRatio="xMidYMid meet" version="1.0"><defs><clipPath id="2d0c28d840"><path d="M 35.136719 21.195312 L 339.609375 21.195312 L 339.609375 353.734375 L 35.136719 353.734375 Z M 35.136719 21.195312 " clip-rule="nonzero"/></clipPath></defs><g clip-path="url(#2d0c28d840)"><path fill="#ffffff" d="M 223.628906 296.664062 C 223.6875 297.328125 223.742188 297.992188 223.972656 298.546875 C 224.082031 297.78125 224.699219 297.929688 224.808594 297.164062 C 224.023438 297.121094 224.390625 296.195312 223.628906 296.664062 Z M 211.9375 272.875 C 211.878906 271.921875 211.816406 270.972656 211.230469 270.398438 C 210.660156 270.984375 211.691406 272.09375 211.9375 272.875 Z M 182.179688 263.449219 C 181.644531 263.898438 181.6875 265.207031 181.132812 265.726562 C 182.476562 265.539062 185.664062 264.859375 185.179688 263.878906 C 184.449219 264.210938 183.238281 263.558594 182.179688 263.449219 Z M 173.3125 261.039062 C 171.503906 263.78125 169.886719 266.925781 167.769531 269.160156 C 169.050781 269.828125 170.398438 271.738281 173.542969 271.84375 C 173.6875 267.910156 175.613281 264.976562 177.136719 262.242188 C 175.851562 261.863281 174.171875 261.675781 173.3125 261.039062 Z M 156.632812 264.480469 C 159.175781 265.882812 161.640625 267.335938 164.628906 268.410156 C 164.691406 264.53125 166.734375 261.703125 168.15625 259.085938 C 165.390625 258.277344 163.644531 256.847656 161.285156 255.851562 C 159.785156 258.8125 158.339844 261.855469 156.632812 264.480469 Z M 147.289062 257.410156 C 148.800781 259.214844 150.894531 260.726562 153.085938 262.117188 C 154.132812 258.328125 155.929688 255.941406 157.742188 253.488281 C 155.742188 252.507812 154.585938 251.003906 152.671875 249.96875 C 151.289062 253.03125 148.910156 254.554688 147.289062 257.410156 Z M 208.476562 263.828125 C 208.472656 263.242188 209.175781 262.117188 208.660156 261.847656 C 207.953125 262.398438 207.992188 263.128906 208.476562 263.828125 Z M 138.578125 248.90625 C 140.878906 251.042969 142.773438 253.375 145.261719 255.335938 C 146.65625 252.5 147.902344 249.40625 149.71875 247.246094 C 148.117188 245.777344 147.015625 244.074219 145.164062 242.761719 C 143.371094 245.4375 140.957031 247.09375 138.578125 248.90625 Z M 130.777344 237.804688 C 132.59375 240.765625 133.917969 243.96875 136.648438 246.425781 C 138.351562 243.511719 140.644531 241.464844 142.710938 239.144531 C 140.597656 237.128906 140.007812 234.171875 137.980469 232.097656 C 136.15625 234.90625 133.378906 236.265625 130.777344 237.804688 Z M 233.714844 283.421875 C 231.5 286.355469 228.84375 289.328125 227.605469 293 C 230.640625 290.839844 232.394531 287.433594 234.761719 284.464844 C 241.664062 275.800781 249.480469 267.210938 255.753906 258.757812 C 248.203125 266.546875 240.476562 274.726562 233.714844 283.421875 Z M 232.148438 296.609375 C 231.273438 297.265625 233.21875 297.875 232.242188 299.230469 C 231.453125 300.125 229.789062 300.15625 228.808594 300.933594 C 226.332031 302.867188 223.980469 307.570312 221.722656 311.285156 C 218.34375 316.679688 214.496094 321.3125 213.976562 328.621094 C 219.792969 325.105469 224.40625 319.359375 228.773438 313.765625 C 233.21875 308.121094 237.683594 302.117188 242.039062 295.945312 C 249.882812 284.546875 259.878906 269.554688 265.550781 255.183594 C 265.582031 255.050781 265.617188 254.914062 265.390625 254.929688 C 254.226562 268.78125 242.886719 282.152344 232.148438 296.609375 Z M 129.59375 235.214844 C 131.675781 232.539062 134.152344 230.609375 136.757812 228.777344 C 136.261719 226.925781 136 224.992188 134.929688 223.433594 C 131.175781 225.566406 125.882812 230.21875 129.59375 235.214844 Z M 133.007812 197.367188 C 133.390625 196.375 134.980469 195.457031 134.714844 194.460938 C 133.710938 194.433594 132.851562 196.53125 133.007812 197.367188 Z M 251.628906 224.730469 C 242.046875 237.082031 232.445312 247.699219 222.136719 259.15625 C 220.574219 260.875 216.5625 264.386719 216.1875 265.957031 C 215.910156 267.117188 217.101562 269.347656 217.527344 270.894531 C 219.101562 276.390625 220.460938 281.261719 223.308594 285.332031 C 233.355469 271.941406 246.109375 258.394531 258.113281 246.769531 C 259.8125 245.085938 262.855469 243.214844 263.453125 241.625 C 264.246094 239.507812 263.816406 235.582031 263.910156 233.078125 C 264.296875 224.515625 264.171875 215.683594 262.601562 208.671875 C 262.582031 208.449219 262.464844 208.347656 262.191406 208.285156 C 260.027344 214.621094 255.621094 219.484375 251.628906 224.730469 Z M 72.253906 188.242188 C 78.800781 184.6875 84.539062 178.773438 90.316406 173.59375 C 107.585938 158.03125 125.53125 139.960938 141.921875 124.765625 C 141.71875 124.714844 141.582031 124.679688 141.445312 124.652344 C 141.664062 124.339844 140.421875 124.402344 140.421875 124.402344 C 133.128906 125.976562 124.824219 132.070312 118.289062 136.785156 C 103.9375 147.054688 91.261719 157.875 78.316406 169.207031 C 75.128906 171.980469 71.84375 174.875 69.023438 178.238281 C 66.097656 181.722656 62.222656 185.269531 61.734375 190.34375 C 65.769531 190.949219 69.617188 189.632812 72.253906 188.242188 Z M 125.71875 201.035156 C 125.585938 201.003906 125.460938 200.902344 125.582031 200.710938 C 125.546875 192.410156 132.550781 185.714844 137.375 180.015625 C 142.199219 174.316406 146.28125 168.078125 150.207031 162.816406 C 154.566406 156.933594 158.65625 150.984375 162.816406 145.34375 C 167.160156 139.527344 171.574219 134.019531 175.359375 128.144531 C 171.316406 128.476562 166.597656 127.707031 162.601562 128.125 C 153.933594 138.457031 144.496094 148.390625 135.367188 158.542969 C 128.488281 166.203125 121.976562 174.457031 115.023438 181.523438 C 112.804688 183.878906 110.503906 186.863281 107.144531 187.644531 C 108.222656 184.65625 110.511719 182.320312 112.390625 179.882812 C 125.671875 161.996094 138.699219 143.683594 152.351562 126.96875 C 150.058594 127.210938 147.753906 127.527344 146.082031 128.785156 C 147.050781 128.949219 147.515625 129.417969 147.21875 130.359375 C 131.148438 150.25 113.660156 167.921875 95.980469 185.191406 C 102.429688 188.96875 109.457031 192.453125 116.46875 196.007812 C 119.335938 188.828125 124.910156 183.597656 129.667969 178.171875 C 139.230469 167.113281 148.332031 155.875 157.742188 145.140625 C 162.46875 139.851562 166.933594 134.136719 172.542969 130.285156 C 163.964844 141.433594 155.140625 153.320312 146.160156 164.664062 C 138.070312 174.988281 130.003906 187.628906 120.789062 196.03125 C 120.351562 196.355469 119.09375 196.492188 119.445312 197.441406 C 121.324219 198.609375 124.082031 200.351562 125.71875 201.035156 Z M 283.003906 63.214844 C 283.039062 63.082031 283.070312 62.945312 282.851562 62.960938 C 282.785156 63.234375 282.324219 63.054688 282.257812 63.324219 C 270.289062 68.757812 258.429688 74.652344 246.621094 80.628906 C 235.132812 86.464844 222.90625 92.988281 213.785156 102.492188 C 206.886719 109.644531 201.210938 118.601562 194.679688 126.636719 C 175.230469 150.40625 156.308594 175.308594 138.289062 200.941406 C 141.246094 202.726562 139.253906 207.15625 139.085938 210.578125 C 138.9375 212.707031 139.128906 214.917969 139.316406 216.835938 C 142.160156 238.148438 162.53125 257.882812 192.476562 258.984375 C 196.117188 259.136719 201.851562 259.570312 204.730469 258.09375 C 206.539062 257.15625 208.414062 254.429688 210.449219 252.25 C 216.390625 246.09375 221.722656 239.144531 226.949219 232.675781 C 241.421875 214.644531 255.933594 197.050781 269.933594 179.1875 C 277.019531 170.0625 285.105469 160.960938 288.921875 148.890625 C 285.917969 150.914062 284.234375 154.332031 282.019531 157.265625 C 277.644531 163.214844 273.027344 168.964844 268.183594 174.441406 C 266.015625 176.886719 263.570312 180.480469 259.863281 180.605469 C 259.523438 179.011719 259.464844 176.539062 260.113281 175.039062 C 261.042969 172.953125 264.433594 172.03125 265.863281 170.28125 C 267.945312 167.894531 269.628906 164.472656 271.585938 161.40625 C 277.546875 152.15625 282.207031 142.304688 287.78125 132.242188 C 295.410156 118.414062 298.644531 101.871094 304.652344 86.066406 C 292.886719 81.308594 284.9375 74.140625 283.003906 63.214844 Z M 314.007812 51.441406 C 303.886719 53.0625 295.601562 57.570312 286.777344 61.304688 C 290.148438 69.542969 297.5 75.269531 306.699219 79.921875 C 308.863281 70.554688 313.289062 61.082031 314.007812 51.441406 Z M 204.222656 247.222656 C 204.34375 244.007812 207.003906 241.324219 208.832031 238.804688 C 214.480469 230.847656 220.378906 224.253906 226.714844 216.460938 C 232.859375 208.84375 238.277344 201.84375 244.753906 194.375 C 246.597656 192.363281 250.910156 186.6875 253.203125 187.953125 C 255.753906 189.363281 250.699219 195.726562 249.777344 196.875 C 238.054688 213.042969 224.59375 227.140625 211.496094 241.535156 C 209.5625 243.597656 207.832031 247.511719 204.222656 247.222656 Z M 109.640625 244.796875 C 109.761719 248.21875 106.273438 249.839844 104.324219 251.96875 C 102.035156 254.59375 99.25 257.820312 97.898438 261.972656 C 95.949219 267.710938 96.402344 272.433594 95.148438 277.691406 C 93.519531 284.515625 90.847656 289.359375 87.0625 293.140625 C 83.984375 296.371094 79.164062 297.527344 76.175781 301.285156 C 73.894531 304.203125 72.539062 309.574219 71.929688 313.617188 C 79.542969 294.734375 99.519531 295.613281 111.199219 282.324219 C 112.710938 280.519531 114.910156 277.363281 116.3125 274.816406 C 117.015625 273.394531 119.082031 266.824219 121.785156 267.902344 C 124.277344 268.933594 121.359375 276.023438 120.765625 279.703125 C 120.042969 283.933594 120.226562 286.792969 118.835938 290.789062 C 112.929688 308.273438 91.960938 309.460938 90.035156 328.980469 C 92.882812 323.386719 95.785156 319.683594 100.097656 317.035156 C 106.484375 312.933594 114.710938 312.304688 121.390625 309.070312 C 124.726562 307.488281 128.414062 304.113281 130.730469 301.0625 C 133.113281 298.023438 133.410156 293.476562 136.589844 290.414062 C 139.609375 292.871094 138.703125 297.558594 138.046875 301.515625 C 135.160156 318.425781 113.46875 324.132812 117.292969 343.4375 C 122.5 335.519531 124.066406 327.457031 130.988281 322.621094 C 136.695312 318.648438 144.433594 317.035156 148.761719 312.519531 C 150.574219 310.644531 154.414062 305.136719 156.007812 301.480469 C 157.335938 298.335938 157.421875 295.257812 160.183594 295.773438 C 164.171875 296.582031 161.242188 306.125 160.125 309.894531 C 158.285156 316.09375 155.871094 321.070312 152.488281 324.660156 C 147.542969 329.972656 141.648438 332.023438 138.972656 341.703125 C 144.742188 335.648438 154.246094 333.304688 161.453125 327.890625 C 166.664062 323.871094 172.460938 318.617188 175.402344 310.234375 C 178.394531 301.640625 178.429688 287.292969 187.527344 287.234375 C 188.414062 288.964844 186.464844 291.382812 185.941406 292.988281 C 183.539062 299.699219 186.25 304.964844 183.425781 312.871094 C 182.019531 316.9375 178.878906 320.730469 176.175781 324.195312 C 173.503906 327.523438 170.046875 330.523438 167.246094 332.59375 C 160.394531 337.445312 151.785156 338.777344 145.722656 343.3125 C 144.765625 344.023438 142.273438 346.597656 141.089844 348.84375 C 139.40625 351.976562 138.679688 354.402344 136.136719 353.570312 C 133.542969 352.664062 133.457031 344.273438 133.792969 341.976562 C 135.492188 328.820312 145.390625 325.703125 150.671875 318.382812 C 145.117188 322.320312 133.929688 324.480469 129.742188 332.0625 C 128.988281 333.398438 128.808594 335.082031 128.171875 336.519531 C 126.492188 340.226562 123.445312 344.835938 121.292969 347.207031 C 119.742188 348.855469 114.3125 353.1875 111.953125 351.902344 C 109.917969 350.765625 111.964844 347.933594 112.398438 345.804688 C 113.015625 342.628906 111.632812 338.765625 112.171875 335 C 113.414062 325.269531 119.789062 320.011719 124.824219 315.230469 C 117.214844 317.8125 107.820312 318.808594 100.710938 323.820312 C 98.097656 325.71875 95.753906 329.488281 93.898438 334.234375 C 92.589844 337.597656 91.71875 342.152344 89.058594 341.804688 C 86.417969 341.390625 85.625 336.875 85.191406 334.171875 C 81.429688 309.757812 106.996094 304.761719 114.726562 287.78125 C 112.34375 289.304688 110.785156 291.601562 108.335938 293.105469 C 101.882812 297.191406 93.246094 298.949219 86.929688 303.351562 C 82.066406 306.808594 78.425781 311.78125 75.316406 318.753906 C 74.324219 321.113281 73.300781 324.1875 71.734375 324.101562 C 69.695312 323.898438 68.378906 318.535156 68.203125 316.550781 C 67.890625 313.945312 68.464844 310.332031 68.765625 308.746094 C 72.214844 291.609375 86.511719 292.429688 90.011719 275.667969 C 86.261719 278.375 82.867188 280.523438 77.21875 281.839844 C 75.300781 282.320312 68.214844 283.292969 68.015625 279.925781 C 67.789062 276.339844 73.492188 275.105469 75.191406 273.417969 C 81.132812 267.265625 82.804688 254.828125 90.183594 248.082031 C 95.257812 243.449219 100.632812 240.265625 107.089844 238.273438 C 108.957031 237.710938 112.257812 236.550781 113.273438 239.25 C 111.773438 240.402344 110.664062 240.210938 109.34375 240.613281 C 101.34375 243.320312 93.199219 248.730469 88.847656 256.996094 C 86.011719 262.230469 84.34375 268.613281 80.058594 275.378906 C 80.011719 275.582031 79.804688 275.53125 79.738281 275.808594 C 83.921875 273.996094 89.527344 270.144531 91.644531 264.300781 C 93.859375 258.335938 95.082031 254.734375 98.730469 250.917969 C 101.542969 247.910156 104.941406 244.25 109.640625 244.796875 Z M 49.820312 251.984375 C 52.535156 251.769531 54.222656 253.761719 53.433594 256.171875 C 52.359375 259.734375 46.941406 258.296875 47.042969 255.148438 C 47.042969 253.339844 47.761719 252.144531 49.820312 251.984375 Z M 38.5 321.992188 C 43.0625 322.507812 40.550781 329.699219 36.414062 327.410156 C 34.117188 326.140625 34.972656 321.65625 38.5 321.992188 Z M 174.453125 204.972656 C 176.917969 208.230469 179.535156 211.453125 183.574219 213.863281 C 179.566406 203.164062 178.488281 190.789062 177.171875 178.5 C 175.027344 188.085938 175.753906 195.90625 174.453125 204.972656 Z M 171.949219 198.242188 C 171.527344 191.574219 171.960938 184.320312 172.988281 176.703125 C 168.902344 183.230469 170.234375 193.359375 171.949219 198.242188 Z M 189.617188 216.320312 C 192.726562 217.207031 195.519531 217.585938 198.050781 217.539062 C 191.707031 204.554688 188.664062 189.542969 190.332031 171.691406 C 190.328125 171.402344 190.160156 171.21875 189.984375 171.03125 C 186.117188 188.429688 191.121094 200.375 189.617188 216.320312 Z M 209.632812 186.265625 C 210.875 194.929688 211.761719 203.003906 213.394531 211.257812 C 214.773438 210 216.054688 208.574219 217.367188 207.300781 C 213.628906 196.09375 211.480469 183.964844 209.195312 171.804688 C 209.246094 171.597656 208.847656 171.433594 208.714844 171.6875 C 207.722656 177.363281 208.957031 181.84375 209.632812 186.265625 Z M 179.550781 168.535156 C 182.804688 173.929688 181.832031 181.921875 183.566406 188.253906 C 183.117188 181.074219 184.398438 171.785156 187.058594 163.980469 C 184.433594 165.300781 181.808594 166.625 179.550781 168.535156 Z M 215.171875 172.730469 C 215.90625 172.683594 216.617188 172.421875 217.3125 172.230469 C 216.214844 171.386719 215.425781 169.253906 214.214844 169.179688 C 214.6875 170.234375 214.804688 171.558594 215.171875 172.730469 Z M 199.28125 162.003906 C 199.007812 161.9375 199.003906 161.644531 198.582031 161.617188 C 196.605469 161.722656 194.53125 161.65625 192.648438 162.003906 C 196.570312 167.917969 195.757812 176.738281 198.246094 183.539062 C 198.140625 176.730469 197.804688 169.078125 199.28125 162.003906 Z M 205.582031 164.589844 C 205.730469 163.976562 205.859375 163.429688 205.992188 162.882812 C 205.582031 162.785156 205.171875 162.6875 204.761719 162.589844 C 204.785156 163.390625 204.898438 164.140625 205.582031 164.589844 Z M 191.351562 156.570312 C 196.011719 156.671875 200.574219 155.671875 205.894531 156.945312 C 211.28125 158.234375 215.988281 161.164062 219.378906 164.789062 C 227.128906 173.066406 233.921875 185.078125 229.777344 200.316406 C 227.714844 208.046875 218.757812 216.867188 213.28125 220.175781 C 197.511719 229.75 175.851562 220.53125 168.933594 207.546875 C 165.914062 201.773438 165.367188 196.523438 165.699219 189.101562 C 165.796875 186.886719 166.449219 184.445312 166.425781 181.84375 C 166.375 180.242188 165.304688 180.496094 165.671875 178.347656 C 165.964844 176.828125 167.988281 175.582031 169.285156 174.089844 C 173.0625 169.433594 175.6875 165.085938 180.097656 162.027344 C 183.539062 159.679688 187.710938 158.511719 191.351562 156.570312 Z M 231.578125 149.023438 C 233.597656 150.226562 235.023438 151.796875 237.601562 152.773438 C 233.785156 142.195312 231.558594 130.695312 230.09375 118.730469 C 227.953125 130.410156 230.1875 139.457031 231.578125 149.023438 Z M 228.4375 144.957031 C 226.085938 136.097656 225.410156 126.265625 227.179688 114.933594 C 219.746094 124.914062 221.78125 139.03125 228.4375 144.957031 Z M 258.691406 151.109375 C 260.144531 150.15625 261.132812 148.445312 262.441406 147.171875 C 259.34375 138.714844 258.292969 128.9375 256.480469 119.632812 C 255.847656 131.023438 257.683594 140.835938 258.691406 151.109375 Z M 243.648438 155.230469 C 246.273438 156.003906 248.78125 156.382812 250.992188 156.480469 C 245.527344 144.351562 243.359375 130.199219 241.539062 115.769531 C 239.160156 130.855469 242.394531 142.375 243.648438 155.230469 Z M 277.097656 135.023438 C 278.148438 128.203125 276.554688 121.90625 273.457031 118.28125 C 275.394531 123.433594 275.730469 129.574219 277.097656 135.023438 Z M 235.65625 122.296875 C 236.113281 118.871094 236.90625 111.632812 237.855469 106.445312 C 236.109375 107.113281 234.382812 107.707031 233.15625 109.21875 C 234.761719 113.066406 234.742188 117.964844 235.65625 122.296875 Z M 262.679688 114.1875 C 262.90625 111.429688 264.15625 110.140625 265.453125 108.9375 C 263.773438 108.105469 262.214844 107.082031 260.472656 106.230469 C 261.042969 108.96875 261.957031 111.492188 262.679688 114.1875 Z M 250.546875 131.773438 C 250.359375 124.730469 250.109375 113.996094 252.542969 104.121094 C 250.023438 103.804688 247.691406 103.898438 245.605469 104.1875 C 248.21875 111.957031 248.640625 122.878906 250.546875 131.773438 Z M 256.832031 162.203125 C 233.113281 164.320312 217.117188 148.59375 217.503906 129.785156 C 217.507812 128.558594 217.863281 127.058594 217.886719 125.765625 C 218.683594 113.980469 227.671875 105.023438 236.035156 101.394531 C 240.84375 99.371094 247.566406 98.09375 254.246094 99.113281 C 272.742188 101.953125 282.367188 115.074219 283.464844 128.898438 C 284.914062 147.570312 270.421875 158.746094 256.832031 162.203125 Z M 134.582031 140.394531 C 135.035156 139.707031 134.933594 139.539062 134.359375 140.125 C 119.78125 153.15625 104.929688 168.863281 89.363281 181.808594 C 84.40625 185.957031 78.386719 190.648438 72.917969 193.019531 C 67.058594 195.515625 52.6875 197.414062 57.203125 184.859375 C 58.636719 180.660156 62.578125 176.839844 65.792969 173.355469 C 69.070312 169.882812 72.476562 166.800781 75.699219 164.183594 C 82.59375 158.542969 89.371094 152.808594 96.351562 147.121094 C 106.894531 138.601562 117.121094 130.804688 129.148438 124.519531 C 132.445312 122.785156 138.605469 119.640625 142.164062 120.421875 C 144.214844 120.910156 144.816406 123.21875 146.535156 123.558594 C 148.339844 123.847656 151.847656 122.449219 154.308594 122.101562 C 157.078125 121.679688 159.875 120.832031 162.085938 120.640625 C 166.09375 120.15625 170.523438 120.640625 174.71875 120.269531 C 178.898438 119.972656 182.339844 118.847656 185.96875 118.132812 C 195.179688 108.863281 202.519531 98.644531 212.027344 90.53125 C 225.632812 78.851562 243.257812 71.167969 259.914062 63.609375 C 271.003906 58.542969 281.679688 53.085938 293.6875 48.675781 C 301.6875 45.679688 308.25 42.347656 317.574219 42.847656 C 323.050781 37.734375 328.339844 31.28125 333.773438 25.4375 C 335.320312 23.789062 337.007812 20.949219 339.613281 21.210938 C 338.265625 25.648438 335.074219 29.359375 332.457031 33.058594 C 329.824219 36.828125 327.332031 40.636719 324.300781 43.660156 C 325.023438 46.066406 324.042969 51.390625 322.035156 53.148438 C 319.507812 67.042969 317.121094 81.257812 313.796875 95.183594 C 310.421875 109.304688 307.554688 123.410156 303.515625 137.015625 C 301.636719 143.347656 298.308594 148.539062 295.558594 154.300781 C 287.585938 170.789062 277.15625 185.175781 266.804688 197.414062 C 268.511719 211.09375 271.0625 224.253906 269.726562 239.808594 C 275.566406 242.214844 275.277344 250.371094 272.640625 258.683594 C 270.027344 267.222656 264.675781 274.527344 259.988281 281.773438 C 251.050781 295.648438 241.789062 309.378906 231.203125 321.992188 C 226.882812 327.089844 218.316406 337.019531 211.984375 334.855469 C 207.664062 333.316406 208.128906 327.441406 209.09375 323.414062 C 211.113281 314.949219 217.128906 309.394531 220.519531 303.351562 C 215.410156 290.945312 209.636719 278.886719 205.457031 265.914062 C 202.472656 265.417969 201.117188 267.476562 198.046875 266.738281 C 196.308594 271.304688 195.019531 278.207031 191.207031 279.386719 C 188.632812 280.210938 182.871094 279.269531 179.773438 278.960938 C 175.671875 278.625 171.121094 277.753906 167.363281 276.277344 C 159.386719 273.144531 150.960938 268.894531 144.695312 263.136719 C 135.269531 254.609375 126.257812 246.757812 123.820312 234.628906 C 121.945312 232.523438 120.929688 229.824219 122.160156 226.800781 C 124.027344 221.980469 131.535156 220.75 134.292969 217.65625 C 134.277344 215.921875 134.242188 214.253906 134.226562 212.515625 C 133.515625 211.554688 132.035156 211.128906 131.8125 209.917969 C 123.605469 206.875 117.640625 202.851562 109.355469 198.921875 C 105.796875 197.207031 102.242188 195.203125 98.1875 193.148438 C 95.675781 191.898438 89.601562 188.640625 89.726562 185.714844 C 89.789062 183.640625 93.359375 181.390625 95.230469 179.890625 C 101.535156 174.617188 106.707031 169.867188 112.089844 163.9375 C 119.925781 155.285156 127.007812 147.957031 134.582031 140.394531 " fill-opacity="1" fill-rule="evenodd"/></g></svg>