<svg xmlns="http://www.w3.org/2000/svg" xmlns:xlink="http://www.w3.org/1999/xlink" width="500" zoomAndPan="magnify" viewBox="0 0 375 374.999991" height="500" preserveAspectRatio="xMidYMid meet" version="1.0"><defs><clipPath id="b0e56c4244"><path d="M 18.28125 334 L 356.53125 334 L 356.53125 374 L 18.28125 374 Z M 18.28125 334 " clip-rule="nonzero"/></clipPath></defs><g clip-path="url(#b0e56c4244)"><path fill="#99e6f1" d="M 282.183594 334.847656 C 278.835938 335.0625 258.082031 336.410156 249.820312 337.871094 C 246.515625 338.453125 242.726562 340.007812 238.335938 341.804688 C 231.164062 344.746094 223.027344 348.082031 213.308594 348.773438 C 212.382812 348.839844 211.46875 348.871094 210.5625 348.871094 C 209.667969 348.871094 208.789062 348.839844 207.917969 348.78125 C 204.699219 353.125 196.308594 363.402344 188.960938 363.402344 C 181.363281 363.402344 169.367188 347.578125 164.574219 340.796875 C 159.902344 341.179688 156.121094 342.136719 152.222656 343.132812 C 146.355469 344.628906 140.273438 346.1875 130.835938 345.878906 C 114.691406 345.378906 90.371094 336.792969 85.378906 334.972656 C 58.628906 341.65625 36.078125 354.722656 18.28125 373.910156 L 356.644531 373.910156 C 336.066406 354.945312 311.621094 342.144531 282.183594 334.847656 Z M 282.183594 334.847656 " fill-opacity="1" fill-rule="nonzero"/></g><path fill="#99e6f1" d="M 163.921875 239.070312 C 166.601562 242.777344 176.546875 244.832031 189.21875 244.308594 C 204.5625 243.675781 214.605469 240.007812 215.6875 238.222656 C 216.359375 236.730469 213.859375 231.597656 204.664062 223.347656 C 199.144531 230.828125 190.191406 234.675781 177.957031 234.769531 C 177.945312 234.769531 177.9375 234.769531 177.929688 234.769531 C 176.261719 234.769531 174.902344 233.421875 174.890625 231.75 C 174.878906 230.066406 176.226562 228.695312 177.90625 228.679688 C 188.21875 228.601562 195.398438 225.652344 199.78125 219.714844 C 198.765625 219.296875 197.691406 219.058594 196.589844 219.058594 L 174.121094 219.058594 C 171.675781 219.058594 169.371094 220.097656 167.804688 221.910156 C 163.757812 226.585938 159.792969 233.367188 163.921875 239.070312 Z M 163.921875 239.070312 " fill-opacity="1" fill-rule="nonzero"/><path fill="#99e6f1" d="M 114.773438 274.15625 C 116.050781 275.242188 116.210938 277.160156 115.121094 278.441406 C 114.519531 279.152344 113.664062 279.515625 112.800781 279.515625 C 112.101562 279.515625 111.40625 279.28125 110.835938 278.796875 C 110.535156 278.542969 108.171875 276.503906 104.730469 272.945312 C 105.683594 280.0625 106.1875 289.144531 103.90625 295.386719 C 101.25 302.664062 97.777344 306.699219 94.417969 310.605469 C 92.644531 312.664062 90.96875 314.613281 89.410156 317.039062 C 86.558594 321.476562 87.40625 326.992188 88 329.445312 C 92.089844 330.910156 104.335938 335.132812 116.285156 337.71875 C 122.582031 323.820312 124.664062 307.582031 122.371094 289.34375 C 122.164062 287.675781 123.34375 286.15625 125.007812 285.945312 C 126.726562 285.734375 128.199219 286.917969 128.40625 288.582031 C 130.769531 307.378906 128.71875 324.261719 122.410156 338.890625 C 125.449219 339.382812 128.375 339.714844 131.015625 339.796875 C 138.058594 340.011719 142.949219 339.128906 147.628906 338 C 150.578125 322.980469 151.101562 309.433594 149.167969 296.683594 C 148.914062 295.019531 150.054688 293.46875 151.714844 293.214844 C 153.375 292.964844 154.929688 294.109375 155.179688 295.769531 C 157.105469 308.429688 156.742188 321.769531 154.121094 336.390625 C 158.207031 335.421875 162.679688 334.613281 168.410156 334.558594 C 171.15625 325.820312 171.761719 316.023438 170.160156 305.371094 C 169.910156 303.710938 171.054688 302.15625 172.714844 301.910156 C 174.402344 301.65625 175.925781 302.804688 176.179688 304.464844 C 177.828125 315.441406 177.328125 325.652344 174.699219 334.882812 C 180.703125 335.578125 186.195312 337.261719 191.535156 338.914062 C 193.226562 339.4375 194.894531 339.953125 196.554688 340.429688 C 194.347656 328.328125 195.027344 315.171875 198.628906 300.382812 C 199.027344 298.75 200.675781 297.75 202.304688 298.148438 C 203.9375 298.546875 204.9375 300.191406 204.539062 301.824219 C 200.871094 316.886719 200.429688 330.046875 203.121094 342.023438 C 206.304688 342.628906 209.523438 342.941406 212.871094 342.699219 C 221.613281 342.078125 229.269531 338.9375 236.019531 336.167969 C 240.539062 334.320312 244.808594 332.570312 248.757812 331.871094 C 249.753906 331.695312 250.917969 331.523438 252.195312 331.351562 C 247.949219 316.511719 245.886719 302.597656 245.957031 288.945312 C 245.96875 287.273438 247.328125 285.917969 249 285.917969 C 249.007812 285.917969 249.007812 285.917969 249.015625 285.917969 C 250.699219 285.925781 252.050781 287.296875 252.042969 288.976562 C 251.976562 302.335938 254.050781 315.996094 258.324219 330.640625 C 266.9375 329.757812 277.199219 329.066406 280.910156 328.824219 C 282.199219 326.921875 284.710938 322.238281 283.550781 316.023438 C 282.859375 312.363281 281.191406 309.75 279.257812 306.71875 C 276.554688 302.492188 273.488281 297.699219 272.59375 289.285156 C 271.6875 280.800781 271.714844 271.714844 271.921875 265.199219 C 265.714844 271.832031 260.527344 275.578125 260.113281 275.875 C 258.75 276.847656 256.855469 276.527344 255.875 275.160156 C 254.902344 273.789062 255.21875 271.890625 256.585938 270.917969 C 256.773438 270.78125 275.292969 257.386719 283.820312 235.929688 C 292.640625 213.738281 294.585938 92.851562 292.761719 76.890625 C 290.359375 55.894531 281.875 41.671875 277.03125 35.066406 C 274.945312 32.226562 273.847656 28.871094 273.859375 25.359375 C 273.878906 20.332031 273.109375 11.214844 267.738281 6.628906 C 267.070312 6.054688 265.886719 5.535156 264.273438 5.074219 C 251.179688 11.359375 241.433594 22.253906 235.332031 37.523438 C 234.859375 38.714844 233.714844 39.441406 232.507812 39.441406 C 232.128906 39.441406 231.75 39.371094 231.378906 39.21875 C 229.816406 38.597656 229.058594 36.824219 229.679688 35.265625 C 235.179688 21.488281 243.824219 10.683594 254.847656 3.460938 C 231 1.007812 179.769531 3.488281 134.429688 15.007812 C 95.429688 24.925781 73.378906 48.039062 68.914062 83.710938 C 66.578125 102.375 68.980469 192.496094 80.355469 223.597656 C 91.519531 254.136719 114.542969 273.957031 114.773438 274.15625 Z M 225.789062 328.050781 C 225.625 329.617188 224.308594 330.777344 222.769531 330.777344 C 222.667969 330.777344 222.558594 330.773438 222.449219 330.765625 C 220.78125 330.585938 219.570312 329.089844 219.742188 327.417969 C 221.015625 315.28125 219.722656 302.960938 215.902344 290.800781 C 215.398438 289.199219 216.289062 287.492188 217.890625 286.984375 C 219.496094 286.476562 221.199219 287.375 221.707031 288.976562 C 225.777344 301.933594 227.152344 315.082031 225.789062 328.050781 Z M 262.78125 15.007812 C 263.628906 13.5625 265.5 13.078125 266.945312 13.933594 C 268.394531 14.785156 268.875 16.648438 268.019531 18.097656 C 259.691406 32.261719 256.871094 52.402344 259.148438 81.492188 C 259.277344 83.167969 258.027344 84.632812 256.351562 84.761719 C 256.273438 84.769531 256.191406 84.773438 256.113281 84.773438 C 254.539062 84.773438 253.207031 83.5625 253.082031 81.964844 C 250.703125 51.574219 253.785156 30.300781 262.78125 15.007812 Z M 226.75 144.363281 C 234.863281 141.867188 242.074219 138.871094 247.011719 136.636719 C 251.148438 134.765625 256.050781 136.90625 257.351562 141.261719 C 259.589844 148.78125 260.25 160.457031 248.914062 170.90625 C 230.328125 188.046875 189.6875 190.054688 188.230469 167.078125 C 187.441406 154.628906 208.871094 149.875 226.75 144.363281 Z M 196.59375 212.96875 C 200.007812 212.96875 203.34375 214.191406 205.980469 216.417969 C 224.980469 232.457031 222.140625 238.710938 221.210938 240.765625 C 218.292969 247.199219 200.972656 249.417969 195.730469 249.945312 C 193.523438 250.164062 189.652344 250.472656 185.195312 250.472656 C 175.757812 250.472656 163.664062 249.101562 158.992188 242.640625 C 153.953125 235.667969 155.453125 226.890625 163.210938 217.921875 C 165.9375 214.773438 169.914062 212.96875 174.128906 212.96875 Z M 98.519531 141.265625 C 99.816406 136.910156 104.71875 134.769531 108.859375 136.640625 C 113.792969 138.875 121.003906 141.867188 129.117188 144.367188 C 146.996094 149.875 168.429688 154.632812 167.636719 167.082031 C 166.179688 190.054688 125.542969 188.050781 106.953125 170.910156 C 95.617188 160.457031 96.277344 148.785156 98.519531 141.265625 Z M 98.519531 141.265625 " fill-opacity="1" fill-rule="nonzero"/><path fill="#99e6f1" d="M 172.078125 340.742188 C 178.628906 349.417969 186.121094 357.3125 188.960938 357.3125 C 191.933594 357.3125 197.035156 352.488281 200.9375 347.789062 C 197.09375 346.988281 193.382812 345.851562 189.734375 344.722656 C 184.101562 342.980469 178.292969 341.1875 172.078125 340.742188 Z M 172.078125 340.742188 " fill-opacity="1" fill-rule="nonzero"/><path fill="#99e6f1" d="M 132.425781 170.378906 C 136.023438 170.378906 138.9375 167.457031 138.9375 163.859375 C 138.9375 160.261719 136.019531 157.34375 132.425781 157.34375 C 128.828125 157.34375 125.914062 160.265625 125.914062 163.859375 C 125.910156 167.457031 128.828125 170.378906 132.425781 170.378906 Z M 132.425781 170.378906 " fill-opacity="1" fill-rule="nonzero"/><path fill="#99e6f1" d="M 223.441406 170.378906 C 227.042969 170.378906 229.957031 167.457031 229.957031 163.859375 C 229.957031 160.261719 227.039062 157.34375 223.441406 157.34375 C 219.847656 157.34375 216.929688 160.265625 216.929688 163.859375 C 216.929688 167.457031 219.847656 170.378906 223.441406 170.378906 Z M 223.441406 170.378906 " fill-opacity="1" fill-rule="nonzero"/></svg>