<svg xmlns="http://www.w3.org/2000/svg" xmlns:xlink="http://www.w3.org/1999/xlink" width="500" zoomAndPan="magnify" viewBox="0 0 375 374.999991" height="500" preserveAspectRatio="xMidYMid meet" version="1.0"><defs><clipPath id="09790ef11d"><path d="M 8.183594 222 L 173 222 L 173 375 L 8.183594 375 Z M 8.183594 222 " clip-rule="nonzero"/></clipPath><clipPath id="b803714b2b"><path d="M 266 284 L 366.683594 284 L 366.683594 375 L 266 375 Z M 266 284 " clip-rule="nonzero"/></clipPath></defs><path fill="#99e6f1" d="M 243.46875 95.417969 C 244.03125 96.226562 244.597656 96.953125 245.164062 97.761719 L 288.683594 112.867188 L 296.839844 89.28125 C 298.617188 84.03125 297 78.214844 292.722656 74.660156 C 288.925781 71.511719 286.746094 66.828125 286.746094 61.898438 C 286.746094 60.042969 287.070312 58.265625 287.632812 56.488281 L 293.207031 40.332031 L 284.082031 37.183594 L 278.511719 53.257812 C 276.25 59.71875 270.195312 64.242188 263.332031 64.402344 C 260.585938 64.484375 258 65.371094 255.820312 66.988281 C 253.640625 68.601562 252.027344 70.785156 251.136719 73.367188 Z M 243.46875 95.417969 " fill-opacity="1" fill-rule="nonzero"/><path fill="#99e6f1" d="M 211.734375 51.480469 L 197.847656 53.257812 C 194.457031 53.660156 191.386719 55.4375 189.289062 58.101562 L 186.707031 61.414062 C 186.140625 62.140625 185.171875 62.222656 184.445312 61.738281 L 181.054688 59.152344 C 178.308594 57.054688 174.996094 56.082031 171.605469 56.566406 L 157.71875 58.34375 C 159.332031 64.484375 165.308594 68.683594 171.769531 67.957031 L 178.953125 67.070312 C 179.359375 66.988281 179.84375 67.148438 180.164062 67.390625 C 180.488281 67.632812 180.730469 68.039062 180.8125 68.441406 C 180.890625 69.007812 180.890625 69.652344 180.890625 70.21875 C 180.890625 70.300781 180.890625 70.378906 180.890625 70.460938 L 192.355469 69.007812 C 192.195312 68.359375 192.035156 67.714844 191.953125 67.070312 C 191.871094 66.664062 192.035156 66.179688 192.277344 65.855469 C 192.519531 65.535156 192.921875 65.292969 193.324219 65.210938 L 200.511719 64.324219 C 206.890625 63.351562 211.734375 57.941406 211.734375 51.480469 Z M 211.734375 51.480469 " fill-opacity="1" fill-rule="nonzero"/><path fill="#99e6f1" d="M 207.617188 25.714844 L 219.246094 27.246094 L 233.941406 12.789062 C 235.3125 11.496094 234.910156 9.960938 234.101562 9.074219 C 233.375 8.183594 231.921875 7.457031 230.386719 8.589844 L 229.175781 9.398438 C 227.320312 10.691406 224.898438 10.851562 222.878906 9.71875 C 220.859375 8.671875 219.648438 6.570312 219.730469 4.308594 C 219.730469 3.5 219.488281 2.773438 219.003906 2.289062 C 218.519531 1.722656 217.710938 1.480469 216.902344 1.480469 C 216.417969 1.480469 214.640625 1.644531 214.238281 3.664062 C 213.753906 5.925781 212.058594 7.621094 209.878906 8.183594 C 207.617188 8.75 205.355469 8.023438 203.824219 6.246094 L 199.945312 1.722656 C 198.734375 0.269531 197.203125 0.59375 196.234375 1.238281 C 195.265625 1.886719 194.539062 3.257812 195.425781 4.875 Z M 207.617188 25.714844 " fill-opacity="1" fill-rule="nonzero"/><path fill="#99e6f1" d="M 287.554688 116.257812 L 287.632812 115.9375 L 247.585938 102.125 C 249.847656 106.566406 251.460938 111.332031 252.269531 116.257812 Z M 287.554688 116.257812 " fill-opacity="1" fill-rule="nonzero"/><path fill="#99e6f1" d="M 195.425781 68.117188 C 195.992188 70.136719 197.121094 71.914062 198.65625 73.289062 C 200.59375 75.066406 203.097656 76.035156 205.761719 76.113281 C 209.878906 76.195312 213.914062 76.761719 217.792969 77.890625 C 215.207031 73.046875 212.140625 68.523438 208.503906 64.402344 C 206.324219 66.019531 203.742188 67.070312 200.914062 67.472656 Z M 195.425781 68.117188 " fill-opacity="1" fill-rule="nonzero"/><path fill="#99e6f1" d="M 170.394531 83.707031 C 154.488281 88.070312 142.539062 100.425781 138.664062 116.257812 L 249.039062 116.257812 C 247.261719 106.40625 242.335938 97.4375 234.828125 90.734375 C 226.753906 83.546875 216.417969 79.425781 205.597656 79.265625 C 202.207031 79.183594 198.898438 77.890625 196.394531 75.628906 C 195.183594 74.582031 194.214844 73.289062 193.488281 71.914062 L 180.328125 73.53125 C 179.117188 78.375 175.402344 82.335938 170.394531 83.707031 Z M 174.269531 97.679688 C 166.359375 99.863281 159.574219 105.273438 155.617188 112.542969 C 155.296875 113.109375 154.8125 113.351562 154.164062 113.351562 C 153.921875 113.351562 153.601562 113.269531 153.359375 113.191406 C 152.550781 112.785156 152.308594 111.816406 152.710938 111.007812 C 157.074219 102.929688 164.664062 96.953125 173.382812 94.613281 C 174.269531 94.371094 175.160156 94.855469 175.402344 95.742188 C 175.5625 96.550781 175.078125 97.4375 174.269531 97.679688 Z M 174.269531 97.679688 " fill-opacity="1" fill-rule="nonzero"/><path fill="#99e6f1" d="M 193.890625 171.183594 C 191.792969 171.183594 189.773438 171.992188 188.238281 173.527344 C 186.707031 175.0625 185.898438 177.082031 185.976562 179.179688 L 188.886719 343.957031 C 188.964844 346.621094 191.144531 348.800781 193.808594 348.800781 C 196.476562 348.800781 198.734375 346.621094 198.734375 343.957031 L 201.644531 179.179688 C 201.644531 177.082031 200.914062 175.0625 199.382812 173.527344 C 197.847656 171.992188 195.992188 171.183594 193.890625 171.183594 Z M 193.890625 171.183594 " fill-opacity="1" fill-rule="nonzero"/><path fill="#99e6f1" d="M 292.480469 268.109375 C 293.285156 273.601562 297.96875 277.804688 303.703125 277.804688 L 310.160156 277.804688 C 311.050781 277.804688 311.777344 278.53125 311.777344 279.417969 C 311.777344 279.984375 311.695312 280.46875 311.695312 281.035156 L 321.628906 281.035156 C 321.546875 280.46875 321.546875 279.984375 321.546875 279.417969 C 321.546875 278.53125 322.273438 277.804688 323.160156 277.804688 L 329.621094 277.804688 C 335.273438 277.804688 340.035156 273.601562 340.84375 268.109375 L 328.570312 268.109375 C 325.582031 268.109375 322.675781 269.324219 320.578125 271.421875 L 317.914062 274.085938 C 317.265625 274.734375 316.296875 274.734375 315.652344 274.085938 L 312.988281 271.421875 C 310.886719 269.324219 307.980469 268.109375 304.992188 268.109375 Z M 292.480469 268.109375 " fill-opacity="1" fill-rule="nonzero"/><path fill="#99e6f1" d="M 293.367188 290.484375 L 294.09375 277.320312 C 291.105469 274.652344 289.167969 270.777344 289.167969 266.414062 C 289.167969 265.527344 289.894531 264.800781 290.78125 264.800781 L 294.820312 264.800781 L 300.875 158.179688 L 86.90625 158.179688 L 88.441406 184.914062 C 89.085938 184.671875 89.8125 184.59375 90.539062 184.59375 C 94.09375 184.59375 96.839844 187.015625 97.402344 190.488281 C 97.566406 191.78125 98.371094 192.832031 99.582031 193.316406 C 100.792969 193.800781 102.085938 193.71875 103.136719 192.910156 L 109.433594 188.386719 L 109.03125 182.894531 C 108.789062 179.828125 109.835938 176.757812 111.9375 174.496094 C 114.035156 172.234375 117.023438 170.941406 120.09375 170.941406 C 123 170.941406 125.742188 172.074219 127.84375 174.09375 C 129.941406 176.109375 131.152344 178.777344 131.234375 181.683594 L 133.332031 240.324219 C 138.582031 244.523438 143.347656 249.453125 147.464844 254.945312 C 157.71875 268.757812 163.207031 285.234375 163.207031 302.4375 L 163.207031 309.949219 C 163.207031 319.160156 165.390625 328.367188 169.507812 336.605469 C 173.382812 344.359375 175.644531 352.921875 176.046875 361.5625 L 263.894531 361.5625 C 263.492188 360.03125 263.332031 358.414062 263.332031 356.71875 L 263.332031 350.5 C 262.039062 351.386719 260.503906 351.871094 258.808594 351.871094 C 256.546875 351.871094 254.449219 350.984375 252.914062 349.367188 C 251.378906 347.753906 250.574219 345.652344 250.652344 343.390625 L 256.546875 181.683594 C 256.628906 178.777344 257.839844 176.109375 259.9375 174.089844 C 262.039062 172.074219 264.785156 170.941406 267.691406 170.941406 C 270.757812 170.941406 273.746094 172.234375 275.84375 174.496094 C 277.945312 176.757812 278.996094 179.828125 278.753906 182.894531 L 269.546875 309.144531 C 274.875 300.582031 283.273438 293.714844 293.367188 290.484375 Z M 202.046875 344.035156 C 201.964844 348.480469 198.332031 352.113281 193.890625 352.113281 C 189.449219 352.113281 185.816406 348.480469 185.734375 344.035156 L 182.828125 179.261719 C 182.75 176.273438 183.878906 173.445312 186.058594 171.265625 C 188.160156 169.082031 190.984375 167.953125 193.972656 167.953125 C 196.960938 167.953125 199.785156 169.164062 201.886719 171.265625 C 203.984375 173.445312 205.113281 176.273438 205.113281 179.261719 Z M 202.046875 344.035156 " fill-opacity="1" fill-rule="nonzero"/><path fill="#99e6f1" d="M 273.421875 176.917969 C 271.890625 175.304688 269.871094 174.414062 267.609375 174.414062 C 265.589844 174.414062 263.574219 175.222656 262.121094 176.597656 C 260.664062 178.050781 259.777344 179.90625 259.695312 182.007812 L 253.804688 343.714844 C 253.722656 345.085938 254.207031 346.378906 255.175781 347.347656 C 256.144531 348.316406 257.355469 348.882812 258.726562 348.882812 C 260.664062 348.882812 262.441406 347.753906 263.25 345.976562 L 263.25 331.597656 C 263.25 326.671875 264.136719 321.984375 265.671875 317.542969 L 275.441406 182.894531 C 275.683594 180.632812 274.957031 178.535156 273.421875 176.917969 Z M 273.421875 176.917969 " fill-opacity="1" fill-rule="nonzero"/><path fill="#99e6f1" d="M 113.957031 206.078125 L 115.652344 229.824219 C 120.738281 232.085938 125.5 234.832031 130.023438 237.984375 L 128.003906 182.007812 C 127.925781 179.988281 127.117188 178.050781 125.582031 176.597656 C 124.128906 175.140625 122.191406 174.414062 120.09375 174.414062 C 117.910156 174.414062 115.8125 175.304688 114.277344 176.917969 C 112.746094 178.535156 112.019531 180.632812 112.179688 182.894531 L 112.421875 186.449219 C 115.167969 184.914062 118.394531 185.398438 120.65625 187.742188 C 123.078125 190.246094 123.320312 193.960938 121.140625 196.789062 Z M 113.957031 206.078125 " fill-opacity="1" fill-rule="nonzero"/><path fill="#99e6f1" d="M 79.558594 216.902344 C 80.203125 217.707031 80.6875 218.679688 80.929688 219.648438 L 100.066406 219.648438 C 100.308594 218.679688 100.792969 217.707031 101.441406 216.902344 L 118.636719 194.851562 C 120.09375 192.992188 119.367188 191.132812 118.394531 190.085938 C 117.425781 189.035156 115.488281 188.308594 113.632812 189.601562 L 104.992188 195.820312 C 103.054688 197.191406 100.472656 197.515625 98.292969 196.546875 C 96.03125 195.578125 94.496094 193.558594 94.171875 191.214844 C 93.851562 188.875 91.992188 188.066406 90.539062 188.066406 C 89.085938 188.066406 87.230469 188.875 86.90625 191.214844 C 86.582031 193.640625 85.050781 195.65625 82.789062 196.546875 C 80.527344 197.515625 78.023438 197.191406 76.085938 195.820312 L 67.449219 189.601562 C 66.71875 189.035156 65.992188 188.875 65.265625 188.875 C 64.21875 188.875 63.25 189.4375 62.601562 190.085938 C 61.554688 191.132812 60.90625 192.992188 62.359375 194.851562 Z M 79.558594 216.902344 " fill-opacity="1" fill-rule="nonzero"/><g clip-path="url(#09790ef11d)"><path fill="#99e6f1" d="M 166.601562 338.300781 C 162.238281 329.660156 159.980469 319.886719 159.980469 310.191406 L 159.980469 302.679688 C 159.980469 268.675781 138.097656 239.273438 105.558594 229.5 C 102.972656 228.773438 101.035156 226.753906 100.148438 224.25 C 99.988281 223.765625 99.90625 223.28125 99.824219 222.878906 L 81.09375 222.878906 C 81.011719 223.363281 80.929688 223.847656 80.769531 224.25 C 79.960938 226.753906 77.945312 228.773438 75.359375 229.5 C 42.980469 239.355469 21.101562 268.757812 21.101562 302.679688 L 21.101562 310.191406 C 21.101562 319.886719 18.839844 329.578125 14.480469 338.300781 C 10.363281 346.539062 8.183594 355.75 8.183594 364.957031 C 8.183594 370.367188 12.542969 374.730469 17.953125 374.730469 L 163.128906 374.730469 C 168.539062 374.730469 172.898438 370.367188 172.898438 364.957031 C 172.898438 355.75 170.71875 346.539062 166.601562 338.300781 Z M 74.714844 243.3125 C 62.84375 246.867188 52.671875 253.976562 45.324219 263.910156 C 45 264.3125 44.515625 264.558594 44.03125 264.558594 C 43.707031 264.558594 43.386719 264.476562 43.0625 264.234375 C 42.335938 263.667969 42.175781 262.699219 42.738281 261.972656 C 50.570312 251.472656 61.3125 243.960938 73.824219 240.164062 C 74.714844 239.921875 75.601562 240.40625 75.84375 241.214844 C 76.085938 242.101562 75.601562 243.070312 74.714844 243.3125 Z M 74.714844 243.3125 " fill-opacity="1" fill-rule="nonzero"/></g><path fill="#99e6f1" d="M 197.445312 50.027344 L 213.027344 48.085938 C 213.429688 48.007812 213.914062 48.167969 214.238281 48.410156 C 214.5625 48.652344 214.804688 49.054688 214.882812 49.460938 C 214.964844 50.1875 215.046875 50.832031 215.046875 51.480469 C 215.046875 55.597656 213.511719 59.3125 210.929688 62.222656 C 215.449219 67.390625 219.246094 73.046875 222.152344 79.265625 C 227.5625 81.363281 232.648438 84.433594 237.089844 88.390625 C 238.542969 89.683594 239.914062 91.058594 241.125 92.511719 L 248.070312 72.480469 C 249.121094 69.492188 250.894531 66.90625 253.398438 64.96875 C 253.15625 64.402344 252.832031 63.917969 252.589844 63.351562 L 252.511719 63.109375 C 249.121094 55.921875 244.515625 49.460938 238.785156 43.886719 C 233.050781 38.3125 226.429688 33.953125 219.082031 30.800781 C 218.921875 30.722656 218.761719 30.640625 218.679688 30.558594 L 207.617188 29.105469 C 207.535156 29.105469 207.535156 29.1875 207.457031 29.1875 L 175.722656 40.171875 C 183.3125 42.269531 190.582031 45.664062 197.203125 50.1875 C 197.203125 50.027344 197.28125 50.027344 197.445312 50.027344 Z M 197.445312 50.027344 " fill-opacity="1" fill-rule="nonzero"/><path fill="#99e6f1" d="M 103.457031 222.878906 L 103.136719 222.878906 C 103.136719 223.039062 103.214844 223.121094 103.214844 223.28125 C 103.699219 224.816406 104.914062 225.949219 106.445312 226.433594 C 108.464844 226.996094 110.402344 227.722656 112.339844 228.453125 L 110.96875 209.875 L 104.023438 218.757812 C 103.863281 219 103.699219 219.324219 103.539062 219.566406 C 104.347656 219.648438 105.074219 220.292969 105.074219 221.183594 C 105.074219 222.152344 104.347656 222.878906 103.457031 222.878906 Z M 103.457031 222.878906 " fill-opacity="1" fill-rule="nonzero"/><g clip-path="url(#b803714b2b)"><path fill="#99e6f1" d="M 332.445312 292.101562 C 327.84375 291.453125 324.128906 288.382812 322.433594 284.265625 L 310.808594 284.265625 C 309.113281 288.304688 305.398438 291.453125 300.796875 292.101562 C 281.253906 294.925781 266.558594 311.890625 266.558594 331.597656 L 266.558594 356.960938 C 266.558594 366.734375 274.554688 374.730469 284.324219 374.730469 L 348.917969 374.730469 C 358.6875 374.730469 366.683594 366.734375 366.683594 356.960938 L 366.683594 331.597656 C 366.683594 311.808594 351.988281 294.847656 332.445312 292.101562 Z M 302.652344 304.863281 C 295.464844 305.914062 288.84375 309.871094 284.566406 315.929688 C 284.242188 316.332031 283.757812 316.574219 283.273438 316.574219 C 282.949219 316.574219 282.628906 316.492188 282.304688 316.25 C 281.578125 315.765625 281.417969 314.714844 281.902344 313.988281 C 286.664062 307.285156 294.09375 302.761719 302.167969 301.632812 C 303.054688 301.46875 303.863281 302.117188 304.023438 303.003906 C 304.1875 303.894531 303.539062 304.78125 302.652344 304.863281 Z M 302.652344 304.863281 " fill-opacity="1" fill-rule="nonzero"/></g><path fill="#99e6f1" d="M 264.945312 365.039062 L 176.128906 365.039062 C 176.128906 368.914062 174.351562 372.386719 171.6875 374.730469 L 273.179688 374.730469 C 269.546875 372.46875 266.640625 369.074219 264.945312 365.039062 Z M 264.945312 365.039062 " fill-opacity="1" fill-rule="nonzero"/><path fill="#99e6f1" d="M 308.707031 155.03125 L 311.695312 119.488281 L 76.167969 119.488281 L 79.15625 155.03125 Z M 90.539062 129.183594 L 297.242188 129.183594 C 298.128906 129.183594 298.859375 129.910156 298.859375 130.796875 C 298.859375 131.6875 298.128906 132.414062 297.242188 132.414062 L 90.539062 132.414062 C 89.652344 132.414062 88.925781 131.6875 88.925781 130.796875 C 88.925781 129.910156 89.652344 129.183594 90.539062 129.183594 Z M 90.539062 142.105469 L 297.242188 142.105469 C 298.128906 142.105469 298.859375 142.832031 298.859375 143.722656 C 298.859375 144.609375 298.128906 145.335938 297.242188 145.335938 L 90.539062 145.335938 C 89.652344 145.335938 88.925781 144.609375 88.925781 143.722656 C 88.925781 142.832031 89.652344 142.105469 90.539062 142.105469 Z M 90.539062 142.105469 " fill-opacity="1" fill-rule="nonzero"/><path fill="#99e6f1" d="M 113.714844 23.128906 L 115.410156 24.5 L 123.484375 31.042969 C 124.695312 32.011719 125.664062 33.226562 126.390625 34.515625 L 149.484375 29.105469 C 149.484375 27.570312 149.804688 26.117188 150.453125 24.664062 L 155.699219 13.195312 C 156.507812 11.496094 156.425781 9.71875 155.457031 8.265625 C 154.488281 6.730469 152.632812 5.679688 150.855469 5.679688 C 149.402344 5.679688 148.109375 6.328125 147.058594 7.539062 C 145.769531 9.074219 143.832031 9.882812 141.894531 9.882812 C 138.984375 9.882812 136.484375 8.183594 135.433594 5.519531 C 134.625 3.421875 132.769531 2.933594 131.316406 3.257812 C 129.941406 3.5 128.328125 4.632812 128.328125 6.8125 C 128.328125 6.972656 128.328125 7.054688 128.328125 7.214844 C 128.488281 9.15625 127.84375 11.011719 126.550781 12.464844 C 124.613281 14.566406 121.546875 15.292969 118.800781 14.242188 C 115.730469 12.949219 113.390625 14.648438 112.339844 16.425781 C 111.289062 18.203125 111.128906 21.027344 113.714844 23.128906 Z M 113.714844 23.128906 " fill-opacity="1" fill-rule="nonzero"/><path fill="#99e6f1" d="M 135.351562 116.257812 C 139.308594 98.894531 152.308594 85.242188 169.585938 80.558594 C 174.269531 79.265625 177.5 75.066406 177.582031 70.300781 L 172.089844 71.027344 C 163.289062 72.15625 155.214844 65.855469 154.164062 57.054688 C 154.085938 56.164062 154.648438 55.355469 155.539062 55.277344 L 171.121094 53.335938 C 175.402344 52.773438 179.601562 53.984375 182.992188 56.566406 L 185.089844 58.183594 L 186.707031 56.082031 C 188.320312 53.984375 190.5 52.289062 192.921875 51.238281 C 183.070312 45.019531 171.769531 41.464844 160.058594 40.738281 C 156.34375 40.496094 152.953125 38.476562 151.015625 35.246094 C 150.453125 34.355469 150.046875 33.386719 149.804688 32.335938 L 127.441406 37.585938 C 127.601562 38.3125 127.683594 39.039062 127.683594 39.765625 C 127.683594 43.886719 125.582031 47.523438 122.03125 49.621094 C 98.453125 63.191406 84.886719 89.199219 87.230469 116.179688 L 135.351562 116.179688 Z M 101.683594 86.375 C 106.851562 74.339844 115.570312 64.566406 126.957031 58.023438 C 127.761719 57.539062 128.730469 57.859375 129.136719 58.585938 C 129.539062 59.3125 129.296875 60.363281 128.570312 60.769531 C 117.832031 66.90625 109.59375 76.195312 104.671875 87.585938 C 104.429688 88.230469 103.78125 88.554688 103.214844 88.554688 C 102.972656 88.554688 102.8125 88.472656 102.570312 88.390625 C 101.683594 88.148438 101.277344 87.179688 101.683594 86.375 Z M 101.683594 86.375 " fill-opacity="1" fill-rule="nonzero"/></svg>