<svg xmlns="http://www.w3.org/2000/svg" xmlns:xlink="http://www.w3.org/1999/xlink" viewBox="0 0 212 246.18"><defs><style>.cls-1{fill:url(#linear-gradient);}.cls-2{fill:url(#linear-gradient-2);}.cls-3{fill:url(#linear-gradient-3);}.cls-4{fill:url(#linear-gradient-4);}.cls-5{fill:url(#linear-gradient-5);}.cls-6{fill:url(#linear-gradient-6);}.cls-7{fill:url(#linear-gradient-7);}.cls-8{fill:url(#linear-gradient-8);}.cls-9{fill:url(#linear-gradient-9);}.cls-10{fill:url(#linear-gradient-10);}.cls-11{fill:url(#linear-gradient-11);}.cls-12{fill:url(#linear-gradient-12);}.cls-13{fill:url(#linear-gradient-13);}.cls-14{fill:url(#linear-gradient-14);}</style><linearGradient id="linear-gradient" x1="103.57" y1="15.94" x2="220.05" y2="243.13" gradientUnits="userSpaceOnUse"><stop offset="0" stop-color="#ffc922"/><stop offset="0.45" stop-color="#ffbf19"/><stop offset="1" stop-color="#fd930d"/></linearGradient><linearGradient id="linear-gradient-2" x1="-7.37" y1="96.84" x2="70.95" y2="-7.01" gradientUnits="userSpaceOnUse"><stop offset="0" stop-color="#044081"/><stop offset="0.51" stop-color="#0480b7"/><stop offset="1" stop-color="#0bd0ed"/></linearGradient><linearGradient id="linear-gradient-3" x1="5.19" y1="138.53" x2="69.91" y2="264.77" gradientUnits="userSpaceOnUse"><stop offset="0" stop-color="#fa1291"/><stop offset="0.6" stop-color="#fc5e44"/><stop offset="1" stop-color="#fd9914"/></linearGradient><linearGradient id="linear-gradient-4" x1="50.6" y1="195.76" x2="99.34" y2="215.04" gradientUnits="userSpaceOnUse"><stop offset="0" stop-color="#ff2662"/><stop offset="1" stop-color="#fc7339"/></linearGradient><linearGradient id="linear-gradient-5" x1="109.79" y1="197.89" x2="168.33" y2="213.16" gradientUnits="userSpaceOnUse"><stop offset="0" stop-color="#fe7f2d"/><stop offset="1" stop-color="#ffa60e"/></linearGradient><linearGradient id="linear-gradient-6" x1="36.08" y1="172.55" x2="45.22" y2="194.72" gradientUnits="userSpaceOnUse"><stop offset="0" stop-color="#e6302b"/><stop offset="1" stop-color="#fa4e38"/></linearGradient><linearGradient id="linear-gradient-7" x1="52.25" y1="39.49" x2="180.27" y2="192.45" gradientUnits="userSpaceOnUse"><stop offset="0" stop-color="#183777"/><stop offset="0.44" stop-color="#fa0b96"/><stop offset="1" stop-color="#f9682e"/></linearGradient><linearGradient id="linear-gradient-8" x1="139.19" y1="144.45" x2="139.19" y2="178.34" gradientUnits="userSpaceOnUse"><stop offset="0" stop-color="#9c3e4f"/><stop offset="1" stop-color="#f56b58"/></linearGradient><linearGradient id="linear-gradient-9" x1="124.48" y1="74.97" x2="145.13" y2="118.79" gradientUnits="userSpaceOnUse"><stop offset="0" stop-color="#38356c"/><stop offset="1" stop-color="#6d3c7c"/></linearGradient><linearGradient id="linear-gradient-10" x1="60.29" y1="66.9" x2="101.81" y2="96.51" gradientUnits="userSpaceOnUse"><stop offset="0" stop-color="#322671"/><stop offset="1" stop-color="#4b317e"/></linearGradient><linearGradient id="linear-gradient-11" x1="67.36" y1="103.1" x2="67.36" y2="179.47" gradientUnits="userSpaceOnUse"><stop offset="0" stop-color="#5e2a79"/><stop offset="0.08" stop-color="#672c78"/><stop offset="0.2" stop-color="#7e3274"/><stop offset="0.35" stop-color="#a43a6f"/><stop offset="0.49" stop-color="#cc4469"/><stop offset="0.67" stop-color="#db5e72"/><stop offset="1" stop-color="#fb9785"/></linearGradient><linearGradient id="linear-gradient-12" x1="70.88" y1="183.02" x2="137.04" y2="183.02" gradientUnits="userSpaceOnUse"><stop offset="0" stop-color="#fe9d8a"/><stop offset="0.11" stop-color="#fea693"/><stop offset="0.28" stop-color="#febdaa"/><stop offset="0.34" stop-color="#fec5b2"/><stop offset="0.6" stop-color="#fdb098"/><stop offset="1" stop-color="#fb8c6a"/></linearGradient><linearGradient id="linear-gradient-13" x1="109.93" y1="133.18" x2="100.78" y2="100.24" gradientUnits="userSpaceOnUse"><stop offset="0" stop-color="#056bc5"/><stop offset="0.52" stop-color="#084e93"/><stop offset="1" stop-color="#0a3569"/></linearGradient><linearGradient id="linear-gradient-14" x1="87.86" y1="185.08" x2="132.33" y2="136.28" gradientUnits="userSpaceOnUse"><stop offset="0" stop-color="#faa131"/><stop offset="0.48" stop-color="#e5e7e0"/><stop offset="0.58" stop-color="#bdcfd5"/><stop offset="0.87" stop-color="#5491b7"/><stop offset="1" stop-color="#2a78ab"/></linearGradient></defs><g id="Layer_2" data-name="Layer 2"><g id="Layer_1-2" data-name="Layer 1"><polygon class="cls-1" points="105.01 0 212 0 212 246.18 105.01 246.18 105.01 215.47 176.34 215.47 176.34 34.67 105.01 34.67 105.01 0"/><polygon class="cls-2" points="0 0 105.01 0 105.01 34.67 31.21 34.67 31.21 132.75 0 132.75 0 0"/><polygon class="cls-3" points="31.21 132.75 31.21 215.47 105.01 215.47 105.01 246.18 0 246.18 0 132.75 31.21 132.75"/><polygon class="cls-4" points="30.7 215.47 56.18 189.71 105.01 189.71 105.01 215.47 30.7 215.47"/><polygon class="cls-5" points="176.82 215.47 105.01 215.47 105.01 189.71 150.61 189.71 176.82 215.47"/><polygon class="cls-6" points="56.47 189.73 56.47 167.42 31.21 167.42 31.21 215.31 56.47 189.73"/><polygon class="cls-7" points="56.47 167.42 31.21 167.42 31.21 34.67 176.34 34.67 176.34 215.47 150.08 189.88 150.08 63.4 56.47 63.4 56.47 167.42"/><polygon class="cls-8" points="150.08 189.7 128.29 176.64 128.29 137.7 150.08 137.7 150.08 189.7"/><polygon class="cls-9" points="128.29 137.7 128.29 99.56 105.01 99.56 105.01 63.4 150.08 63.4 150.08 137.7 128.29 137.7"/><rect class="cls-10" x="56.47" y="63.4" width="48.54" height="36.16"/><polygon class="cls-11" points="56.47 189.94 78.26 176.55 78.26 99.56 56.47 99.56 56.47 189.94"/><polygon class="cls-12" points="78.58 176.34 127.97 176.34 149.48 189.71 57.07 189.56 78.58 176.34"/><polygon class="cls-13" points="128.29 137.7 105.01 137.7 105.01 118.88 78.26 118.88 78.26 99.56 128.29 99.56 128.29 137.7"/><polygon class="cls-14" points="105.01 137.7 105.01 159.99 78.26 159.99 78.26 176.34 128.29 176.34 128.29 137.7 105.01 137.7"/></g></g></svg>